<ttFont>
    <TTGlyph name="A" xMin="29" yMin="-16" xMax="513" yMax="769">
      <contour>
        <pt x="406" y="769" on="1"/>
        <pt x="475" y="769" on="0"/>
        <pt x="476" y="738" on="1"/>
        <pt x="501" y="431" on="1"/>
        <pt x="513" y="22" on="1"/>
        <pt x="513" y="-2" on="0"/>
        <pt x="499" y="-16" on="0"/>
        <pt x="470" y="-16" on="1"/>
        <pt x="381" y="-16" on="0"/>
        <pt x="381" y="22" on="1"/>
        <pt x="375" y="228" on="1"/>
        <pt x="235" y="228" on="1"/>
        <pt x="174" y="21" on="1"/>
        <pt x="169" y="3" on="0"/>
        <pt x="166" y="-2" on="1"/>
        <pt x="160" y="-16" on="0"/>
        <pt x="95" y="-16" on="0"/>
        <pt x="81" y="-16" on="1"/>
        <pt x="38" y="-14" on="0"/>
        <pt x="31" y="0" on="1"/>
        <pt x="29" y="4" on="0"/>
        <pt x="29" y="15" on="0"/>
        <pt x="31" y="22" on="1"/>
        <pt x="157" y="434" on="0"/>
        <pt x="252" y="736" on="0"/>
        <pt x="255" y="746" on="1"/>
        <pt x="262" y="769" on="0"/>
      </contour>
      <contour>
        <pt x="357" y="638" on="1"/>
        <pt x="271" y="349" on="1"/>
        <pt x="370" y="349" on="1"/>
      </contour>
    </TTGlyph>
    <TTGlyph name="AE" xMin="29" yMin="-16" xMax="821" yMax="752">
      <contour>
        <pt x="782" y="752" on="1"/>
        <pt x="821" y="750" on="0"/>
        <pt x="821" y="725" on="1"/>
        <pt x="821" y="713" on="0"/>
        <pt x="814" y="688" on="1"/>
        <pt x="799" y="632" on="0"/>
        <pt x="762" y="632" on="1"/>
        <pt x="539" y="632" on="1"/>
        <pt x="525" y="455" on="1"/>
        <pt x="718" y="455" on="1"/>
        <pt x="754" y="455" on="0"/>
        <pt x="754" y="428" on="1"/>
        <pt x="754" y="424" on="0"/>
        <pt x="747" y="371" on="0"/>
        <pt x="729" y="334" on="0"/>
        <pt x="704" y="334" on="1"/>
        <pt x="508" y="334" on="1"/>
        <pt x="479" y="121" on="1"/>
        <pt x="710" y="121" on="1"/>
        <pt x="733" y="120" on="0"/>
        <pt x="749" y="103" on="0"/>
        <pt x="747" y="86" on="1"/>
        <pt x="740" y="37" on="0"/>
        <pt x="717" y="0" on="0"/>
        <pt x="690" y="0" on="1"/>
        <pt x="338" y="0" on="1"/>
        <pt x="324" y="16" on="1"/>
        <pt x="354" y="228" on="1"/>
        <pt x="235" y="228" on="1"/>
        <pt x="174" y="21" on="1"/>
        <pt x="169" y="3" on="0"/>
        <pt x="166" y="-2" on="1"/>
        <pt x="160" y="-16" on="0"/>
        <pt x="95" y="-16" on="0"/>
        <pt x="81" y="-16" on="1"/>
        <pt x="38" y="-14" on="0"/>
        <pt x="31" y="0" on="1"/>
        <pt x="29" y="4" on="0"/>
        <pt x="29" y="15" on="0"/>
        <pt x="31" y="22" on="1"/>
        <pt x="241" y="692" on="1"/>
        <pt x="254" y="736" on="0"/>
        <pt x="310" y="745" on="1"/>
        <pt x="352" y="752" on="0"/>
        <pt x="428" y="752" on="1"/>
      </contour>
      <contour>
        <pt x="357" y="638" on="1"/>
        <pt x="271" y="349" on="1"/>
        <pt x="370" y="349" on="1"/>
        <pt x="410" y="638" on="1"/>
      </contour>
    </TTGlyph>
    <TTGlyph name="AE_smcp" xMin="36" yMin="-11" xMax="582" yMax="522">
      <contour>
        <pt x="549" y="522" on="1"/>
        <pt x="582" y="520" on="0"/>
        <pt x="582" y="498" on="1"/>
        <pt x="582" y="460" on="0"/>
        <pt x="562" y="438" on="1"/>
        <pt x="551" y="427" on="0"/>
        <pt x="534" y="427" on="1"/>
        <pt x="394" y="427" on="1"/>
        <pt x="385" y="324" on="1"/>
        <pt x="506" y="324" on="1"/>
        <pt x="537" y="324" on="0"/>
        <pt x="537" y="298" on="1"/>
        <pt x="537" y="228" on="0"/>
        <pt x="495" y="228" on="1"/>
        <pt x="372" y="228" on="1"/>
        <pt x="353" y="96" on="1"/>
        <pt x="500" y="96" on="1"/>
        <pt x="520" y="95" on="0"/>
        <pt x="533" y="80" on="0"/>
        <pt x="526" y="28" on="0"/>
        <pt x="508" y="0" on="0"/>
        <pt x="485" y="0" on="1"/>
        <pt x="284" y="0" on="1"/>
        <pt x="239" y="0" on="0"/>
        <pt x="236" y="10" on="1"/>
        <pt x="235" y="16" on="0"/>
        <pt x="236" y="25" on="1"/>
        <pt x="254" y="151" on="1"/>
        <pt x="186" y="151" on="1"/>
        <pt x="148" y="18" on="1"/>
        <pt x="144" y="0" on="0"/>
        <pt x="131" y="-11" on="0"/>
        <pt x="85" y="-11" on="0"/>
        <pt x="74" y="-10" on="1"/>
        <pt x="43" y="-9" on="0"/>
        <pt x="38" y="4" on="1"/>
        <pt x="36" y="7" on="0"/>
        <pt x="36" y="17" on="0"/>
        <pt x="38" y="23" on="1"/>
        <pt x="188" y="501" on="1"/>
        <pt x="195" y="522" on="0"/>
        <pt x="306" y="522" on="1"/>
      </contour>
      <contour>
        <pt x="260" y="411" on="1"/>
        <pt x="215" y="247" on="1"/>
        <pt x="262" y="247" on="1"/>
        <pt x="285" y="411" on="1"/>
      </contour>
    </TTGlyph>
    <TTGlyph name="A_smcp" xMin="14" yMin="-11" xMax="352" yMax="528">
      <contour>
        <pt x="275" y="528" on="1"/>
        <pt x="324" y="528" on="0"/>
        <pt x="328" y="502" on="1"/>
        <pt x="352" y="24" on="1"/>
        <pt x="351" y="2" on="0"/>
        <pt x="340" y="-11" on="0"/>
        <pt x="316" y="-11" on="1"/>
        <pt x="250" y="-11" on="0"/>
        <pt x="247" y="21" on="1"/>
        <pt x="245" y="151" on="1"/>
        <pt x="164" y="151" on="1"/>
        <pt x="126" y="18" on="1"/>
        <pt x="122" y="0" on="0"/>
        <pt x="109" y="-11" on="0"/>
        <pt x="63" y="-11" on="0"/>
        <pt x="52" y="-10" on="1"/>
        <pt x="21" y="-9" on="0"/>
        <pt x="16" y="4" on="1"/>
        <pt x="14" y="7" on="0"/>
        <pt x="14" y="17" on="0"/>
        <pt x="16" y="23" on="1"/>
        <pt x="166" y="507" on="1"/>
        <pt x="173" y="528" on="0"/>
      </contour>
      <contour>
        <pt x="235" y="385" on="1"/>
        <pt x="193" y="247" on="1"/>
        <pt x="240" y="247" on="1"/>
      </contour>
    </TTGlyph>
    <TTGlyph name="A_smcpacute" xMin="14" yMin="-11" xMax="449" yMax="784">
      <contour>
        <pt x="265" y="552" on="1"/>
        <pt x="222" y="573" on="1"/>
        <pt x="229" y="628" on="1"/>
        <pt x="303" y="752" on="1"/>
        <pt x="350" y="784" on="1"/>
        <pt x="449" y="724" on="1"/>
      </contour>
      <contour>
        <pt x="275" y="528" on="1"/>
        <pt x="324" y="528" on="0"/>
        <pt x="328" y="502" on="1"/>
        <pt x="352" y="24" on="1"/>
        <pt x="351" y="2" on="0"/>
        <pt x="340" y="-11" on="0"/>
        <pt x="316" y="-11" on="1"/>
        <pt x="250" y="-11" on="0"/>
        <pt x="247" y="21" on="1"/>
        <pt x="245" y="151" on="1"/>
        <pt x="164" y="151" on="1"/>
        <pt x="126" y="18" on="1"/>
        <pt x="122" y="0" on="0"/>
        <pt x="109" y="-11" on="0"/>
        <pt x="63" y="-11" on="0"/>
        <pt x="52" y="-10" on="1"/>
        <pt x="21" y="-9" on="0"/>
        <pt x="16" y="4" on="1"/>
        <pt x="14" y="7" on="0"/>
        <pt x="14" y="17" on="0"/>
        <pt x="16" y="23" on="1"/>
        <pt x="166" y="507" on="1"/>
        <pt x="173" y="528" on="0"/>
      </contour>
      <contour>
        <pt x="235" y="385" on="1"/>
        <pt x="193" y="247" on="1"/>
        <pt x="240" y="247" on="1"/>
      </contour>
    </TTGlyph>
    <TTGlyph name="A_smcpcircunflex" xMin="30" yMin="-11" xMax="447" yMax="784">
      <contour>
        <pt x="153" y="588" on="1"/>
        <pt x="119" y="620" on="1"/>
        <pt x="139" y="674" on="1"/>
        <pt x="254" y="764" on="1"/>
        <pt x="306" y="784" on="1"/>
        <pt x="352" y="764" on="1"/>
        <pt x="441" y="674" on="1"/>
        <pt x="447" y="620" on="1"/>
        <pt x="403" y="588" on="1"/>
        <pt x="290" y="669" on="1"/>
      </contour>
      <contour>
        <pt x="291" y="528" on="1"/>
        <pt x="340" y="528" on="0"/>
        <pt x="344" y="502" on="1"/>
        <pt x="368" y="24" on="1"/>
        <pt x="367" y="2" on="0"/>
        <pt x="356" y="-11" on="0"/>
        <pt x="332" y="-11" on="1"/>
        <pt x="266" y="-11" on="0"/>
        <pt x="263" y="21" on="1"/>
        <pt x="261" y="151" on="1"/>
        <pt x="180" y="151" on="1"/>
        <pt x="142" y="18" on="1"/>
        <pt x="138" y="0" on="0"/>
        <pt x="125" y="-11" on="0"/>
        <pt x="79" y="-11" on="0"/>
        <pt x="68" y="-10" on="1"/>
        <pt x="37" y="-9" on="0"/>
        <pt x="32" y="4" on="1"/>
        <pt x="30" y="7" on="0"/>
        <pt x="30" y="17" on="0"/>
        <pt x="32" y="23" on="1"/>
        <pt x="182" y="507" on="1"/>
        <pt x="189" y="528" on="0"/>
      </contour>
      <contour>
        <pt x="251" y="385" on="1"/>
        <pt x="209" y="247" on="1"/>
        <pt x="256" y="247" on="1"/>
      </contour>
    </TTGlyph>
    <TTGlyph name="A_smcpdieresis" xMin="78" yMin="-11" xMax="517" yMax="784">
      <contour>
        <pt x="220" y="784" on="1"/>
        <pt x="283" y="784" on="0"/>
        <pt x="283" y="727" on="1"/>
        <pt x="283" y="720" on="0"/>
        <pt x="282" y="712" on="1"/>
        <pt x="272" y="640" on="0"/>
        <pt x="199" y="640" on="1"/>
        <pt x="137" y="640" on="0"/>
        <pt x="137" y="695" on="1"/>
        <pt x="137" y="703" on="0"/>
        <pt x="138" y="712" on="1"/>
        <pt x="147" y="784" on="0"/>
      </contour>
      <contour>
        <pt x="454" y="784" on="1"/>
        <pt x="517" y="784" on="0"/>
        <pt x="517" y="727" on="1"/>
        <pt x="517" y="720" on="0"/>
        <pt x="516" y="712" on="1"/>
        <pt x="506" y="640" on="0"/>
        <pt x="433" y="640" on="1"/>
        <pt x="371" y="640" on="0"/>
        <pt x="371" y="695" on="1"/>
        <pt x="371" y="703" on="0"/>
        <pt x="372" y="712" on="1"/>
        <pt x="381" y="784" on="0"/>
      </contour>
      <contour>
        <pt x="339" y="528" on="1"/>
        <pt x="388" y="528" on="0"/>
        <pt x="392" y="502" on="1"/>
        <pt x="416" y="24" on="1"/>
        <pt x="415" y="2" on="0"/>
        <pt x="404" y="-11" on="0"/>
        <pt x="380" y="-11" on="1"/>
        <pt x="314" y="-11" on="0"/>
        <pt x="311" y="21" on="1"/>
        <pt x="309" y="151" on="1"/>
        <pt x="228" y="151" on="1"/>
        <pt x="190" y="18" on="1"/>
        <pt x="186" y="0" on="0"/>
        <pt x="173" y="-11" on="0"/>
        <pt x="127" y="-11" on="0"/>
        <pt x="116" y="-10" on="1"/>
        <pt x="85" y="-9" on="0"/>
        <pt x="80" y="4" on="1"/>
        <pt x="78" y="7" on="0"/>
        <pt x="78" y="17" on="0"/>
        <pt x="80" y="23" on="1"/>
        <pt x="230" y="507" on="1"/>
        <pt x="237" y="528" on="0"/>
      </contour>
      <contour>
        <pt x="299" y="385" on="1"/>
        <pt x="257" y="247" on="1"/>
        <pt x="304" y="247" on="1"/>
      </contour>
    </TTGlyph>
    <TTGlyph name="A_smcpgrave" xMin="14" yMin="-11" xMax="352" yMax="784">
      <contour>
        <pt x="309" y="573" on="1"/>
        <pt x="260" y="552" on="1"/>
        <pt x="124" y="724" on="1"/>
        <pt x="241" y="784" on="1"/>
        <pt x="278" y="752" on="1"/>
        <pt x="318" y="628" on="1"/>
      </contour>
      <contour>
        <pt x="275" y="528" on="1"/>
        <pt x="324" y="528" on="0"/>
        <pt x="328" y="502" on="1"/>
        <pt x="352" y="24" on="1"/>
        <pt x="351" y="2" on="0"/>
        <pt x="340" y="-11" on="0"/>
        <pt x="316" y="-11" on="1"/>
        <pt x="250" y="-11" on="0"/>
        <pt x="247" y="21" on="1"/>
        <pt x="245" y="151" on="1"/>
        <pt x="164" y="151" on="1"/>
        <pt x="126" y="18" on="1"/>
        <pt x="122" y="0" on="0"/>
        <pt x="109" y="-11" on="0"/>
        <pt x="63" y="-11" on="0"/>
        <pt x="52" y="-10" on="1"/>
        <pt x="21" y="-9" on="0"/>
        <pt x="16" y="4" on="1"/>
        <pt x="14" y="7" on="0"/>
        <pt x="14" y="17" on="0"/>
        <pt x="16" y="23" on="1"/>
        <pt x="166" y="507" on="1"/>
        <pt x="173" y="528" on="0"/>
      </contour>
      <contour>
        <pt x="235" y="385" on="1"/>
        <pt x="193" y="247" on="1"/>
        <pt x="240" y="247" on="1"/>
      </contour>
    </TTGlyph>
    <TTGlyph name="A_smcpring" xMin="28" yMin="-11" xMax="391" yMax="768">
      <contour>
        <pt x="306" y="768" on="1"/>
        <pt x="391" y="768" on="0"/>
        <pt x="391" y="694" on="1"/>
        <pt x="391" y="683" on="0"/>
        <pt x="389" y="672" on="1"/>
        <pt x="376" y="576" on="0"/>
        <pt x="279" y="576" on="1"/>
        <pt x="195" y="576" on="0"/>
        <pt x="195" y="650" on="1"/>
        <pt x="195" y="660" on="0"/>
        <pt x="197" y="672" on="1"/>
        <pt x="210" y="768" on="0"/>
      </contour>
      <contour>
        <pt x="298" y="707" on="1"/>
        <pt x="257" y="707" on="0"/>
        <pt x="257" y="664" on="1"/>
        <pt x="257" y="637" on="0"/>
        <pt x="288" y="637" on="1"/>
        <pt x="329" y="637" on="0"/>
        <pt x="329" y="680" on="1"/>
        <pt x="329" y="707" on="0"/>
      </contour>
      <contour>
        <pt x="289" y="528" on="1"/>
        <pt x="338" y="528" on="0"/>
        <pt x="342" y="502" on="1"/>
        <pt x="366" y="24" on="1"/>
        <pt x="365" y="2" on="0"/>
        <pt x="354" y="-11" on="0"/>
        <pt x="330" y="-11" on="1"/>
        <pt x="264" y="-11" on="0"/>
        <pt x="261" y="21" on="1"/>
        <pt x="259" y="151" on="1"/>
        <pt x="178" y="151" on="1"/>
        <pt x="140" y="18" on="1"/>
        <pt x="136" y="0" on="0"/>
        <pt x="123" y="-11" on="0"/>
        <pt x="77" y="-11" on="0"/>
        <pt x="66" y="-10" on="1"/>
        <pt x="35" y="-9" on="0"/>
        <pt x="30" y="4" on="1"/>
        <pt x="28" y="7" on="0"/>
        <pt x="28" y="17" on="0"/>
        <pt x="30" y="23" on="1"/>
        <pt x="180" y="507" on="1"/>
        <pt x="187" y="528" on="0"/>
      </contour>
      <contour>
        <pt x="249" y="385" on="1"/>
        <pt x="207" y="247" on="1"/>
        <pt x="254" y="247" on="1"/>
      </contour>
    </TTGlyph>
    <TTGlyph name="A_smcptilde" xMin="46" yMin="-11" xMax="478" yMax="745">
      <contour>
        <pt x="455" y="644" on="1"/>
        <pt x="448" y="644" on="0"/>
        <pt x="373" y="644" on="0"/>
        <pt x="254" y="624" on="0"/>
        <pt x="154" y="624" on="0"/>
        <pt x="134" y="640" on="0"/>
        <pt x="134" y="666" on="0"/>
        <pt x="135" y="676" on="1"/>
        <pt x="167" y="727" on="1"/>
        <pt x="242" y="727" on="0"/>
        <pt x="343" y="745" on="0"/>
        <pt x="449" y="745" on="0"/>
        <pt x="478" y="726" on="0"/>
        <pt x="478" y="704" on="1"/>
        <pt x="478" y="697" on="0"/>
        <pt x="477" y="689" on="1"/>
      </contour>
      <contour>
        <pt x="205" y="528" on="0"/>
        <pt x="307" y="528" on="1"/>
        <pt x="356" y="528" on="0"/>
        <pt x="360" y="502" on="1"/>
        <pt x="384" y="24" on="1"/>
        <pt x="383" y="2" on="0"/>
        <pt x="372" y="-11" on="0"/>
        <pt x="348" y="-11" on="1"/>
        <pt x="282" y="-11" on="0"/>
        <pt x="279" y="21" on="1"/>
        <pt x="277" y="151" on="1"/>
        <pt x="196" y="151" on="1"/>
        <pt x="158" y="18" on="1"/>
        <pt x="154" y="0" on="0"/>
        <pt x="141" y="-11" on="0"/>
        <pt x="95" y="-11" on="0"/>
        <pt x="84" y="-10" on="1"/>
        <pt x="53" y="-9" on="0"/>
        <pt x="48" y="4" on="1"/>
        <pt x="46" y="7" on="0"/>
        <pt x="46" y="17" on="0"/>
        <pt x="48" y="23" on="1"/>
        <pt x="198" y="507" on="1"/>
      </contour>
      <contour>
        <pt x="267" y="385" on="1"/>
        <pt x="225" y="247" on="1"/>
        <pt x="272" y="247" on="1"/>
      </contour>
    </TTGlyph>
    <TTGlyph name="Aacute" xMin="29" yMin="-16" xMax="563" yMax="1024">
      <contour>
        <pt x="379" y="792" on="1"/>
        <pt x="336" y="813" on="1"/>
        <pt x="342" y="868" on="1"/>
        <pt x="417" y="992" on="1"/>
        <pt x="463" y="1024" on="1"/>
        <pt x="563" y="964" on="1"/>
      </contour>
      <contour>
        <pt x="406" y="769" on="1"/>
        <pt x="475" y="769" on="0"/>
        <pt x="476" y="738" on="1"/>
        <pt x="501" y="431" on="1"/>
        <pt x="513" y="22" on="1"/>
        <pt x="513" y="-2" on="0"/>
        <pt x="499" y="-16" on="0"/>
        <pt x="470" y="-16" on="1"/>
        <pt x="381" y="-16" on="0"/>
        <pt x="381" y="22" on="1"/>
        <pt x="375" y="228" on="1"/>
        <pt x="235" y="228" on="1"/>
        <pt x="174" y="21" on="1"/>
        <pt x="169" y="3" on="0"/>
        <pt x="166" y="-2" on="1"/>
        <pt x="160" y="-16" on="0"/>
        <pt x="95" y="-16" on="0"/>
        <pt x="81" y="-16" on="1"/>
        <pt x="38" y="-14" on="0"/>
        <pt x="31" y="0" on="1"/>
        <pt x="29" y="4" on="0"/>
        <pt x="29" y="15" on="0"/>
        <pt x="31" y="22" on="1"/>
        <pt x="157" y="434" on="0"/>
        <pt x="252" y="736" on="0"/>
        <pt x="255" y="746" on="1"/>
        <pt x="262" y="769" on="0"/>
      </contour>
      <contour>
        <pt x="357" y="638" on="1"/>
        <pt x="271" y="349" on="1"/>
        <pt x="370" y="349" on="1"/>
      </contour>
    </TTGlyph>
    <TTGlyph name="Acircumflex" xMin="29" yMin="-16" xMax="551" yMax="1024">
      <contour>
        <pt x="258" y="828" on="1"/>
        <pt x="223" y="860" on="1"/>
        <pt x="244" y="914" on="1"/>
        <pt x="359" y="1004" on="1"/>
        <pt x="410" y="1024" on="1"/>
        <pt x="457" y="1004" on="1"/>
        <pt x="546" y="914" on="1"/>
        <pt x="551" y="860" on="1"/>
        <pt x="508" y="828" on="1"/>
        <pt x="394" y="909" on="1"/>
      </contour>
      <contour>
        <pt x="406" y="769" on="1"/>
        <pt x="475" y="769" on="0"/>
        <pt x="476" y="738" on="1"/>
        <pt x="501" y="431" on="1"/>
        <pt x="513" y="22" on="1"/>
        <pt x="513" y="-2" on="0"/>
        <pt x="499" y="-16" on="0"/>
        <pt x="470" y="-16" on="1"/>
        <pt x="381" y="-16" on="0"/>
        <pt x="381" y="22" on="1"/>
        <pt x="375" y="228" on="1"/>
        <pt x="235" y="228" on="1"/>
        <pt x="174" y="21" on="1"/>
        <pt x="169" y="3" on="0"/>
        <pt x="166" y="-2" on="1"/>
        <pt x="160" y="-16" on="0"/>
        <pt x="95" y="-16" on="0"/>
        <pt x="81" y="-16" on="1"/>
        <pt x="38" y="-14" on="0"/>
        <pt x="31" y="0" on="1"/>
        <pt x="29" y="4" on="0"/>
        <pt x="29" y="15" on="0"/>
        <pt x="31" y="22" on="1"/>
        <pt x="157" y="434" on="0"/>
        <pt x="252" y="736" on="0"/>
        <pt x="255" y="746" on="1"/>
        <pt x="262" y="769" on="0"/>
      </contour>
      <contour>
        <pt x="357" y="638" on="1"/>
        <pt x="271" y="349" on="1"/>
        <pt x="370" y="349" on="1"/>
      </contour>
    </TTGlyph>
    <TTGlyph name="Adieresis" xMin="29" yMin="-16" xMax="591" yMax="1024">
      <contour>
        <pt x="294" y="1024" on="1"/>
        <pt x="357" y="1024" on="0"/>
        <pt x="357" y="968" on="1"/>
        <pt x="357" y="961" on="0"/>
        <pt x="356" y="952" on="1"/>
        <pt x="346" y="880" on="0"/>
        <pt x="274" y="880" on="1"/>
        <pt x="211" y="880" on="0"/>
        <pt x="211" y="936" on="1"/>
        <pt x="211" y="943" on="0"/>
        <pt x="212" y="952" on="1"/>
        <pt x="222" y="1024" on="0"/>
      </contour>
      <contour>
        <pt x="528" y="1024" on="1"/>
        <pt x="591" y="1024" on="0"/>
        <pt x="591" y="968" on="1"/>
        <pt x="591" y="961" on="0"/>
        <pt x="590" y="952" on="1"/>
        <pt x="580" y="880" on="0"/>
        <pt x="508" y="880" on="1"/>
        <pt x="445" y="880" on="0"/>
        <pt x="445" y="936" on="1"/>
        <pt x="445" y="943" on="0"/>
        <pt x="446" y="952" on="1"/>
        <pt x="456" y="1024" on="0"/>
      </contour>
      <contour>
        <pt x="406" y="769" on="1"/>
        <pt x="475" y="769" on="0"/>
        <pt x="476" y="738" on="1"/>
        <pt x="501" y="431" on="1"/>
        <pt x="513" y="22" on="1"/>
        <pt x="513" y="-2" on="0"/>
        <pt x="499" y="-16" on="0"/>
        <pt x="470" y="-16" on="1"/>
        <pt x="381" y="-16" on="0"/>
        <pt x="381" y="22" on="1"/>
        <pt x="375" y="228" on="1"/>
        <pt x="235" y="228" on="1"/>
        <pt x="174" y="21" on="1"/>
        <pt x="169" y="3" on="0"/>
        <pt x="166" y="-2" on="1"/>
        <pt x="160" y="-16" on="0"/>
        <pt x="95" y="-16" on="0"/>
        <pt x="81" y="-16" on="1"/>
        <pt x="38" y="-14" on="0"/>
        <pt x="31" y="0" on="1"/>
        <pt x="29" y="4" on="0"/>
        <pt x="29" y="15" on="0"/>
        <pt x="31" y="22" on="1"/>
        <pt x="157" y="434" on="0"/>
        <pt x="252" y="736" on="0"/>
        <pt x="255" y="746" on="1"/>
        <pt x="262" y="769" on="0"/>
      </contour>
      <contour>
        <pt x="357" y="638" on="1"/>
        <pt x="271" y="349" on="1"/>
        <pt x="370" y="349" on="1"/>
      </contour>
    </TTGlyph>
    <TTGlyph name="Agrave" xMin="29" yMin="-16" xMax="513" yMax="1024">
      <contour>
        <pt x="412" y="813" on="1"/>
        <pt x="363" y="792" on="1"/>
        <pt x="227" y="964" on="1"/>
        <pt x="343" y="1024" on="1"/>
        <pt x="381" y="992" on="1"/>
        <pt x="420" y="868" on="1"/>
      </contour>
      <contour>
        <pt x="406" y="769" on="1"/>
        <pt x="475" y="769" on="0"/>
        <pt x="476" y="738" on="1"/>
        <pt x="501" y="431" on="1"/>
        <pt x="513" y="22" on="1"/>
        <pt x="513" y="-2" on="0"/>
        <pt x="499" y="-16" on="0"/>
        <pt x="470" y="-16" on="1"/>
        <pt x="381" y="-16" on="0"/>
        <pt x="381" y="22" on="1"/>
        <pt x="375" y="228" on="1"/>
        <pt x="235" y="228" on="1"/>
        <pt x="174" y="21" on="1"/>
        <pt x="169" y="3" on="0"/>
        <pt x="166" y="-2" on="1"/>
        <pt x="160" y="-16" on="0"/>
        <pt x="95" y="-16" on="0"/>
        <pt x="81" y="-16" on="1"/>
        <pt x="38" y="-14" on="0"/>
        <pt x="31" y="0" on="1"/>
        <pt x="29" y="4" on="0"/>
        <pt x="29" y="15" on="0"/>
        <pt x="31" y="22" on="1"/>
        <pt x="157" y="434" on="0"/>
        <pt x="252" y="736" on="0"/>
        <pt x="255" y="746" on="1"/>
        <pt x="262" y="769" on="0"/>
      </contour>
      <contour>
        <pt x="357" y="638" on="1"/>
        <pt x="271" y="349" on="1"/>
        <pt x="370" y="349" on="1"/>
      </contour>
    </TTGlyph>
    <TTGlyph name="Aring" xMin="29" yMin="-16" xMax="513" yMax="985">
      <contour>
        <pt x="401" y="985" on="1"/>
        <pt x="485" y="985" on="0"/>
        <pt x="485" y="912" on="1"/>
        <pt x="485" y="901" on="0"/>
        <pt x="483" y="889" on="1"/>
        <pt x="470" y="793" on="0"/>
        <pt x="374" y="793" on="1"/>
        <pt x="289" y="793" on="0"/>
        <pt x="289" y="867" on="1"/>
        <pt x="289" y="878" on="0"/>
        <pt x="291" y="889" on="1"/>
        <pt x="305" y="985" on="0"/>
      </contour>
      <contour>
        <pt x="383" y="854" on="1"/>
        <pt x="423" y="854" on="0"/>
        <pt x="423" y="897" on="1"/>
        <pt x="423" y="924" on="0"/>
        <pt x="357" y="924" on="0"/>
        <pt x="352" y="889" on="1"/>
        <pt x="352" y="885" on="0"/>
        <pt x="352" y="882" on="1"/>
        <pt x="352" y="854" on="0"/>
      </contour>
      <contour>
        <pt x="406" y="769" on="1"/>
        <pt x="475" y="769" on="0"/>
        <pt x="476" y="738" on="1"/>
        <pt x="501" y="431" on="1"/>
        <pt x="513" y="22" on="1"/>
        <pt x="513" y="-2" on="0"/>
        <pt x="499" y="-16" on="0"/>
        <pt x="470" y="-16" on="1"/>
        <pt x="381" y="-16" on="0"/>
        <pt x="381" y="22" on="1"/>
        <pt x="375" y="228" on="1"/>
        <pt x="235" y="228" on="1"/>
        <pt x="174" y="21" on="1"/>
        <pt x="169" y="3" on="0"/>
        <pt x="166" y="-2" on="1"/>
        <pt x="160" y="-16" on="0"/>
        <pt x="95" y="-16" on="0"/>
        <pt x="81" y="-16" on="1"/>
        <pt x="38" y="-14" on="0"/>
        <pt x="31" y="0" on="1"/>
        <pt x="29" y="4" on="0"/>
        <pt x="29" y="15" on="0"/>
        <pt x="31" y="22" on="1"/>
        <pt x="157" y="434" on="0"/>
        <pt x="252" y="736" on="0"/>
        <pt x="255" y="746" on="1"/>
        <pt x="262" y="769" on="0"/>
      </contour>
      <contour>
        <pt x="357" y="638" on="1"/>
        <pt x="271" y="349" on="1"/>
        <pt x="370" y="349" on="1"/>
      </contour>
    </TTGlyph>
    <TTGlyph name="Atilde" xMin="29" yMin="-16" xMax="582" yMax="985">
      <contour>
        <pt x="559" y="884" on="1"/>
        <pt x="552" y="884" on="0"/>
        <pt x="475" y="884" on="0"/>
        <pt x="326" y="864" on="0"/>
        <pt x="226" y="864" on="0"/>
        <pt x="205" y="881" on="0"/>
        <pt x="205" y="908" on="0"/>
        <pt x="206" y="916" on="1"/>
        <pt x="238" y="967" on="1"/>
        <pt x="313" y="967" on="0"/>
        <pt x="447" y="985" on="0"/>
        <pt x="553" y="985" on="0"/>
        <pt x="582" y="966" on="0"/>
        <pt x="582" y="944" on="1"/>
        <pt x="582" y="937" on="0"/>
        <pt x="581" y="929" on="1"/>
      </contour>
      <contour>
        <pt x="406" y="769" on="1"/>
        <pt x="475" y="769" on="0"/>
        <pt x="476" y="738" on="1"/>
        <pt x="501" y="431" on="1"/>
        <pt x="513" y="22" on="1"/>
        <pt x="513" y="-2" on="0"/>
        <pt x="499" y="-16" on="0"/>
        <pt x="470" y="-16" on="1"/>
        <pt x="381" y="-16" on="0"/>
        <pt x="381" y="22" on="1"/>
        <pt x="375" y="228" on="1"/>
        <pt x="235" y="228" on="1"/>
        <pt x="174" y="21" on="1"/>
        <pt x="169" y="3" on="0"/>
        <pt x="166" y="-2" on="1"/>
        <pt x="160" y="-16" on="0"/>
        <pt x="95" y="-16" on="0"/>
        <pt x="81" y="-16" on="1"/>
        <pt x="38" y="-14" on="0"/>
        <pt x="31" y="0" on="1"/>
        <pt x="29" y="4" on="0"/>
        <pt x="29" y="15" on="0"/>
        <pt x="31" y="22" on="1"/>
        <pt x="157" y="434" on="0"/>
        <pt x="252" y="736" on="0"/>
        <pt x="255" y="746" on="1"/>
        <pt x="262" y="769" on="0"/>
      </contour>
      <contour>
        <pt x="357" y="638" on="1"/>
        <pt x="271" y="349" on="1"/>
        <pt x="370" y="349" on="1"/>
      </contour>
    </TTGlyph>
    <TTGlyph name="B" xMin="45" yMin="-16" xMax="586" yMax="768">
      <contour>
        <pt x="341" y="768" on="1"/>
        <pt x="494" y="768" on="0"/>
        <pt x="546" y="718" on="1"/>
        <pt x="586" y="679" on="0"/>
        <pt x="586" y="604" on="1"/>
        <pt x="586" y="581" on="0"/>
        <pt x="582" y="554" on="1"/>
        <pt x="567" y="449" on="0"/>
        <pt x="517" y="395" on="1"/>
        <pt x="559" y="356" on="0"/>
        <pt x="559" y="276" on="1"/>
        <pt x="559" y="250" on="0"/>
        <pt x="555" y="220" on="1"/>
        <pt x="523" y="-16" on="0"/>
        <pt x="251" y="-16" on="1"/>
        <pt x="220" y="-16" on="0"/>
        <pt x="45" y="0" on="1"/>
        <pt x="150" y="752" on="1"/>
        <pt x="256" y="768" on="0"/>
      </contour>
      <contour>
        <pt x="405" y="221" on="1"/>
        <pt x="409" y="249" on="0"/>
        <pt x="409" y="295" on="0"/>
        <pt x="401" y="303" on="1"/>
        <pt x="388" y="317" on="0"/>
        <pt x="263" y="317" on="0"/>
        <pt x="229" y="313" on="0"/>
        <pt x="228" y="303" on="1"/>
        <pt x="203" y="124" on="1"/>
        <pt x="202" y="114" on="0"/>
        <pt x="228" y="109" on="0"/>
        <pt x="350" y="109" on="0"/>
        <pt x="395" y="153" on="0"/>
      </contour>
      <contour>
        <pt x="248" y="450" on="1"/>
        <pt x="248" y="441" on="0"/>
        <pt x="265" y="441" on="1"/>
        <pt x="352" y="441" on="0"/>
        <pt x="421" y="483" on="0"/>
        <pt x="432" y="555" on="1"/>
        <pt x="434" y="567" on="0"/>
        <pt x="434" y="604" on="0"/>
        <pt x="410" y="649" on="0"/>
        <pt x="390" y="649" on="1"/>
        <pt x="304" y="649" on="0"/>
        <pt x="284" y="638" on="1"/>
        <pt x="278" y="634" on="0"/>
        <pt x="273" y="626" on="1"/>
        <pt x="250" y="457" on="1"/>
        <pt x="248" y="453" on="0"/>
      </contour>
    </TTGlyph>
    <TTGlyph name="B_smcp" xMin="32" yMin="-6" xMax="409" yMax="531">
      <contour>
        <pt x="409" y="419" on="1"/>
        <pt x="409" y="334" on="0"/>
        <pt x="367" y="277" on="1"/>
        <pt x="392" y="251" on="0"/>
        <pt x="392" y="197" on="1"/>
        <pt x="392" y="179" on="0"/>
        <pt x="389" y="158" on="1"/>
        <pt x="366" y="-6" on="0"/>
        <pt x="177" y="-6" on="1"/>
        <pt x="157" y="-6" on="0"/>
        <pt x="32" y="5" on="1"/>
        <pt x="105" y="522" on="1"/>
        <pt x="175" y="531" on="0"/>
        <pt x="239" y="531" on="1"/>
        <pt x="346" y="531" on="0"/>
        <pt x="382" y="496" on="1"/>
        <pt x="409" y="470" on="0"/>
      </contour>
      <contour>
        <pt x="240" y="93" on="0"/>
        <pt x="266" y="119" on="0"/>
        <pt x="274" y="175" on="0"/>
        <pt x="274" y="202" on="0"/>
        <pt x="262" y="216" on="0"/>
        <pt x="172" y="216" on="0"/>
        <pt x="172" y="215" on="1"/>
        <pt x="155" y="95" on="1"/>
        <pt x="155" y="93" on="0"/>
      </contour>
      <contour>
        <pt x="190" y="315" on="1"/>
        <pt x="243" y="315" on="0"/>
        <pt x="285" y="340" on="0"/>
        <pt x="291" y="382" on="1"/>
        <pt x="292" y="389" on="0"/>
        <pt x="292" y="410" on="0"/>
        <pt x="280" y="436" on="0"/>
        <pt x="270" y="436" on="1"/>
        <pt x="208" y="435" on="0"/>
        <pt x="202" y="429" on="1"/>
        <pt x="186" y="318" on="1"/>
        <pt x="186" y="315" on="0"/>
      </contour>
    </TTGlyph>
    <TTGlyph name="C" xMin="74" yMin="-16" xMax="570" yMax="768">
      <contour>
        <pt x="293" y="-16" on="1"/>
        <pt x="144" y="-16" on="0"/>
        <pt x="100" y="68" on="1"/>
        <pt x="74" y="117" on="0"/>
        <pt x="74" y="280" on="0"/>
        <pt x="87" y="371" on="1"/>
        <pt x="109" y="531" on="0"/>
        <pt x="182" y="700" on="0"/>
        <pt x="300" y="768" on="0"/>
        <pt x="517" y="768" on="0"/>
        <pt x="563" y="734" on="1"/>
        <pt x="570" y="728" on="0"/>
        <pt x="570" y="710" on="0"/>
        <pt x="542" y="652" on="0"/>
        <pt x="523" y="629" on="0"/>
        <pt x="504" y="629" on="0"/>
        <pt x="499" y="630" on="1"/>
        <pt x="426" y="645" on="0"/>
        <pt x="317" y="645" on="0"/>
        <pt x="267" y="525" on="0"/>
        <pt x="229" y="252" on="0"/>
        <pt x="229" y="149" on="0"/>
        <pt x="261" y="108" on="0"/>
        <pt x="344" y="108" on="0"/>
        <pt x="447" y="118" on="1"/>
        <pt x="463" y="119" on="0"/>
        <pt x="475" y="104" on="0"/>
        <pt x="473" y="89" on="1"/>
        <pt x="466" y="39" on="0"/>
        <pt x="450" y="1" on="0"/>
        <pt x="427" y="-3" on="1"/>
        <pt x="336" y="-16" on="0"/>
      </contour>
    </TTGlyph>
    <TTGlyph name="C_smcp" xMin="52" yMin="-6" xMax="400" yMax="531">
      <contour>
        <pt x="205" y="-6" on="1"/>
        <pt x="101" y="-6" on="0"/>
        <pt x="70" y="51" on="1"/>
        <pt x="52" y="85" on="0"/>
        <pt x="52" y="197" on="0"/>
        <pt x="61" y="259" on="1"/>
        <pt x="83" y="420" on="0"/>
        <pt x="175" y="531" on="0"/>
        <pt x="280" y="531" on="1"/>
        <pt x="360" y="531" on="0"/>
        <pt x="395" y="504" on="1"/>
        <pt x="400" y="500" on="0"/>
        <pt x="400" y="486" on="0"/>
        <pt x="377" y="439" on="0"/>
        <pt x="360" y="421" on="0"/>
        <pt x="297" y="433" on="0"/>
        <pt x="254" y="433" on="1"/>
        <pt x="224" y="433" on="0"/>
        <pt x="195" y="358" on="0"/>
        <pt x="170" y="180" on="0"/>
        <pt x="170" y="131" on="0"/>
        <pt x="171" y="123" on="1"/>
        <pt x="176" y="92" on="0"/>
        <pt x="212" y="92" on="1"/>
        <pt x="237" y="92" on="0"/>
        <pt x="309" y="99" on="1"/>
        <pt x="325" y="100" on="0"/>
        <pt x="336" y="86" on="0"/>
        <pt x="330" y="36" on="0"/>
        <pt x="316" y="7" on="0"/>
        <pt x="296" y="3" on="1"/>
        <pt x="235" y="-6" on="0"/>
      </contour>
    </TTGlyph>
    <TTGlyph name="Ccedilla" xMin="74" yMin="-286" xMax="570" yMax="768">
      <contour>
        <pt x="370" y="-135" on="1"/>
        <pt x="370" y="-158" on="0"/>
        <pt x="361" y="-186" on="1"/>
        <pt x="328" y="-286" on="0"/>
        <pt x="242" y="-286" on="1"/>
        <pt x="227" y="-286" on="0"/>
        <pt x="209" y="-283" on="1"/>
        <pt x="232" y="-209" on="1"/>
        <pt x="238" y="-210" on="0"/>
        <pt x="243" y="-210" on="1"/>
        <pt x="277" y="-210" on="0"/>
        <pt x="288" y="-173" on="1"/>
        <pt x="291" y="-162" on="0"/>
        <pt x="291" y="-154" on="1"/>
        <pt x="291" y="-127" on="0"/>
        <pt x="259" y="-122" on="1"/>
        <pt x="204" y="-112" on="1"/>
        <pt x="235" y="-12" on="1"/>
        <pt x="123" y="2" on="0"/>
        <pt x="91" y="88" on="1"/>
        <pt x="74" y="134" on="0"/>
        <pt x="74" y="279" on="0"/>
        <pt x="87" y="371" on="1"/>
        <pt x="109" y="531" on="0"/>
        <pt x="182" y="700" on="0"/>
        <pt x="300" y="768" on="0"/>
        <pt x="517" y="768" on="0"/>
        <pt x="563" y="734" on="1"/>
        <pt x="570" y="728" on="0"/>
        <pt x="570" y="710" on="0"/>
        <pt x="542" y="652" on="0"/>
        <pt x="523" y="629" on="0"/>
        <pt x="504" y="629" on="0"/>
        <pt x="499" y="630" on="1"/>
        <pt x="426" y="645" on="0"/>
        <pt x="317" y="645" on="0"/>
        <pt x="267" y="525" on="0"/>
        <pt x="229" y="252" on="0"/>
        <pt x="229" y="149" on="0"/>
        <pt x="261" y="108" on="0"/>
        <pt x="344" y="108" on="0"/>
        <pt x="447" y="118" on="1"/>
        <pt x="463" y="119" on="0"/>
        <pt x="475" y="104" on="0"/>
        <pt x="473" y="89" on="1"/>
        <pt x="466" y="39" on="0"/>
        <pt x="450" y="1" on="0"/>
        <pt x="427" y="-3" on="1"/>
        <pt x="336" y="-16" on="0"/>
        <pt x="292" y="-16" on="1"/>
        <pt x="283" y="-47" on="1"/>
        <pt x="370" y="-64" on="0"/>
      </contour>
    </TTGlyph>
    <TTGlyph name="D" xMin="45" yMin="-16" xMax="603" yMax="768">
      <contour>
        <pt x="150" y="751" on="1"/>
        <pt x="304" y="768" on="0"/>
        <pt x="437" y="768" on="0"/>
        <pt x="479" y="758" on="1"/>
        <pt x="570" y="736" on="0"/>
        <pt x="592" y="654" on="1"/>
        <pt x="603" y="611" on="0"/>
        <pt x="603" y="550" on="1"/>
        <pt x="603" y="484" on="0"/>
        <pt x="588" y="383" on="1"/>
        <pt x="557" y="161" on="0"/>
        <pt x="416" y="-16" on="0"/>
        <pt x="261" y="-16" on="1"/>
        <pt x="224" y="-16" on="0"/>
        <pt x="45" y="0" on="1"/>
      </contour>
      <contour>
        <pt x="408" y="649" on="1"/>
        <pt x="321" y="649" on="0"/>
        <pt x="276" y="642" on="0"/>
        <pt x="273" y="626" on="1"/>
        <pt x="203" y="124" on="1"/>
        <pt x="202" y="114" on="0"/>
        <pt x="228" y="109" on="0"/>
        <pt x="305" y="109" on="0"/>
        <pt x="337" y="113" on="0"/>
        <pt x="369" y="133" on="0"/>
        <pt x="385" y="161" on="0"/>
        <pt x="394" y="194" on="1"/>
        <pt x="405" y="232" on="0"/>
        <pt x="442" y="485" on="0"/>
        <pt x="442" y="551" on="1"/>
        <pt x="442" y="649" on="0"/>
      </contour>
    </TTGlyph>
    <TTGlyph name="D_smcp" xMin="32" yMin="-6" xMax="420" yMax="531">
      <contour>
        <pt x="105" y="521" on="1"/>
        <pt x="208" y="531" on="0"/>
        <pt x="305" y="531" on="0"/>
        <pt x="334" y="524" on="1"/>
        <pt x="399" y="509" on="0"/>
        <pt x="412" y="453" on="1"/>
        <pt x="420" y="424" on="0"/>
        <pt x="420" y="380" on="0"/>
        <pt x="419" y="333" on="0"/>
        <pt x="410" y="267" on="1"/>
        <pt x="389" y="114" on="0"/>
        <pt x="292" y="-6" on="0"/>
        <pt x="184" y="-6" on="1"/>
        <pt x="158" y="-6" on="0"/>
        <pt x="32" y="5" on="1"/>
      </contour>
      <contour>
        <pt x="282" y="436" on="1"/>
        <pt x="203" y="436" on="0"/>
        <pt x="202" y="430" on="1"/>
        <pt x="155" y="95" on="1"/>
        <pt x="155" y="93" on="0"/>
        <pt x="221" y="93" on="0"/>
        <pt x="245" y="100" on="0"/>
        <pt x="266" y="138" on="0"/>
        <pt x="277" y="196" on="0"/>
        <pt x="298" y="341" on="0"/>
        <pt x="298" y="436" on="0"/>
      </contour>
    </TTGlyph>
    <TTGlyph name="E" xMin="47" yMin="0" xMax="544" yMax="752">
      <contour>
        <pt x="505" y="752" on="1"/>
        <pt x="544" y="750" on="0"/>
        <pt x="544" y="725" on="1"/>
        <pt x="544" y="713" on="0"/>
        <pt x="537" y="688" on="1"/>
        <pt x="522" y="632" on="0"/>
        <pt x="485" y="632" on="1"/>
        <pt x="262" y="632" on="1"/>
        <pt x="248" y="455" on="1"/>
        <pt x="441" y="455" on="1"/>
        <pt x="477" y="455" on="0"/>
        <pt x="477" y="428" on="1"/>
        <pt x="477" y="424" on="0"/>
        <pt x="470" y="371" on="0"/>
        <pt x="452" y="334" on="0"/>
        <pt x="427" y="334" on="1"/>
        <pt x="231" y="334" on="1"/>
        <pt x="202" y="121" on="1"/>
        <pt x="433" y="121" on="1"/>
        <pt x="456" y="120" on="0"/>
        <pt x="472" y="103" on="0"/>
        <pt x="470" y="86" on="1"/>
        <pt x="463" y="37" on="0"/>
        <pt x="440" y="0" on="0"/>
        <pt x="413" y="0" on="1"/>
        <pt x="61" y="0" on="1"/>
        <pt x="47" y="16" on="1"/>
        <pt x="150" y="752" on="1"/>
      </contour>
    </TTGlyph>
    <TTGlyph name="E_smcp" xMin="35" yMin="5" xMax="382" yMax="522">
      <contour>
        <pt x="349" y="522" on="1"/>
        <pt x="382" y="520" on="0"/>
        <pt x="382" y="498" on="1"/>
        <pt x="382" y="460" on="0"/>
        <pt x="362" y="438" on="1"/>
        <pt x="351" y="427" on="0"/>
        <pt x="334" y="427" on="1"/>
        <pt x="194" y="427" on="1"/>
        <pt x="185" y="324" on="1"/>
        <pt x="306" y="324" on="1"/>
        <pt x="337" y="324" on="0"/>
        <pt x="337" y="298" on="1"/>
        <pt x="337" y="228" on="0"/>
        <pt x="295" y="228" on="1"/>
        <pt x="172" y="228" on="1"/>
        <pt x="154" y="101" on="1"/>
        <pt x="301" y="101" on="1"/>
        <pt x="321" y="100" on="0"/>
        <pt x="334" y="85" on="0"/>
        <pt x="327" y="33" on="0"/>
        <pt x="308" y="5" on="0"/>
        <pt x="285" y="5" on="1"/>
        <pt x="45" y="5" on="1"/>
        <pt x="35" y="21" on="1"/>
        <pt x="106" y="522" on="1"/>
      </contour>
    </TTGlyph>
    <TTGlyph name="E_smcpacute" xMin="27" yMin="5" xMax="443" yMax="784">
      <contour>
        <pt x="259" y="552" on="1"/>
        <pt x="216" y="573" on="1"/>
        <pt x="223" y="628" on="1"/>
        <pt x="297" y="752" on="1"/>
        <pt x="344" y="784" on="1"/>
        <pt x="443" y="724" on="1"/>
      </contour>
      <contour>
        <pt x="341" y="522" on="1"/>
        <pt x="374" y="520" on="0"/>
        <pt x="374" y="498" on="1"/>
        <pt x="374" y="460" on="0"/>
        <pt x="354" y="438" on="1"/>
        <pt x="343" y="427" on="0"/>
        <pt x="326" y="427" on="1"/>
        <pt x="186" y="427" on="1"/>
        <pt x="177" y="324" on="1"/>
        <pt x="298" y="324" on="1"/>
        <pt x="329" y="324" on="0"/>
        <pt x="329" y="298" on="1"/>
        <pt x="329" y="228" on="0"/>
        <pt x="287" y="228" on="1"/>
        <pt x="164" y="228" on="1"/>
        <pt x="146" y="101" on="1"/>
        <pt x="293" y="101" on="1"/>
        <pt x="313" y="100" on="0"/>
        <pt x="326" y="85" on="0"/>
        <pt x="319" y="33" on="0"/>
        <pt x="300" y="5" on="0"/>
        <pt x="277" y="5" on="1"/>
        <pt x="37" y="5" on="1"/>
        <pt x="27" y="21" on="1"/>
        <pt x="98" y="522" on="1"/>
      </contour>
    </TTGlyph>
    <TTGlyph name="E_smcpcircunflex" xMin="67" yMin="5" xMax="440" yMax="768">
      <contour>
        <pt x="147" y="572" on="1"/>
        <pt x="112" y="604" on="1"/>
        <pt x="133" y="658" on="1"/>
        <pt x="248" y="748" on="1"/>
        <pt x="299" y="768" on="1"/>
        <pt x="346" y="748" on="1"/>
        <pt x="435" y="658" on="1"/>
        <pt x="440" y="604" on="1"/>
        <pt x="397" y="572" on="1"/>
        <pt x="283" y="653" on="1"/>
      </contour>
      <contour>
        <pt x="381" y="522" on="1"/>
        <pt x="414" y="520" on="0"/>
        <pt x="414" y="498" on="1"/>
        <pt x="414" y="460" on="0"/>
        <pt x="394" y="438" on="1"/>
        <pt x="383" y="427" on="0"/>
        <pt x="366" y="427" on="1"/>
        <pt x="226" y="427" on="1"/>
        <pt x="217" y="324" on="1"/>
        <pt x="338" y="324" on="1"/>
        <pt x="369" y="324" on="0"/>
        <pt x="369" y="298" on="1"/>
        <pt x="369" y="228" on="0"/>
        <pt x="327" y="228" on="1"/>
        <pt x="204" y="228" on="1"/>
        <pt x="186" y="101" on="1"/>
        <pt x="333" y="101" on="1"/>
        <pt x="353" y="100" on="0"/>
        <pt x="366" y="85" on="0"/>
        <pt x="359" y="33" on="0"/>
        <pt x="340" y="5" on="0"/>
        <pt x="317" y="5" on="1"/>
        <pt x="77" y="5" on="1"/>
        <pt x="67" y="21" on="1"/>
        <pt x="138" y="522" on="1"/>
      </contour>
    </TTGlyph>
    <TTGlyph name="E_smcpdieresis" xMin="83" yMin="5" xMax="513" yMax="784">
      <contour>
        <pt x="216" y="784" on="1"/>
        <pt x="279" y="784" on="0"/>
        <pt x="279" y="727" on="1"/>
        <pt x="279" y="720" on="0"/>
        <pt x="278" y="712" on="1"/>
        <pt x="268" y="640" on="0"/>
        <pt x="195" y="640" on="1"/>
        <pt x="133" y="640" on="0"/>
        <pt x="133" y="695" on="1"/>
        <pt x="133" y="703" on="0"/>
        <pt x="134" y="712" on="1"/>
        <pt x="143" y="784" on="0"/>
      </contour>
      <contour>
        <pt x="450" y="784" on="1"/>
        <pt x="513" y="784" on="0"/>
        <pt x="513" y="727" on="1"/>
        <pt x="513" y="720" on="0"/>
        <pt x="512" y="712" on="1"/>
        <pt x="502" y="640" on="0"/>
        <pt x="429" y="640" on="1"/>
        <pt x="367" y="640" on="0"/>
        <pt x="367" y="695" on="1"/>
        <pt x="367" y="703" on="0"/>
        <pt x="368" y="712" on="1"/>
        <pt x="377" y="784" on="0"/>
      </contour>
      <contour>
        <pt x="397" y="522" on="1"/>
        <pt x="430" y="520" on="0"/>
        <pt x="430" y="498" on="1"/>
        <pt x="430" y="460" on="0"/>
        <pt x="410" y="438" on="1"/>
        <pt x="399" y="427" on="0"/>
        <pt x="382" y="427" on="1"/>
        <pt x="242" y="427" on="1"/>
        <pt x="233" y="324" on="1"/>
        <pt x="354" y="324" on="1"/>
        <pt x="385" y="324" on="0"/>
        <pt x="385" y="298" on="1"/>
        <pt x="385" y="228" on="0"/>
        <pt x="343" y="228" on="1"/>
        <pt x="220" y="228" on="1"/>
        <pt x="202" y="101" on="1"/>
        <pt x="349" y="101" on="1"/>
        <pt x="369" y="100" on="0"/>
        <pt x="382" y="85" on="0"/>
        <pt x="375" y="33" on="0"/>
        <pt x="356" y="5" on="0"/>
        <pt x="333" y="5" on="1"/>
        <pt x="93" y="5" on="1"/>
        <pt x="83" y="21" on="1"/>
        <pt x="154" y="522" on="1"/>
      </contour>
    </TTGlyph>
    <TTGlyph name="E_smcpgrave" xMin="51" yMin="5" xMax="398" yMax="784">
      <contour>
        <pt x="321" y="573" on="1"/>
        <pt x="272" y="552" on="1"/>
        <pt x="136" y="724" on="1"/>
        <pt x="253" y="784" on="1"/>
        <pt x="290" y="752" on="1"/>
        <pt x="330" y="628" on="1"/>
      </contour>
      <contour>
        <pt x="365" y="522" on="1"/>
        <pt x="398" y="520" on="0"/>
        <pt x="398" y="498" on="1"/>
        <pt x="398" y="460" on="0"/>
        <pt x="378" y="438" on="1"/>
        <pt x="367" y="427" on="0"/>
        <pt x="350" y="427" on="1"/>
        <pt x="210" y="427" on="1"/>
        <pt x="201" y="324" on="1"/>
        <pt x="322" y="324" on="1"/>
        <pt x="353" y="324" on="0"/>
        <pt x="353" y="298" on="1"/>
        <pt x="353" y="228" on="0"/>
        <pt x="311" y="228" on="1"/>
        <pt x="188" y="228" on="1"/>
        <pt x="170" y="101" on="1"/>
        <pt x="317" y="101" on="1"/>
        <pt x="337" y="100" on="0"/>
        <pt x="350" y="85" on="0"/>
        <pt x="343" y="33" on="0"/>
        <pt x="324" y="5" on="0"/>
        <pt x="301" y="5" on="1"/>
        <pt x="61" y="5" on="1"/>
        <pt x="51" y="21" on="1"/>
        <pt x="122" y="522" on="1"/>
      </contour>
    </TTGlyph>
    <TTGlyph name="Eacute" xMin="31" yMin="0" xMax="528" yMax="1024">
      <contour>
        <pt x="341" y="792" on="1"/>
        <pt x="298" y="813" on="1"/>
        <pt x="304" y="868" on="1"/>
        <pt x="379" y="992" on="1"/>
        <pt x="425" y="1024" on="1"/>
        <pt x="525" y="964" on="1"/>
      </contour>
      <contour>
        <pt x="489" y="752" on="1"/>
        <pt x="528" y="750" on="0"/>
        <pt x="528" y="725" on="1"/>
        <pt x="528" y="713" on="0"/>
        <pt x="521" y="688" on="1"/>
        <pt x="506" y="632" on="0"/>
        <pt x="469" y="632" on="1"/>
        <pt x="246" y="632" on="1"/>
        <pt x="232" y="455" on="1"/>
        <pt x="425" y="455" on="1"/>
        <pt x="461" y="455" on="0"/>
        <pt x="461" y="428" on="1"/>
        <pt x="461" y="424" on="0"/>
        <pt x="454" y="371" on="0"/>
        <pt x="436" y="334" on="0"/>
        <pt x="411" y="334" on="1"/>
        <pt x="215" y="334" on="1"/>
        <pt x="186" y="121" on="1"/>
        <pt x="417" y="121" on="1"/>
        <pt x="440" y="120" on="0"/>
        <pt x="456" y="103" on="0"/>
        <pt x="454" y="86" on="1"/>
        <pt x="447" y="37" on="0"/>
        <pt x="424" y="0" on="0"/>
        <pt x="397" y="0" on="1"/>
        <pt x="45" y="0" on="1"/>
        <pt x="31" y="16" on="1"/>
        <pt x="134" y="752" on="1"/>
      </contour>
    </TTGlyph>
    <TTGlyph name="Ecircumflex" xMin="40" yMin="0" xMax="537" yMax="1024">
      <contour>
        <pt x="226" y="828" on="1"/>
        <pt x="191" y="860" on="1"/>
        <pt x="212" y="914" on="1"/>
        <pt x="327" y="1004" on="1"/>
        <pt x="378" y="1024" on="1"/>
        <pt x="425" y="1004" on="1"/>
        <pt x="514" y="914" on="1"/>
        <pt x="519" y="860" on="1"/>
        <pt x="476" y="828" on="1"/>
        <pt x="362" y="909" on="1"/>
      </contour>
      <contour>
        <pt x="498" y="752" on="1"/>
        <pt x="537" y="750" on="0"/>
        <pt x="537" y="725" on="1"/>
        <pt x="537" y="713" on="0"/>
        <pt x="530" y="688" on="1"/>
        <pt x="515" y="632" on="0"/>
        <pt x="478" y="632" on="1"/>
        <pt x="255" y="632" on="1"/>
        <pt x="241" y="455" on="1"/>
        <pt x="434" y="455" on="1"/>
        <pt x="470" y="455" on="0"/>
        <pt x="470" y="428" on="1"/>
        <pt x="470" y="424" on="0"/>
        <pt x="463" y="371" on="0"/>
        <pt x="445" y="334" on="0"/>
        <pt x="420" y="334" on="1"/>
        <pt x="224" y="334" on="1"/>
        <pt x="195" y="121" on="1"/>
        <pt x="426" y="121" on="1"/>
        <pt x="449" y="120" on="0"/>
        <pt x="465" y="103" on="0"/>
        <pt x="463" y="86" on="1"/>
        <pt x="456" y="37" on="0"/>
        <pt x="433" y="0" on="0"/>
        <pt x="406" y="0" on="1"/>
        <pt x="54" y="0" on="1"/>
        <pt x="40" y="16" on="1"/>
        <pt x="143" y="752" on="1"/>
      </contour>
    </TTGlyph>
    <TTGlyph name="Edieresis" xMin="43" yMin="0" xMax="560" yMax="1024">
      <contour>
        <pt x="263" y="1024" on="1"/>
        <pt x="326" y="1024" on="0"/>
        <pt x="326" y="968" on="1"/>
        <pt x="326" y="961" on="0"/>
        <pt x="325" y="952" on="1"/>
        <pt x="315" y="880" on="0"/>
        <pt x="243" y="880" on="1"/>
        <pt x="180" y="880" on="0"/>
        <pt x="180" y="936" on="1"/>
        <pt x="180" y="943" on="0"/>
        <pt x="181" y="952" on="1"/>
        <pt x="191" y="1024" on="0"/>
      </contour>
      <contour>
        <pt x="497" y="1024" on="1"/>
        <pt x="560" y="1024" on="0"/>
        <pt x="560" y="968" on="1"/>
        <pt x="560" y="961" on="0"/>
        <pt x="559" y="952" on="1"/>
        <pt x="549" y="880" on="0"/>
        <pt x="477" y="880" on="1"/>
        <pt x="414" y="880" on="0"/>
        <pt x="414" y="936" on="1"/>
        <pt x="414" y="943" on="0"/>
        <pt x="415" y="952" on="1"/>
        <pt x="425" y="1024" on="0"/>
      </contour>
      <contour>
        <pt x="501" y="752" on="1"/>
        <pt x="540" y="750" on="0"/>
        <pt x="540" y="725" on="1"/>
        <pt x="540" y="713" on="0"/>
        <pt x="533" y="688" on="1"/>
        <pt x="518" y="632" on="0"/>
        <pt x="481" y="632" on="1"/>
        <pt x="258" y="632" on="1"/>
        <pt x="244" y="455" on="1"/>
        <pt x="437" y="455" on="1"/>
        <pt x="473" y="455" on="0"/>
        <pt x="473" y="428" on="1"/>
        <pt x="473" y="424" on="0"/>
        <pt x="466" y="371" on="0"/>
        <pt x="448" y="334" on="0"/>
        <pt x="423" y="334" on="1"/>
        <pt x="227" y="334" on="1"/>
        <pt x="198" y="121" on="1"/>
        <pt x="429" y="121" on="1"/>
        <pt x="452" y="120" on="0"/>
        <pt x="468" y="103" on="0"/>
        <pt x="466" y="86" on="1"/>
        <pt x="459" y="37" on="0"/>
        <pt x="436" y="0" on="0"/>
        <pt x="409" y="0" on="1"/>
        <pt x="57" y="0" on="1"/>
        <pt x="43" y="16" on="1"/>
        <pt x="146" y="752" on="1"/>
      </contour>
    </TTGlyph>
    <TTGlyph name="Egrave" xMin="47" yMin="0" xMax="544" yMax="1024">
      <contour>
        <pt x="385" y="813" on="1"/>
        <pt x="336" y="792" on="1"/>
        <pt x="200" y="964" on="1"/>
        <pt x="316" y="1024" on="1"/>
        <pt x="354" y="992" on="1"/>
        <pt x="393" y="868" on="1"/>
      </contour>
      <contour>
        <pt x="505" y="752" on="1"/>
        <pt x="544" y="750" on="0"/>
        <pt x="544" y="725" on="1"/>
        <pt x="544" y="713" on="0"/>
        <pt x="537" y="688" on="1"/>
        <pt x="522" y="632" on="0"/>
        <pt x="485" y="632" on="1"/>
        <pt x="262" y="632" on="1"/>
        <pt x="248" y="455" on="1"/>
        <pt x="441" y="455" on="1"/>
        <pt x="477" y="455" on="0"/>
        <pt x="477" y="428" on="1"/>
        <pt x="477" y="424" on="0"/>
        <pt x="470" y="371" on="0"/>
        <pt x="452" y="334" on="0"/>
        <pt x="427" y="334" on="1"/>
        <pt x="231" y="334" on="1"/>
        <pt x="202" y="121" on="1"/>
        <pt x="433" y="121" on="1"/>
        <pt x="456" y="120" on="0"/>
        <pt x="472" y="103" on="0"/>
        <pt x="470" y="86" on="1"/>
        <pt x="463" y="37" on="0"/>
        <pt x="440" y="0" on="0"/>
        <pt x="413" y="0" on="1"/>
        <pt x="61" y="0" on="1"/>
        <pt x="47" y="16" on="1"/>
        <pt x="150" y="752" on="1"/>
      </contour>
    </TTGlyph>
    <TTGlyph name="Eth" xMin="45" yMin="-16" xMax="603" yMax="768">
      <contour>
        <pt x="150" y="751" on="1"/>
        <pt x="304" y="768" on="0"/>
        <pt x="437" y="768" on="0"/>
        <pt x="479" y="758" on="1"/>
        <pt x="570" y="736" on="0"/>
        <pt x="592" y="654" on="1"/>
        <pt x="603" y="611" on="0"/>
        <pt x="603" y="550" on="1"/>
        <pt x="603" y="484" on="0"/>
        <pt x="588" y="383" on="1"/>
        <pt x="557" y="161" on="0"/>
        <pt x="416" y="-16" on="0"/>
        <pt x="261" y="-16" on="1"/>
        <pt x="224" y="-16" on="0"/>
        <pt x="45" y="0" on="1"/>
      </contour>
      <contour>
        <pt x="369" y="428" on="1"/>
        <pt x="369" y="424" on="0"/>
        <pt x="362" y="371" on="0"/>
        <pt x="344" y="334" on="0"/>
        <pt x="319" y="334" on="1"/>
        <pt x="232" y="334" on="1"/>
        <pt x="203" y="124" on="1"/>
        <pt x="202" y="114" on="0"/>
        <pt x="228" y="109" on="0"/>
        <pt x="305" y="109" on="0"/>
        <pt x="337" y="113" on="0"/>
        <pt x="369" y="133" on="0"/>
        <pt x="385" y="161" on="0"/>
        <pt x="394" y="194" on="1"/>
        <pt x="405" y="232" on="0"/>
        <pt x="442" y="485" on="0"/>
        <pt x="442" y="551" on="1"/>
        <pt x="442" y="649" on="0"/>
        <pt x="408" y="649" on="1"/>
        <pt x="321" y="649" on="0"/>
        <pt x="276" y="642" on="0"/>
        <pt x="273" y="626" on="1"/>
        <pt x="249" y="455" on="1"/>
        <pt x="337" y="455" on="1"/>
        <pt x="369" y="453" on="0"/>
      </contour>
    </TTGlyph>
    <TTGlyph name="Euro" xMin="52" yMin="-16" xMax="622" yMax="768">
      <contour>
        <pt x="204" y="667" on="0"/>
        <pt x="333" y="768" on="0"/>
        <pt x="569" y="768" on="0"/>
        <pt x="615" y="734" on="1"/>
        <pt x="622" y="728" on="0"/>
        <pt x="622" y="710" on="0"/>
        <pt x="594" y="652" on="0"/>
        <pt x="575" y="629" on="0"/>
        <pt x="556" y="629" on="0"/>
        <pt x="551" y="630" on="1"/>
        <pt x="478" y="645" on="0"/>
        <pt x="420" y="645" on="1"/>
        <pt x="386" y="645" on="0"/>
        <pt x="342" y="592" on="0"/>
        <pt x="328" y="534" on="1"/>
        <pt x="510" y="534" on="1"/>
        <pt x="523" y="518" on="1"/>
        <pt x="508" y="410" on="1"/>
        <pt x="96" y="410" on="1"/>
        <pt x="82" y="426" on="1"/>
        <pt x="98" y="534" on="1"/>
        <pt x="170" y="534" on="1"/>
      </contour>
      <contour>
        <pt x="281" y="196" on="1"/>
        <pt x="281" y="144" on="0"/>
        <pt x="314" y="108" on="0"/>
        <pt x="396" y="108" on="0"/>
        <pt x="499" y="118" on="1"/>
        <pt x="526" y="120" on="0"/>
        <pt x="526" y="96" on="1"/>
        <pt x="526" y="93" on="0"/>
        <pt x="518" y="39" on="0"/>
        <pt x="502" y="1" on="0"/>
        <pt x="479" y="-3" on="1"/>
        <pt x="388" y="-16" on="0"/>
        <pt x="345" y="-16" on="1"/>
        <pt x="229" y="-16" on="0"/>
        <pt x="127" y="80" on="0"/>
        <pt x="125" y="196" on="1"/>
        <pt x="66" y="196" on="1"/>
        <pt x="52" y="212" on="1"/>
        <pt x="67" y="320" on="1"/>
        <pt x="479" y="320" on="1"/>
        <pt x="493" y="304" on="1"/>
        <pt x="478" y="196" on="1"/>
      </contour>
    </TTGlyph>
    <TTGlyph name="F" xMin="43" yMin="-16" xMax="545" yMax="752">
      <contour>
        <pt x="495" y="752" on="1"/>
        <pt x="545" y="750" on="0"/>
        <pt x="545" y="731" on="1"/>
        <pt x="545" y="724" on="0"/>
        <pt x="544" y="721" on="1"/>
        <pt x="535" y="669" on="0"/>
        <pt x="509" y="632" on="0"/>
        <pt x="473" y="632" on="1"/>
        <pt x="261" y="632" on="1"/>
        <pt x="246" y="455" on="1"/>
        <pt x="455" y="455" on="1"/>
        <pt x="496" y="455" on="0"/>
        <pt x="492" y="423" on="1"/>
        <pt x="485" y="371" on="0"/>
        <pt x="461" y="334" on="0"/>
        <pt x="432" y="334" on="1"/>
        <pt x="231" y="334" on="1"/>
        <pt x="185" y="0" on="1"/>
        <pt x="184" y="-6" on="0"/>
        <pt x="182" y="-8" on="1"/>
        <pt x="176" y="-16" on="0"/>
        <pt x="122" y="-16" on="0"/>
        <pt x="99" y="-14" on="1"/>
        <pt x="43" y="-9" on="0"/>
        <pt x="45" y="0" on="1"/>
        <pt x="150" y="752" on="1"/>
      </contour>
    </TTGlyph>
    <TTGlyph name="F_i" xMin="43" yMin="-16" xMax="575" yMax="752">
      <contour>
        <pt x="180" y="-11" on="0"/>
        <pt x="161" y="-16" on="0"/>
        <pt x="122" y="-16" on="0"/>
        <pt x="99" y="-14" on="1"/>
        <pt x="43" y="-9" on="0"/>
        <pt x="45" y="0" on="1"/>
        <pt x="150" y="752" on="1"/>
        <pt x="525" y="752" on="1"/>
        <pt x="556" y="751" on="0"/>
        <pt x="575" y="738" on="0"/>
        <pt x="575" y="724" on="0"/>
        <pt x="574" y="721" on="1"/>
        <pt x="565" y="669" on="0"/>
        <pt x="539" y="632" on="0"/>
        <pt x="503" y="632" on="1"/>
        <pt x="261" y="632" on="1"/>
        <pt x="246" y="455" on="1"/>
        <pt x="485" y="455" on="1"/>
        <pt x="526" y="455" on="0"/>
        <pt x="522" y="423" on="1"/>
        <pt x="463" y="0" on="1"/>
        <pt x="462" y="-6" on="0"/>
        <pt x="460" y="-8" on="1"/>
        <pt x="454" y="-16" on="0"/>
        <pt x="400" y="-16" on="0"/>
        <pt x="378" y="-14" on="1"/>
        <pt x="325" y="-9" on="0"/>
        <pt x="327" y="0" on="1"/>
        <pt x="373" y="334" on="1"/>
        <pt x="231" y="334" on="1"/>
        <pt x="185" y="0" on="1"/>
        <pt x="184" y="-6" on="0"/>
      </contour>
    </TTGlyph>
    <TTGlyph name="F_iacute" xMin="43" yMin="-16" xMax="660" yMax="752">
      <contour>
        <pt x="427" y="455" on="1"/>
        <pt x="463" y="455" on="0"/>
        <pt x="521" y="439" on="0"/>
        <pt x="519" y="424" on="1"/>
        <pt x="460" y="0" on="1"/>
        <pt x="459" y="-6" on="0"/>
        <pt x="457" y="-8" on="1"/>
        <pt x="451" y="-16" on="0"/>
        <pt x="397" y="-16" on="0"/>
        <pt x="375" y="-14" on="1"/>
        <pt x="322" y="-9" on="0"/>
        <pt x="324" y="0" on="1"/>
        <pt x="370" y="334" on="1"/>
        <pt x="231" y="334" on="1"/>
        <pt x="185" y="0" on="1"/>
        <pt x="184" y="-6" on="0"/>
        <pt x="182" y="-8" on="1"/>
        <pt x="176" y="-16" on="0"/>
        <pt x="122" y="-16" on="0"/>
        <pt x="99" y="-14" on="1"/>
        <pt x="43" y="-9" on="0"/>
        <pt x="45" y="0" on="1"/>
        <pt x="150" y="752" on="1"/>
        <pt x="533" y="752" on="1"/>
        <pt x="552" y="751" on="0"/>
        <pt x="597" y="731" on="0"/>
        <pt x="660" y="692" on="1"/>
        <pt x="494" y="533" on="1"/>
        <pt x="451" y="554" on="1"/>
        <pt x="458" y="609" on="1"/>
        <pt x="471" y="632" on="1"/>
        <pt x="261" y="632" on="1"/>
        <pt x="246" y="455" on="1"/>
      </contour>
    </TTGlyph>
    <TTGlyph name="F_igrave" xMin="43" yMin="-16" xMax="523" yMax="752">
      <contour>
        <pt x="455" y="-11" on="0"/>
        <pt x="436" y="-16" on="0"/>
        <pt x="397" y="-16" on="0"/>
        <pt x="375" y="-14" on="1"/>
        <pt x="322" y="-9" on="0"/>
        <pt x="324" y="0" on="1"/>
        <pt x="370" y="334" on="1"/>
        <pt x="231" y="334" on="1"/>
        <pt x="185" y="0" on="1"/>
        <pt x="184" y="-6" on="0"/>
        <pt x="182" y="-8" on="1"/>
        <pt x="176" y="-16" on="0"/>
        <pt x="122" y="-16" on="0"/>
        <pt x="99" y="-14" on="1"/>
        <pt x="43" y="-9" on="0"/>
        <pt x="45" y="0" on="1"/>
        <pt x="150" y="752" on="1"/>
        <pt x="397" y="752" on="1"/>
        <pt x="425" y="751" on="0"/>
        <pt x="457" y="705" on="0"/>
        <pt x="490" y="609" on="1"/>
        <pt x="481" y="554" on="1"/>
        <pt x="432" y="533" on="1"/>
        <pt x="353" y="632" on="1"/>
        <pt x="261" y="632" on="1"/>
        <pt x="246" y="455" on="1"/>
        <pt x="439" y="455" on="1"/>
        <pt x="523" y="453" on="0"/>
        <pt x="519" y="423" on="1"/>
        <pt x="460" y="0" on="1"/>
        <pt x="459" y="-6" on="0"/>
      </contour>
    </TTGlyph>
    <TTGlyph name="F_smcp" xMin="33" yMin="-6" xMax="382" yMax="522">
      <contour>
        <pt x="342" y="522" on="1"/>
        <pt x="382" y="520" on="0"/>
        <pt x="382" y="503" on="1"/>
        <pt x="382" y="461" on="0"/>
        <pt x="366" y="440" on="1"/>
        <pt x="356" y="427" on="0"/>
        <pt x="326" y="427" on="1"/>
        <pt x="194" y="427" on="1"/>
        <pt x="183" y="324" on="1"/>
        <pt x="316" y="324" on="1"/>
        <pt x="351" y="324" on="0"/>
        <pt x="347" y="294" on="1"/>
        <pt x="342" y="255" on="0"/>
        <pt x="323" y="228" on="0"/>
        <pt x="298" y="228" on="1"/>
        <pt x="172" y="228" on="1"/>
        <pt x="141" y="13" on="1"/>
        <pt x="141" y="-6" on="0"/>
        <pt x="81" y="-6" on="0"/>
        <pt x="33" y="6" on="0"/>
        <pt x="34" y="13" on="1"/>
        <pt x="106" y="522" on="1"/>
      </contour>
    </TTGlyph>
    <TTGlyph name="G" xMin="75" yMin="-16" xMax="571" yMax="768">
      <contour>
        <pt x="295" y="-16" on="1"/>
        <pt x="146" y="-16" on="0"/>
        <pt x="102" y="68" on="1"/>
        <pt x="75" y="118" on="0"/>
        <pt x="75" y="281" on="0"/>
        <pt x="88" y="371" on="1"/>
        <pt x="110" y="531" on="0"/>
        <pt x="183" y="700" on="0"/>
        <pt x="302" y="768" on="0"/>
        <pt x="502" y="768" on="0"/>
        <pt x="553" y="741" on="1"/>
        <pt x="571" y="730" on="0"/>
        <pt x="571" y="707" on="0"/>
        <pt x="567" y="699" on="1"/>
        <pt x="543" y="649" on="0"/>
        <pt x="523" y="629" on="0"/>
        <pt x="502" y="629" on="0"/>
        <pt x="414" y="645" on="0"/>
        <pt x="370" y="645" on="1"/>
        <pt x="315" y="645" on="0"/>
        <pt x="270" y="532" on="0"/>
        <pt x="254" y="416" on="1"/>
        <pt x="231" y="254" on="0"/>
        <pt x="231" y="192" on="1"/>
        <pt x="231" y="188" on="0"/>
        <pt x="232" y="151" on="0"/>
        <pt x="241" y="136" on="1"/>
        <pt x="258" y="108" on="0"/>
        <pt x="304" y="108" on="1"/>
        <pt x="386" y="113" on="1"/>
        <pt x="417" y="331" on="1"/>
        <pt x="421" y="351" on="0"/>
        <pt x="448" y="364" on="0"/>
        <pt x="512" y="365" on="0"/>
        <pt x="541" y="348" on="0"/>
        <pt x="540" y="322" on="1"/>
        <pt x="529" y="126" on="1"/>
        <pt x="512" y="0" on="1"/>
        <pt x="382" y="-16" on="0"/>
      </contour>
    </TTGlyph>
    <TTGlyph name="G_smcp" xMin="54" yMin="-6" xMax="400" yMax="531">
      <contour>
        <pt x="84" y="420" on="0"/>
        <pt x="176" y="531" on="0"/>
        <pt x="400" y="531" on="0"/>
        <pt x="400" y="492" on="1"/>
        <pt x="400" y="485" on="0"/>
        <pt x="396" y="476" on="1"/>
        <pt x="378" y="440" on="0"/>
        <pt x="361" y="424" on="0"/>
        <pt x="344" y="424" on="0"/>
        <pt x="289" y="433" on="0"/>
        <pt x="223" y="433" on="0"/>
        <pt x="197" y="361" on="0"/>
        <pt x="172" y="180" on="0"/>
        <pt x="172" y="131" on="0"/>
        <pt x="173" y="123" on="1"/>
        <pt x="178" y="92" on="0"/>
        <pt x="214" y="92" on="1"/>
        <pt x="260" y="96" on="1"/>
        <pt x="279" y="234" on="1"/>
        <pt x="285" y="262" on="0"/>
        <pt x="331" y="263" on="1"/>
        <pt x="356" y="263" on="0"/>
        <pt x="379" y="249" on="0"/>
        <pt x="378" y="228" on="1"/>
        <pt x="370" y="96" on="1"/>
        <pt x="357" y="5" on="1"/>
        <pt x="269" y="-6" on="0"/>
        <pt x="207" y="-6" on="1"/>
        <pt x="103" y="-6" on="0"/>
        <pt x="72" y="51" on="1"/>
        <pt x="54" y="85" on="0"/>
        <pt x="54" y="198" on="0"/>
        <pt x="62" y="259" on="1"/>
      </contour>
    </TTGlyph>
    <TTGlyph name="H" xMin="42" yMin="-16" xMax="572" yMax="768">
      <contour>
        <pt x="504" y="768" on="1"/>
        <pt x="572" y="768" on="0"/>
        <pt x="572" y="737" on="1"/>
        <pt x="572" y="734" on="0"/>
        <pt x="572" y="731" on="1"/>
        <pt x="549" y="431" on="1"/>
        <pt x="491" y="21" on="1"/>
        <pt x="488" y="-3" on="0"/>
        <pt x="474" y="-16" on="0"/>
        <pt x="423" y="-16" on="0"/>
        <pt x="381" y="-11" on="0"/>
        <pt x="348" y="7" on="0"/>
        <pt x="350" y="20" on="1"/>
        <pt x="391" y="310" on="1"/>
        <pt x="227" y="310" on="1"/>
        <pt x="187" y="21" on="1"/>
        <pt x="184" y="-3" on="0"/>
        <pt x="170" y="-16" on="0"/>
        <pt x="142" y="-16" on="1"/>
        <pt x="42" y="-16" on="0"/>
        <pt x="48" y="22" on="1"/>
        <pt x="148" y="733" on="1"/>
        <pt x="151" y="755" on="0"/>
        <pt x="171" y="768" on="0"/>
        <pt x="201" y="768" on="1"/>
        <pt x="274" y="768" on="0"/>
        <pt x="270" y="733" on="1"/>
        <pt x="244" y="430" on="1"/>
        <pt x="408" y="430" on="1"/>
        <pt x="451" y="734" on="1"/>
        <pt x="454" y="755" on="0"/>
        <pt x="474" y="768" on="0"/>
      </contour>
    </TTGlyph>
    <TTGlyph name="H_smcp" xMin="34" yMin="-6" xMax="404" yMax="531">
      <contour>
        <pt x="348" y="531" on="1"/>
        <pt x="404" y="531" on="0"/>
        <pt x="402" y="500" on="1"/>
        <pt x="385" y="300" on="1"/>
        <pt x="346" y="27" on="1"/>
        <pt x="344" y="6" on="0"/>
        <pt x="332" y="-6" on="0"/>
        <pt x="279" y="-6" on="0"/>
        <pt x="235" y="9" on="0"/>
        <pt x="237" y="26" on="1"/>
        <pt x="263" y="212" on="1"/>
        <pt x="170" y="212" on="1"/>
        <pt x="145" y="27" on="1"/>
        <pt x="143" y="6" on="0"/>
        <pt x="131" y="-6" on="0"/>
        <pt x="76" y="-6" on="0"/>
        <pt x="34" y="10" on="0"/>
        <pt x="36" y="28" on="1"/>
        <pt x="103" y="501" on="1"/>
        <pt x="106" y="520" on="0"/>
        <pt x="122" y="531" on="0"/>
        <pt x="173" y="531" on="0"/>
        <pt x="202" y="519" on="0"/>
        <pt x="200" y="501" on="1"/>
        <pt x="184" y="307" on="1"/>
        <pt x="277" y="307" on="1"/>
        <pt x="304" y="502" on="1"/>
        <pt x="307" y="521" on="0"/>
        <pt x="323" y="531" on="0"/>
      </contour>
    </TTGlyph>
    <TTGlyph name="I" xMin="37" yMin="0" xMax="386" yMax="752">
      <contour>
        <pt x="126" y="668" on="1"/>
        <pt x="126" y="752" on="0"/>
        <pt x="169" y="752" on="1"/>
        <pt x="346" y="752" on="1"/>
        <pt x="386" y="752" on="0"/>
        <pt x="386" y="726" on="1"/>
        <pt x="386" y="724" on="0"/>
        <pt x="386" y="721" on="1"/>
        <pt x="373" y="632" on="0"/>
        <pt x="338" y="632" on="1"/>
        <pt x="313" y="632" on="1"/>
        <pt x="295" y="432" on="1"/>
        <pt x="253" y="121" on="1"/>
        <pt x="283" y="121" on="1"/>
        <pt x="314" y="120" on="0"/>
        <pt x="314" y="96" on="1"/>
        <pt x="314" y="78" on="0"/>
        <pt x="306" y="54" on="1"/>
        <pt x="288" y="0" on="0"/>
        <pt x="252" y="0" on="1"/>
        <pt x="63" y="0" on="1"/>
        <pt x="45" y="1" on="0"/>
        <pt x="37" y="20" on="0"/>
        <pt x="37" y="43" on="0"/>
        <pt x="40" y="66" on="1"/>
        <pt x="45" y="121" on="0"/>
        <pt x="76" y="121" on="1"/>
        <pt x="112" y="121" on="1"/>
        <pt x="183" y="632" on="1"/>
        <pt x="153" y="632" on="1"/>
        <pt x="134" y="633" on="0"/>
        <pt x="126" y="652" on="0"/>
      </contour>
    </TTGlyph>
    <TTGlyph name="I_smcp" xMin="27" yMin="5" xMax="275" yMax="522">
      <contour>
        <pt x="243" y="522" on="1"/>
        <pt x="275" y="522" on="0"/>
        <pt x="275" y="499" on="1"/>
        <pt x="275" y="496" on="0"/>
        <pt x="275" y="493" on="1"/>
        <pt x="264" y="427" on="0"/>
        <pt x="236" y="427" on="1"/>
        <pt x="227" y="427" on="1"/>
        <pt x="188" y="101" on="1"/>
        <pt x="201" y="101" on="1"/>
        <pt x="227" y="98" on="0"/>
        <pt x="227" y="78" on="1"/>
        <pt x="227" y="75" on="0"/>
        <pt x="226" y="71" on="1"/>
        <pt x="215" y="5" on="0"/>
        <pt x="177" y="5" on="1"/>
        <pt x="51" y="5" on="1"/>
        <pt x="27" y="5" on="0"/>
        <pt x="27" y="37" on="1"/>
        <pt x="27" y="43" on="0"/>
        <pt x="28" y="51" on="1"/>
        <pt x="33" y="101" on="0"/>
        <pt x="62" y="101" on="1"/>
        <pt x="79" y="101" on="1"/>
        <pt x="125" y="427" on="1"/>
        <pt x="112" y="427" on="1"/>
        <pt x="94" y="427" on="0"/>
        <pt x="86" y="442" on="0"/>
        <pt x="86" y="454" on="1"/>
        <pt x="86" y="522" on="0"/>
        <pt x="125" y="522" on="1"/>
      </contour>
    </TTGlyph>
    <TTGlyph name="I_smcpacute" xMin="27" yMin="5" xMax="386" yMax="784">
      <contour>
        <pt x="202" y="552" on="1"/>
        <pt x="159" y="573" on="1"/>
        <pt x="166" y="628" on="1"/>
        <pt x="240" y="752" on="1"/>
        <pt x="287" y="784" on="1"/>
        <pt x="386" y="724" on="1"/>
      </contour>
      <contour>
        <pt x="243" y="522" on="1"/>
        <pt x="275" y="522" on="0"/>
        <pt x="275" y="499" on="1"/>
        <pt x="275" y="496" on="0"/>
        <pt x="275" y="493" on="1"/>
        <pt x="264" y="427" on="0"/>
        <pt x="236" y="427" on="1"/>
        <pt x="227" y="427" on="1"/>
        <pt x="188" y="101" on="1"/>
        <pt x="201" y="101" on="1"/>
        <pt x="227" y="98" on="0"/>
        <pt x="227" y="78" on="1"/>
        <pt x="227" y="75" on="0"/>
        <pt x="226" y="71" on="1"/>
        <pt x="215" y="5" on="0"/>
        <pt x="177" y="5" on="1"/>
        <pt x="51" y="5" on="1"/>
        <pt x="27" y="5" on="0"/>
        <pt x="27" y="37" on="1"/>
        <pt x="27" y="43" on="0"/>
        <pt x="28" y="51" on="1"/>
        <pt x="33" y="101" on="0"/>
        <pt x="62" y="101" on="1"/>
        <pt x="79" y="101" on="1"/>
        <pt x="125" y="427" on="1"/>
        <pt x="112" y="427" on="1"/>
        <pt x="94" y="427" on="0"/>
        <pt x="86" y="442" on="0"/>
        <pt x="86" y="454" on="1"/>
        <pt x="86" y="522" on="0"/>
        <pt x="125" y="522" on="1"/>
      </contour>
    </TTGlyph>
    <TTGlyph name="I_smcpcircunflex" xMin="99" yMin="5" xMax="433" yMax="784">
      <contour>
        <pt x="139" y="588" on="1"/>
        <pt x="105" y="620" on="1"/>
        <pt x="125" y="674" on="1"/>
        <pt x="240" y="764" on="1"/>
        <pt x="292" y="784" on="1"/>
        <pt x="338" y="764" on="1"/>
        <pt x="427" y="674" on="1"/>
        <pt x="433" y="620" on="1"/>
        <pt x="389" y="588" on="1"/>
        <pt x="276" y="669" on="1"/>
      </contour>
      <contour>
        <pt x="315" y="522" on="1"/>
        <pt x="347" y="522" on="0"/>
        <pt x="347" y="499" on="1"/>
        <pt x="347" y="496" on="0"/>
        <pt x="347" y="493" on="1"/>
        <pt x="336" y="427" on="0"/>
        <pt x="308" y="427" on="1"/>
        <pt x="299" y="427" on="1"/>
        <pt x="260" y="101" on="1"/>
        <pt x="273" y="101" on="1"/>
        <pt x="299" y="98" on="0"/>
        <pt x="299" y="78" on="1"/>
        <pt x="299" y="75" on="0"/>
        <pt x="298" y="71" on="1"/>
        <pt x="287" y="5" on="0"/>
        <pt x="249" y="5" on="1"/>
        <pt x="123" y="5" on="1"/>
        <pt x="99" y="5" on="0"/>
        <pt x="99" y="37" on="1"/>
        <pt x="99" y="43" on="0"/>
        <pt x="100" y="51" on="1"/>
        <pt x="105" y="101" on="0"/>
        <pt x="134" y="101" on="1"/>
        <pt x="151" y="101" on="1"/>
        <pt x="197" y="427" on="1"/>
        <pt x="184" y="427" on="1"/>
        <pt x="166" y="427" on="0"/>
        <pt x="158" y="442" on="0"/>
        <pt x="158" y="454" on="1"/>
        <pt x="158" y="522" on="0"/>
        <pt x="197" y="522" on="1"/>
      </contour>
    </TTGlyph>
    <TTGlyph name="I_smcpdieresis" xMin="78" yMin="5" xMax="461" yMax="784">
      <contour>
        <pt x="164" y="784" on="1"/>
        <pt x="227" y="784" on="0"/>
        <pt x="227" y="727" on="1"/>
        <pt x="227" y="720" on="0"/>
        <pt x="226" y="712" on="1"/>
        <pt x="216" y="640" on="0"/>
        <pt x="143" y="640" on="1"/>
        <pt x="81" y="640" on="0"/>
        <pt x="81" y="695" on="1"/>
        <pt x="81" y="703" on="0"/>
        <pt x="82" y="712" on="1"/>
        <pt x="91" y="784" on="0"/>
      </contour>
      <contour>
        <pt x="398" y="784" on="1"/>
        <pt x="461" y="784" on="0"/>
        <pt x="461" y="727" on="1"/>
        <pt x="461" y="720" on="0"/>
        <pt x="460" y="712" on="1"/>
        <pt x="450" y="640" on="0"/>
        <pt x="377" y="640" on="1"/>
        <pt x="315" y="640" on="0"/>
        <pt x="315" y="695" on="1"/>
        <pt x="315" y="703" on="0"/>
        <pt x="316" y="712" on="1"/>
        <pt x="325" y="784" on="0"/>
      </contour>
      <contour>
        <pt x="294" y="522" on="1"/>
        <pt x="326" y="522" on="0"/>
        <pt x="326" y="499" on="1"/>
        <pt x="326" y="496" on="0"/>
        <pt x="326" y="493" on="1"/>
        <pt x="315" y="427" on="0"/>
        <pt x="287" y="427" on="1"/>
        <pt x="278" y="427" on="1"/>
        <pt x="239" y="101" on="1"/>
        <pt x="252" y="101" on="1"/>
        <pt x="278" y="98" on="0"/>
        <pt x="278" y="78" on="1"/>
        <pt x="278" y="75" on="0"/>
        <pt x="277" y="71" on="1"/>
        <pt x="266" y="5" on="0"/>
        <pt x="228" y="5" on="1"/>
        <pt x="102" y="5" on="1"/>
        <pt x="78" y="5" on="0"/>
        <pt x="78" y="37" on="1"/>
        <pt x="78" y="43" on="0"/>
        <pt x="79" y="51" on="1"/>
        <pt x="84" y="101" on="0"/>
        <pt x="113" y="101" on="1"/>
        <pt x="130" y="101" on="1"/>
        <pt x="176" y="427" on="1"/>
        <pt x="163" y="427" on="1"/>
        <pt x="145" y="427" on="0"/>
        <pt x="137" y="442" on="0"/>
        <pt x="137" y="454" on="1"/>
        <pt x="137" y="522" on="0"/>
        <pt x="176" y="522" on="1"/>
      </contour>
    </TTGlyph>
    <TTGlyph name="I_smcpgrave" xMin="75" yMin="5" xMax="323" yMax="784">
      <contour>
        <pt x="271" y="573" on="1"/>
        <pt x="222" y="552" on="1"/>
        <pt x="86" y="724" on="1"/>
        <pt x="203" y="784" on="1"/>
        <pt x="240" y="752" on="1"/>
        <pt x="280" y="628" on="1"/>
      </contour>
      <contour>
        <pt x="291" y="522" on="1"/>
        <pt x="323" y="522" on="0"/>
        <pt x="323" y="499" on="1"/>
        <pt x="323" y="496" on="0"/>
        <pt x="323" y="493" on="1"/>
        <pt x="312" y="427" on="0"/>
        <pt x="284" y="427" on="1"/>
        <pt x="275" y="427" on="1"/>
        <pt x="236" y="101" on="1"/>
        <pt x="249" y="101" on="1"/>
        <pt x="275" y="98" on="0"/>
        <pt x="275" y="78" on="1"/>
        <pt x="275" y="75" on="0"/>
        <pt x="274" y="71" on="1"/>
        <pt x="263" y="5" on="0"/>
        <pt x="225" y="5" on="1"/>
        <pt x="99" y="5" on="1"/>
        <pt x="75" y="5" on="0"/>
        <pt x="75" y="37" on="1"/>
        <pt x="75" y="43" on="0"/>
        <pt x="76" y="51" on="1"/>
        <pt x="81" y="101" on="0"/>
        <pt x="110" y="101" on="1"/>
        <pt x="127" y="101" on="1"/>
        <pt x="173" y="427" on="1"/>
        <pt x="160" y="427" on="1"/>
        <pt x="142" y="427" on="0"/>
        <pt x="134" y="442" on="0"/>
        <pt x="134" y="454" on="1"/>
        <pt x="134" y="522" on="0"/>
        <pt x="173" y="522" on="1"/>
      </contour>
    </TTGlyph>
    <TTGlyph name="Iacute" xMin="15" yMin="0" xMax="451" yMax="1024">
      <contour>
        <pt x="267" y="792" on="1"/>
        <pt x="224" y="813" on="1"/>
        <pt x="230" y="868" on="1"/>
        <pt x="305" y="992" on="1"/>
        <pt x="351" y="1024" on="1"/>
        <pt x="451" y="964" on="1"/>
      </contour>
      <contour>
        <pt x="104" y="668" on="1"/>
        <pt x="104" y="752" on="0"/>
        <pt x="147" y="752" on="1"/>
        <pt x="324" y="752" on="1"/>
        <pt x="364" y="752" on="0"/>
        <pt x="364" y="726" on="1"/>
        <pt x="364" y="724" on="0"/>
        <pt x="364" y="721" on="1"/>
        <pt x="351" y="632" on="0"/>
        <pt x="316" y="632" on="1"/>
        <pt x="291" y="632" on="1"/>
        <pt x="273" y="432" on="1"/>
        <pt x="231" y="121" on="1"/>
        <pt x="261" y="121" on="1"/>
        <pt x="292" y="120" on="0"/>
        <pt x="292" y="96" on="1"/>
        <pt x="292" y="78" on="0"/>
        <pt x="284" y="54" on="1"/>
        <pt x="266" y="0" on="0"/>
        <pt x="230" y="0" on="1"/>
        <pt x="41" y="0" on="1"/>
        <pt x="23" y="1" on="0"/>
        <pt x="15" y="20" on="0"/>
        <pt x="15" y="43" on="0"/>
        <pt x="18" y="66" on="1"/>
        <pt x="23" y="121" on="0"/>
        <pt x="54" y="121" on="1"/>
        <pt x="90" y="121" on="1"/>
        <pt x="161" y="632" on="1"/>
        <pt x="131" y="632" on="1"/>
        <pt x="112" y="633" on="0"/>
        <pt x="104" y="652" on="0"/>
      </contour>
    </TTGlyph>
    <TTGlyph name="Icircumflex" xMin="64" yMin="0" xMax="471" yMax="1024">
      <contour>
        <pt x="178" y="828" on="1"/>
        <pt x="143" y="860" on="1"/>
        <pt x="164" y="914" on="1"/>
        <pt x="279" y="1004" on="1"/>
        <pt x="330" y="1024" on="1"/>
        <pt x="377" y="1004" on="1"/>
        <pt x="466" y="914" on="1"/>
        <pt x="471" y="860" on="1"/>
        <pt x="428" y="828" on="1"/>
        <pt x="314" y="909" on="1"/>
      </contour>
      <contour>
        <pt x="153" y="668" on="1"/>
        <pt x="153" y="752" on="0"/>
        <pt x="196" y="752" on="1"/>
        <pt x="373" y="752" on="1"/>
        <pt x="413" y="752" on="0"/>
        <pt x="413" y="726" on="1"/>
        <pt x="413" y="724" on="0"/>
        <pt x="413" y="721" on="1"/>
        <pt x="400" y="632" on="0"/>
        <pt x="365" y="632" on="1"/>
        <pt x="340" y="632" on="1"/>
        <pt x="322" y="432" on="1"/>
        <pt x="280" y="121" on="1"/>
        <pt x="310" y="121" on="1"/>
        <pt x="341" y="120" on="0"/>
        <pt x="341" y="96" on="1"/>
        <pt x="341" y="78" on="0"/>
        <pt x="333" y="54" on="1"/>
        <pt x="315" y="0" on="0"/>
        <pt x="279" y="0" on="1"/>
        <pt x="90" y="0" on="1"/>
        <pt x="72" y="1" on="0"/>
        <pt x="64" y="20" on="0"/>
        <pt x="64" y="43" on="0"/>
        <pt x="67" y="66" on="1"/>
        <pt x="72" y="121" on="0"/>
        <pt x="103" y="121" on="1"/>
        <pt x="139" y="121" on="1"/>
        <pt x="210" y="632" on="1"/>
        <pt x="180" y="632" on="1"/>
        <pt x="161" y="633" on="0"/>
        <pt x="153" y="652" on="0"/>
      </contour>
    </TTGlyph>
    <TTGlyph name="Idieresis" xMin="108" yMin="0" xMax="533" yMax="1024">
      <contour>
        <pt x="236" y="1024" on="1"/>
        <pt x="299" y="1024" on="0"/>
        <pt x="299" y="968" on="1"/>
        <pt x="299" y="961" on="0"/>
        <pt x="298" y="952" on="1"/>
        <pt x="288" y="880" on="0"/>
        <pt x="216" y="880" on="1"/>
        <pt x="153" y="880" on="0"/>
        <pt x="153" y="936" on="1"/>
        <pt x="153" y="943" on="0"/>
        <pt x="154" y="952" on="1"/>
        <pt x="164" y="1024" on="0"/>
      </contour>
      <contour>
        <pt x="470" y="1024" on="1"/>
        <pt x="533" y="1024" on="0"/>
        <pt x="533" y="968" on="1"/>
        <pt x="533" y="961" on="0"/>
        <pt x="532" y="952" on="1"/>
        <pt x="522" y="880" on="0"/>
        <pt x="450" y="880" on="1"/>
        <pt x="387" y="880" on="0"/>
        <pt x="387" y="936" on="1"/>
        <pt x="387" y="943" on="0"/>
        <pt x="388" y="952" on="1"/>
        <pt x="398" y="1024" on="0"/>
      </contour>
      <contour>
        <pt x="197" y="668" on="1"/>
        <pt x="197" y="752" on="0"/>
        <pt x="240" y="752" on="1"/>
        <pt x="417" y="752" on="1"/>
        <pt x="457" y="752" on="0"/>
        <pt x="457" y="726" on="1"/>
        <pt x="457" y="724" on="0"/>
        <pt x="457" y="721" on="1"/>
        <pt x="444" y="632" on="0"/>
        <pt x="409" y="632" on="1"/>
        <pt x="384" y="632" on="1"/>
        <pt x="366" y="432" on="1"/>
        <pt x="324" y="121" on="1"/>
        <pt x="354" y="121" on="1"/>
        <pt x="385" y="120" on="0"/>
        <pt x="385" y="96" on="1"/>
        <pt x="385" y="78" on="0"/>
        <pt x="377" y="54" on="1"/>
        <pt x="359" y="0" on="0"/>
        <pt x="323" y="0" on="1"/>
        <pt x="134" y="0" on="1"/>
        <pt x="116" y="1" on="0"/>
        <pt x="108" y="20" on="0"/>
        <pt x="108" y="43" on="0"/>
        <pt x="111" y="66" on="1"/>
        <pt x="116" y="121" on="0"/>
        <pt x="147" y="121" on="1"/>
        <pt x="183" y="121" on="1"/>
        <pt x="254" y="632" on="1"/>
        <pt x="224" y="632" on="1"/>
        <pt x="205" y="633" on="0"/>
        <pt x="197" y="652" on="0"/>
      </contour>
    </TTGlyph>
    <TTGlyph name="Igrave" xMin="69" yMin="0" xMax="418" yMax="1024">
      <contour>
        <pt x="339" y="813" on="1"/>
        <pt x="290" y="792" on="1"/>
        <pt x="154" y="964" on="1"/>
        <pt x="270" y="1024" on="1"/>
        <pt x="308" y="992" on="1"/>
        <pt x="347" y="868" on="1"/>
      </contour>
      <contour>
        <pt x="158" y="668" on="1"/>
        <pt x="158" y="752" on="0"/>
        <pt x="201" y="752" on="1"/>
        <pt x="378" y="752" on="1"/>
        <pt x="418" y="752" on="0"/>
        <pt x="418" y="726" on="1"/>
        <pt x="418" y="724" on="0"/>
        <pt x="418" y="721" on="1"/>
        <pt x="405" y="632" on="0"/>
        <pt x="370" y="632" on="1"/>
        <pt x="345" y="632" on="1"/>
        <pt x="327" y="432" on="1"/>
        <pt x="285" y="121" on="1"/>
        <pt x="315" y="121" on="1"/>
        <pt x="346" y="120" on="0"/>
        <pt x="346" y="96" on="1"/>
        <pt x="346" y="78" on="0"/>
        <pt x="338" y="54" on="1"/>
        <pt x="320" y="0" on="0"/>
        <pt x="284" y="0" on="1"/>
        <pt x="95" y="0" on="1"/>
        <pt x="77" y="1" on="0"/>
        <pt x="69" y="20" on="0"/>
        <pt x="69" y="43" on="0"/>
        <pt x="72" y="66" on="1"/>
        <pt x="77" y="121" on="0"/>
        <pt x="108" y="121" on="1"/>
        <pt x="144" y="121" on="1"/>
        <pt x="215" y="632" on="1"/>
        <pt x="185" y="632" on="1"/>
        <pt x="166" y="633" on="0"/>
        <pt x="158" y="652" on="0"/>
      </contour>
    </TTGlyph>
    <TTGlyph name="J" xMin="-25" yMin="-224" xMax="337" yMax="768">
      <contour>
        <pt x="-25" y="-191" on="1"/>
        <pt x="-25" y="-113" on="0"/>
        <pt x="16" y="-113" on="1"/>
        <pt x="60" y="-113" on="0"/>
        <pt x="106" y="6" on="0"/>
        <pt x="128" y="163" on="1"/>
        <pt x="209" y="732" on="1"/>
        <pt x="212" y="754" on="0"/>
        <pt x="235" y="768" on="0"/>
        <pt x="265" y="768" on="1"/>
        <pt x="337" y="768" on="0"/>
        <pt x="333" y="731" on="1"/>
        <pt x="307" y="432" on="1"/>
        <pt x="270" y="165" on="1"/>
        <pt x="245" y="-5" on="0"/>
        <pt x="193" y="-140" on="0"/>
        <pt x="165" y="-167" on="1"/>
        <pt x="106" y="-224" on="0"/>
        <pt x="0" y="-224" on="1"/>
        <pt x="-25" y="-223" on="0"/>
      </contour>
    </TTGlyph>
    <TTGlyph name="J_smcp" xMin="-15" yMin="-144" xMax="241" yMax="531">
      <contour>
        <pt x="47" y="-54" on="0"/>
        <pt x="75" y="22" on="0"/>
        <pt x="89" y="122" on="1"/>
        <pt x="142" y="501" on="1"/>
        <pt x="144" y="519" on="0"/>
        <pt x="163" y="531" on="0"/>
        <pt x="188" y="531" on="1"/>
        <pt x="241" y="531" on="0"/>
        <pt x="241" y="502" on="1"/>
        <pt x="232" y="393" on="1"/>
        <pt x="226" y="324" on="0"/>
        <pt x="224" y="301" on="1"/>
        <pt x="199" y="123" on="1"/>
        <pt x="188" y="46" on="0"/>
        <pt x="164" y="-45" on="0"/>
        <pt x="122" y="-116" on="0"/>
        <pt x="57" y="-144" on="0"/>
        <pt x="8" y="-144" on="1"/>
        <pt x="-8" y="-143" on="0"/>
        <pt x="-15" y="-128" on="0"/>
        <pt x="-15" y="-111" on="0"/>
        <pt x="-12" y="-92" on="1"/>
        <pt x="-7" y="-54" on="0"/>
      </contour>
    </TTGlyph>
    <TTGlyph name="K" xMin="45" yMin="-16" xMax="615" yMax="768">
      <contour>
        <pt x="464" y="732" on="1"/>
        <pt x="484" y="768" on="0"/>
        <pt x="615" y="768" on="0"/>
        <pt x="615" y="746" on="1"/>
        <pt x="615" y="740" on="0"/>
        <pt x="610" y="732" on="1"/>
        <pt x="415" y="417" on="1"/>
        <pt x="550" y="21" on="1"/>
        <pt x="558" y="-2" on="0"/>
        <pt x="545" y="-16" on="0"/>
        <pt x="474" y="-16" on="0"/>
        <pt x="396" y="1" on="0"/>
        <pt x="389" y="21" on="1"/>
        <pt x="266" y="386" on="1"/>
        <pt x="270" y="416" on="1"/>
      </contour>
      <contour>
        <pt x="204" y="768" on="1"/>
        <pt x="276" y="768" on="0"/>
        <pt x="272" y="730" on="1"/>
        <pt x="245" y="432" on="1"/>
        <pt x="189" y="22" on="1"/>
        <pt x="185" y="-3" on="0"/>
        <pt x="171" y="-16" on="0"/>
        <pt x="120" y="-16" on="0"/>
        <pt x="78" y="-11" on="0"/>
        <pt x="45" y="7" on="0"/>
        <pt x="47" y="20" on="1"/>
        <pt x="147" y="731" on="1"/>
        <pt x="150" y="753" on="0"/>
        <pt x="174" y="768" on="0"/>
      </contour>
    </TTGlyph>
    <TTGlyph name="K_smcp" xMin="33" yMin="-6" xMax="429" yMax="531">
      <contour>
        <pt x="314" y="505" on="1"/>
        <pt x="328" y="531" on="0"/>
        <pt x="429" y="531" on="0"/>
        <pt x="429" y="511" on="1"/>
        <pt x="429" y="505" on="0"/>
        <pt x="424" y="497" on="1"/>
        <pt x="296" y="290" on="1"/>
        <pt x="386" y="31" on="1"/>
        <pt x="393" y="12" on="0"/>
        <pt x="379" y="-6" on="0"/>
        <pt x="325" y="-6" on="0"/>
        <pt x="268" y="8" on="0"/>
        <pt x="262" y="23" on="1"/>
        <pt x="181" y="265" on="1"/>
        <pt x="185" y="294" on="1"/>
      </contour>
      <contour>
        <pt x="148" y="531" on="1"/>
        <pt x="205" y="531" on="0"/>
        <pt x="201" y="499" on="1"/>
        <pt x="183" y="301" on="1"/>
        <pt x="145" y="28" on="1"/>
        <pt x="143" y="6" on="0"/>
        <pt x="131" y="-6" on="0"/>
        <pt x="77" y="-6" on="0"/>
        <pt x="33" y="9" on="0"/>
        <pt x="35" y="26" on="1"/>
        <pt x="102" y="500" on="1"/>
        <pt x="104" y="519" on="0"/>
        <pt x="123" y="531" on="0"/>
      </contour>
    </TTGlyph>
    <TTGlyph name="L" xMin="47" yMin="0" xMax="440" yMax="768">
      <contour>
        <pt x="396" y="121" on="1"/>
        <pt x="440" y="121" on="0"/>
        <pt x="440" y="93" on="1"/>
        <pt x="440" y="65" on="0"/>
        <pt x="421" y="14" on="0"/>
        <pt x="399" y="0" on="0"/>
        <pt x="383" y="0" on="1"/>
        <pt x="61" y="0" on="1"/>
        <pt x="47" y="16" on="1"/>
        <pt x="147" y="731" on="1"/>
        <pt x="150" y="753" on="0"/>
        <pt x="173" y="768" on="0"/>
        <pt x="203" y="768" on="1"/>
        <pt x="275" y="768" on="0"/>
        <pt x="271" y="732" on="1"/>
        <pt x="244" y="432" on="1"/>
        <pt x="202" y="121" on="1"/>
      </contour>
    </TTGlyph>
    <TTGlyph name="L_smcp" xMin="35" yMin="5" xMax="312" yMax="531">
      <contour>
        <pt x="276" y="101" on="1"/>
        <pt x="312" y="101" on="0"/>
        <pt x="312" y="75" on="1"/>
        <pt x="312" y="37" on="0"/>
        <pt x="282" y="5" on="0"/>
        <pt x="264" y="5" on="1"/>
        <pt x="45" y="5" on="1"/>
        <pt x="35" y="21" on="1"/>
        <pt x="103" y="500" on="1"/>
        <pt x="105" y="519" on="0"/>
        <pt x="122" y="531" on="0"/>
        <pt x="174" y="531" on="0"/>
        <pt x="202" y="518" on="0"/>
        <pt x="201" y="501" on="1"/>
        <pt x="181" y="301" on="1"/>
        <pt x="154" y="101" on="1"/>
      </contour>
    </TTGlyph>
    <TTGlyph name="Lslash" xMin="71" yMin="0" xMax="541" yMax="768">
      <contour>
        <pt x="497" y="121" on="1"/>
        <pt x="541" y="121" on="0"/>
        <pt x="541" y="93" on="1"/>
        <pt x="541" y="65" on="0"/>
        <pt x="522" y="14" on="0"/>
        <pt x="500" y="0" on="0"/>
        <pt x="484" y="0" on="1"/>
        <pt x="162" y="0" on="1"/>
        <pt x="148" y="16" on="1"/>
        <pt x="186" y="286" on="1"/>
        <pt x="86" y="260" on="1"/>
        <pt x="71" y="380" on="1"/>
        <pt x="204" y="414" on="1"/>
        <pt x="248" y="731" on="1"/>
        <pt x="251" y="753" on="0"/>
        <pt x="274" y="768" on="0"/>
        <pt x="304" y="768" on="1"/>
        <pt x="376" y="768" on="0"/>
        <pt x="372" y="732" on="1"/>
        <pt x="347" y="451" on="1"/>
        <pt x="441" y="476" on="1"/>
        <pt x="460" y="464" on="1"/>
        <pt x="470" y="376" on="1"/>
        <pt x="456" y="356" on="1"/>
        <pt x="330" y="323" on="1"/>
        <pt x="303" y="121" on="1"/>
      </contour>
    </TTGlyph>
    <TTGlyph name="M" xMin="42" yMin="-16" xMax="643" yMax="768">
      <contour>
        <pt x="142" y="-16" on="1"/>
        <pt x="42" y="-16" on="0"/>
        <pt x="47" y="21" on="1"/>
        <pt x="147" y="730" on="1"/>
        <pt x="152" y="768" on="0"/>
        <pt x="290" y="768" on="0"/>
        <pt x="299" y="731" on="1"/>
        <pt x="364" y="473" on="1"/>
        <pt x="506" y="732" on="1"/>
        <pt x="517" y="754" on="0"/>
        <pt x="542" y="768" on="0"/>
        <pt x="571" y="768" on="1"/>
        <pt x="643" y="768" on="0"/>
        <pt x="639" y="729" on="1"/>
        <pt x="613" y="431" on="1"/>
        <pt x="556" y="28" on="1"/>
        <pt x="552" y="-1" on="0"/>
        <pt x="539" y="-16" on="0"/>
        <pt x="487" y="-16" on="0"/>
        <pt x="456" y="-14" on="0"/>
        <pt x="441" y="-10" on="1"/>
        <pt x="412" y="-4" on="0"/>
        <pt x="414" y="21" on="1"/>
        <pt x="478" y="475" on="1"/>
        <pt x="396" y="354" on="1"/>
        <pt x="295" y="354" on="1"/>
        <pt x="251" y="473" on="1"/>
        <pt x="188" y="22" on="1"/>
        <pt x="184" y="-3" on="0"/>
        <pt x="170" y="-16" on="0"/>
      </contour>
    </TTGlyph>
    <TTGlyph name="M_smcp" xMin="33" yMin="-6" xMax="445" yMax="531">
      <contour>
        <pt x="142" y="6" on="0"/>
        <pt x="130" y="-6" on="0"/>
        <pt x="76" y="-6" on="0"/>
        <pt x="33" y="9" on="0"/>
        <pt x="35" y="27" on="1"/>
        <pt x="102" y="499" on="1"/>
        <pt x="106" y="531" on="0"/>
        <pt x="212" y="531" on="0"/>
        <pt x="220" y="502" on="1"/>
        <pt x="257" y="349" on="1"/>
        <pt x="340" y="505" on="1"/>
        <pt x="351" y="522" on="0"/>
        <pt x="368" y="531" on="0"/>
        <pt x="418" y="531" on="0"/>
        <pt x="445" y="518" on="0"/>
        <pt x="445" y="501" on="1"/>
        <pt x="436" y="392" on="1"/>
        <pt x="430" y="323" on="0"/>
        <pt x="428" y="300" on="1"/>
        <pt x="390" y="32" on="1"/>
        <pt x="387" y="7" on="0"/>
        <pt x="375" y="-6" on="0"/>
        <pt x="326" y="-6" on="0"/>
        <pt x="299" y="-3" on="0"/>
        <pt x="277" y="12" on="0"/>
        <pt x="279" y="27" on="1"/>
        <pt x="317" y="297" on="1"/>
        <pt x="281" y="240" on="1"/>
        <pt x="200" y="240" on="1"/>
        <pt x="182" y="294" on="1"/>
        <pt x="144" y="28" on="1"/>
      </contour>
    </TTGlyph>
    <TTGlyph name="N" xMin="42" yMin="-16" xMax="585" yMax="768">
      <contour>
        <pt x="224" y="768" on="1"/>
        <pt x="239" y="768" on="0"/>
        <pt x="256" y="766" on="0"/>
        <pt x="280" y="749" on="0"/>
        <pt x="288" y="733" on="1"/>
        <pt x="407" y="313" on="1"/>
        <pt x="460" y="732" on="1"/>
        <pt x="465" y="768" on="0"/>
        <pt x="537" y="768" on="1"/>
        <pt x="567" y="768" on="0"/>
        <pt x="585" y="755" on="0"/>
        <pt x="585" y="736" on="0"/>
        <pt x="585" y="732" on="1"/>
        <pt x="559" y="431" on="1"/>
        <pt x="501" y="21" on="1"/>
        <pt x="498" y="-3" on="0"/>
        <pt x="484" y="-16" on="0"/>
        <pt x="456" y="-16" on="1"/>
        <pt x="391" y="-16" on="0"/>
        <pt x="383" y="21" on="1"/>
        <pt x="245" y="436" on="1"/>
        <pt x="188" y="22" on="1"/>
        <pt x="184" y="-3" on="0"/>
        <pt x="170" y="-16" on="0"/>
        <pt x="142" y="-16" on="1"/>
        <pt x="42" y="-16" on="0"/>
        <pt x="48" y="24" on="1"/>
        <pt x="147" y="731" on="1"/>
        <pt x="152" y="768" on="0"/>
      </contour>
    </TTGlyph>
    <TTGlyph name="N_smcp" xMin="33" yMin="-6" xMax="409" yMax="531">
      <contour>
        <pt x="161" y="531" on="1"/>
        <pt x="173" y="531" on="0"/>
        <pt x="186" y="529" on="0"/>
        <pt x="206" y="511" on="0"/>
        <pt x="214" y="494" on="1"/>
        <pt x="279" y="262" on="1"/>
        <pt x="309" y="501" on="1"/>
        <pt x="313" y="531" on="0"/>
        <pt x="370" y="531" on="1"/>
        <pt x="395" y="531" on="0"/>
        <pt x="409" y="520" on="0"/>
        <pt x="408" y="501" on="1"/>
        <pt x="391" y="300" on="1"/>
        <pt x="352" y="27" on="1"/>
        <pt x="350" y="6" on="0"/>
        <pt x="338" y="-6" on="0"/>
        <pt x="315" y="-6" on="1"/>
        <pt x="266" y="-6" on="0"/>
        <pt x="258" y="24" on="1"/>
        <pt x="177" y="262" on="1"/>
        <pt x="144" y="28" on="1"/>
        <pt x="142" y="6" on="0"/>
        <pt x="130" y="-6" on="0"/>
        <pt x="76" y="-6" on="0"/>
        <pt x="33" y="10" on="0"/>
        <pt x="36" y="29" on="1"/>
        <pt x="102" y="500" on="1"/>
        <pt x="106" y="531" on="0"/>
      </contour>
    </TTGlyph>
    <TTGlyph name="Ntilde" xMin="34" yMin="-16" xMax="580" yMax="985">
      <contour>
        <pt x="557" y="884" on="1"/>
        <pt x="550" y="884" on="0"/>
        <pt x="473" y="884" on="0"/>
        <pt x="324" y="864" on="0"/>
        <pt x="224" y="864" on="0"/>
        <pt x="203" y="881" on="0"/>
        <pt x="203" y="908" on="0"/>
        <pt x="204" y="916" on="1"/>
        <pt x="236" y="967" on="1"/>
        <pt x="311" y="967" on="0"/>
        <pt x="445" y="985" on="0"/>
        <pt x="551" y="985" on="0"/>
        <pt x="580" y="966" on="0"/>
        <pt x="580" y="944" on="1"/>
        <pt x="580" y="937" on="0"/>
        <pt x="579" y="929" on="1"/>
      </contour>
      <contour>
        <pt x="144" y="768" on="0"/>
        <pt x="216" y="768" on="1"/>
        <pt x="231" y="768" on="0"/>
        <pt x="248" y="766" on="0"/>
        <pt x="272" y="749" on="0"/>
        <pt x="280" y="733" on="1"/>
        <pt x="399" y="313" on="1"/>
        <pt x="452" y="732" on="1"/>
        <pt x="457" y="768" on="0"/>
        <pt x="529" y="768" on="1"/>
        <pt x="559" y="768" on="0"/>
        <pt x="577" y="755" on="0"/>
        <pt x="577" y="736" on="0"/>
        <pt x="577" y="732" on="1"/>
        <pt x="551" y="431" on="1"/>
        <pt x="493" y="21" on="1"/>
        <pt x="490" y="-3" on="0"/>
        <pt x="476" y="-16" on="0"/>
        <pt x="448" y="-16" on="1"/>
        <pt x="383" y="-16" on="0"/>
        <pt x="375" y="21" on="1"/>
        <pt x="237" y="436" on="1"/>
        <pt x="180" y="22" on="1"/>
        <pt x="176" y="-3" on="0"/>
        <pt x="162" y="-16" on="0"/>
        <pt x="134" y="-16" on="1"/>
        <pt x="34" y="-16" on="0"/>
        <pt x="40" y="24" on="1"/>
        <pt x="139" y="731" on="1"/>
      </contour>
    </TTGlyph>
    <TTGlyph name="Ntilde_smcp" xMin="31" yMin="-6" xMax="409" yMax="677">
      <contour>
        <pt x="390" y="594" on="1"/>
        <pt x="378" y="595" on="0"/>
        <pt x="332" y="595" on="0"/>
        <pt x="220" y="580" on="0"/>
        <pt x="157" y="580" on="0"/>
        <pt x="140" y="595" on="0"/>
        <pt x="140" y="618" on="0"/>
        <pt x="141" y="626" on="1"/>
        <pt x="166" y="664" on="1"/>
        <pt x="197" y="664" on="0"/>
        <pt x="325" y="677" on="0"/>
        <pt x="385" y="677" on="0"/>
        <pt x="409" y="660" on="0"/>
        <pt x="409" y="636" on="0"/>
        <pt x="408" y="629" on="1"/>
      </contour>
      <contour>
        <pt x="159" y="531" on="1"/>
        <pt x="170" y="531" on="0"/>
        <pt x="183" y="529" on="0"/>
        <pt x="203" y="512" on="0"/>
        <pt x="211" y="495" on="1"/>
        <pt x="277" y="262" on="1"/>
        <pt x="308" y="501" on="1"/>
        <pt x="312" y="531" on="0"/>
        <pt x="368" y="531" on="1"/>
        <pt x="393" y="531" on="0"/>
        <pt x="406" y="521" on="0"/>
        <pt x="406" y="505" on="0"/>
        <pt x="406" y="501" on="1"/>
        <pt x="388" y="300" on="1"/>
        <pt x="349" y="27" on="1"/>
        <pt x="347" y="6" on="0"/>
        <pt x="335" y="-6" on="0"/>
        <pt x="312" y="-6" on="1"/>
        <pt x="263" y="-6" on="0"/>
        <pt x="255" y="24" on="1"/>
        <pt x="174" y="262" on="1"/>
        <pt x="142" y="28" on="1"/>
        <pt x="140" y="6" on="0"/>
        <pt x="128" y="-6" on="0"/>
        <pt x="74" y="-6" on="0"/>
        <pt x="31" y="10" on="0"/>
        <pt x="34" y="29" on="1"/>
        <pt x="100" y="500" on="1"/>
        <pt x="104" y="531" on="0"/>
      </contour>
    </TTGlyph>
    <TTGlyph name="O" xMin="76" yMin="-16" xMax="627" yMax="768">
      <contour>
        <pt x="184" y="700" on="0"/>
        <pt x="303" y="768" on="0"/>
        <pt x="484" y="768" on="0"/>
        <pt x="574" y="733" on="0"/>
        <pt x="627" y="644" on="0"/>
        <pt x="627" y="493" on="0"/>
        <pt x="612" y="371" on="1"/>
        <pt x="581" y="152" on="0"/>
        <pt x="445" y="-16" on="0"/>
        <pt x="147" y="-16" on="0"/>
        <pt x="102" y="68" on="1"/>
        <pt x="76" y="118" on="0"/>
        <pt x="76" y="281" on="0"/>
        <pt x="89" y="371" on="1"/>
        <pt x="111" y="531" on="0"/>
      </contour>
      <contour>
        <pt x="448" y="662" on="1"/>
        <pt x="408" y="662" on="0"/>
        <pt x="358" y="655" on="0"/>
        <pt x="316" y="628" on="0"/>
        <pt x="293" y="595" on="0"/>
        <pt x="282" y="558" on="1"/>
        <pt x="267" y="508" on="0"/>
        <pt x="250" y="383" on="1"/>
        <pt x="228" y="232" on="0"/>
        <pt x="228" y="129" on="0"/>
        <pt x="241" y="96" on="0"/>
        <pt x="258" y="96" on="1"/>
        <pt x="299" y="96" on="0"/>
        <pt x="344" y="99" on="0"/>
        <pt x="389" y="122" on="0"/>
        <pt x="409" y="150" on="0"/>
        <pt x="420" y="186" on="1"/>
        <pt x="445" y="263" on="0"/>
        <pt x="469" y="474" on="1"/>
        <pt x="477" y="541" on="0"/>
        <pt x="477" y="662" on="0"/>
      </contour>
    </TTGlyph>
    <TTGlyph name="OE" xMin="76" yMin="-16" xMax="916" yMax="752">
      <contour>
        <pt x="877" y="752" on="1"/>
        <pt x="916" y="750" on="0"/>
        <pt x="916" y="725" on="1"/>
        <pt x="916" y="713" on="0"/>
        <pt x="909" y="688" on="1"/>
        <pt x="894" y="632" on="0"/>
        <pt x="857" y="632" on="1"/>
        <pt x="617" y="632" on="1"/>
        <pt x="626" y="596" on="0"/>
        <pt x="626" y="503" on="0"/>
        <pt x="621" y="455" on="1"/>
        <pt x="813" y="455" on="1"/>
        <pt x="849" y="455" on="0"/>
        <pt x="849" y="428" on="1"/>
        <pt x="849" y="424" on="0"/>
        <pt x="842" y="371" on="0"/>
        <pt x="824" y="334" on="0"/>
        <pt x="799" y="334" on="1"/>
        <pt x="605" y="334" on="1"/>
        <pt x="584" y="198" on="0"/>
        <pt x="547" y="121" on="1"/>
        <pt x="805" y="121" on="1"/>
        <pt x="828" y="120" on="0"/>
        <pt x="844" y="103" on="0"/>
        <pt x="842" y="86" on="1"/>
        <pt x="835" y="37" on="0"/>
        <pt x="812" y="0" on="0"/>
        <pt x="785" y="0" on="1"/>
        <pt x="433" y="0" on="1"/>
        <pt x="358" y="-16" on="0"/>
        <pt x="296" y="-16" on="1"/>
        <pt x="147" y="-16" on="0"/>
        <pt x="102" y="68" on="1"/>
        <pt x="76" y="118" on="0"/>
        <pt x="76" y="281" on="0"/>
        <pt x="89" y="371" on="1"/>
        <pt x="111" y="530" on="0"/>
        <pt x="184" y="692" on="0"/>
        <pt x="300" y="752" on="0"/>
        <pt x="404" y="752" on="1"/>
      </contour>
      <contour>
        <pt x="448" y="662" on="1"/>
        <pt x="408" y="662" on="0"/>
        <pt x="358" y="655" on="0"/>
        <pt x="316" y="628" on="0"/>
        <pt x="293" y="595" on="0"/>
        <pt x="282" y="558" on="1"/>
        <pt x="267" y="508" on="0"/>
        <pt x="250" y="383" on="1"/>
        <pt x="228" y="232" on="0"/>
        <pt x="228" y="129" on="0"/>
        <pt x="241" y="96" on="0"/>
        <pt x="258" y="96" on="1"/>
        <pt x="299" y="96" on="0"/>
        <pt x="344" y="99" on="0"/>
        <pt x="389" y="122" on="0"/>
        <pt x="409" y="150" on="0"/>
        <pt x="420" y="186" on="1"/>
        <pt x="445" y="263" on="0"/>
        <pt x="469" y="474" on="1"/>
        <pt x="477" y="541" on="0"/>
        <pt x="477" y="662" on="0"/>
      </contour>
    </TTGlyph>
    <TTGlyph name="OE_smcp" xMin="62" yMin="-6" xMax="638" yMax="522">
      <contour>
        <pt x="605" y="522" on="1"/>
        <pt x="638" y="520" on="0"/>
        <pt x="638" y="498" on="1"/>
        <pt x="638" y="460" on="0"/>
        <pt x="618" y="438" on="1"/>
        <pt x="607" y="427" on="0"/>
        <pt x="590" y="427" on="1"/>
        <pt x="450" y="427" on="1"/>
        <pt x="441" y="324" on="1"/>
        <pt x="562" y="324" on="1"/>
        <pt x="593" y="324" on="0"/>
        <pt x="593" y="298" on="1"/>
        <pt x="593" y="228" on="0"/>
        <pt x="551" y="228" on="1"/>
        <pt x="429" y="228" on="1"/>
        <pt x="410" y="101" on="1"/>
        <pt x="557" y="101" on="1"/>
        <pt x="577" y="100" on="0"/>
        <pt x="590" y="85" on="0"/>
        <pt x="583" y="33" on="0"/>
        <pt x="564" y="5" on="0"/>
        <pt x="541" y="5" on="1"/>
        <pt x="301" y="5" on="1"/>
        <pt x="300" y="6" on="1"/>
        <pt x="264" y="-6" on="0"/>
        <pt x="215" y="-6" on="1"/>
        <pt x="111" y="-6" on="0"/>
        <pt x="80" y="52" on="1"/>
        <pt x="62" y="86" on="0"/>
        <pt x="62" y="198" on="0"/>
        <pt x="70" y="259" on="1"/>
        <pt x="92" y="418" on="0"/>
        <pt x="182" y="521" on="0"/>
        <pt x="289" y="521" on="1"/>
      </contour>
      <contour>
        <pt x="316" y="445" on="1"/>
        <pt x="248" y="445" on="0"/>
        <pt x="210" y="385" on="0"/>
        <pt x="179" y="164" on="0"/>
        <pt x="179" y="91" on="0"/>
        <pt x="188" y="84" on="0"/>
        <pt x="228" y="84" on="0"/>
        <pt x="263" y="91" on="0"/>
        <pt x="292" y="132" on="0"/>
        <pt x="305" y="193" on="0"/>
        <pt x="314" y="263" on="1"/>
        <pt x="328" y="366" on="0"/>
        <pt x="328" y="445" on="0"/>
      </contour>
    </TTGlyph>
    <TTGlyph name="O_smcp" xMin="54" yMin="-6" xMax="435" yMax="531">
      <contour>
        <pt x="177" y="531" on="0"/>
        <pt x="387" y="531" on="0"/>
        <pt x="418" y="475" on="1"/>
        <pt x="435" y="442" on="0"/>
        <pt x="435" y="326" on="0"/>
        <pt x="426" y="259" on="1"/>
        <pt x="405" y="109" on="0"/>
        <pt x="310" y="-6" on="0"/>
        <pt x="103" y="-6" on="0"/>
        <pt x="72" y="52" on="1"/>
        <pt x="54" y="86" on="0"/>
        <pt x="54" y="198" on="0"/>
        <pt x="62" y="259" on="1"/>
        <pt x="84" y="419" on="0"/>
      </contour>
      <contour>
        <pt x="308" y="445" on="1"/>
        <pt x="240" y="445" on="0"/>
        <pt x="202" y="385" on="0"/>
        <pt x="171" y="164" on="0"/>
        <pt x="171" y="91" on="0"/>
        <pt x="180" y="84" on="0"/>
        <pt x="220" y="84" on="0"/>
        <pt x="255" y="91" on="0"/>
        <pt x="284" y="132" on="0"/>
        <pt x="297" y="193" on="0"/>
        <pt x="306" y="263" on="1"/>
        <pt x="320" y="366" on="0"/>
        <pt x="320" y="445" on="0"/>
      </contour>
    </TTGlyph>
    <TTGlyph name="O_smcpacute" xMin="54" yMin="-6" xMax="466" yMax="784">
      <contour>
        <pt x="282" y="552" on="1"/>
        <pt x="239" y="573" on="1"/>
        <pt x="246" y="628" on="1"/>
        <pt x="320" y="752" on="1"/>
        <pt x="367" y="784" on="1"/>
        <pt x="466" y="724" on="1"/>
      </contour>
      <contour>
        <pt x="177" y="531" on="0"/>
        <pt x="387" y="531" on="0"/>
        <pt x="418" y="475" on="1"/>
        <pt x="435" y="442" on="0"/>
        <pt x="435" y="326" on="0"/>
        <pt x="426" y="259" on="1"/>
        <pt x="405" y="109" on="0"/>
        <pt x="310" y="-6" on="0"/>
        <pt x="103" y="-6" on="0"/>
        <pt x="72" y="52" on="1"/>
        <pt x="54" y="86" on="0"/>
        <pt x="54" y="198" on="0"/>
        <pt x="62" y="259" on="1"/>
        <pt x="84" y="419" on="0"/>
      </contour>
      <contour>
        <pt x="308" y="445" on="1"/>
        <pt x="240" y="445" on="0"/>
        <pt x="202" y="385" on="0"/>
        <pt x="171" y="164" on="0"/>
        <pt x="171" y="91" on="0"/>
        <pt x="180" y="84" on="0"/>
        <pt x="220" y="84" on="0"/>
        <pt x="255" y="91" on="0"/>
        <pt x="284" y="132" on="0"/>
        <pt x="297" y="193" on="0"/>
        <pt x="306" y="263" on="1"/>
        <pt x="320" y="366" on="0"/>
        <pt x="320" y="445" on="0"/>
      </contour>
    </TTGlyph>
    <TTGlyph name="O_smcpcircunflex" xMin="66" yMin="-6" xMax="472" yMax="784">
      <contour>
        <pt x="178" y="588" on="1"/>
        <pt x="144" y="620" on="1"/>
        <pt x="164" y="674" on="1"/>
        <pt x="279" y="764" on="1"/>
        <pt x="331" y="784" on="1"/>
        <pt x="377" y="764" on="1"/>
        <pt x="466" y="674" on="1"/>
        <pt x="472" y="620" on="1"/>
        <pt x="428" y="588" on="1"/>
        <pt x="315" y="669" on="1"/>
      </contour>
      <contour>
        <pt x="189" y="531" on="0"/>
        <pt x="399" y="531" on="0"/>
        <pt x="430" y="475" on="1"/>
        <pt x="447" y="442" on="0"/>
        <pt x="447" y="326" on="0"/>
        <pt x="438" y="259" on="1"/>
        <pt x="417" y="109" on="0"/>
        <pt x="322" y="-6" on="0"/>
        <pt x="115" y="-6" on="0"/>
        <pt x="84" y="52" on="1"/>
        <pt x="66" y="86" on="0"/>
        <pt x="66" y="198" on="0"/>
        <pt x="74" y="259" on="1"/>
        <pt x="96" y="419" on="0"/>
      </contour>
      <contour>
        <pt x="320" y="445" on="1"/>
        <pt x="252" y="445" on="0"/>
        <pt x="214" y="385" on="0"/>
        <pt x="183" y="164" on="0"/>
        <pt x="183" y="91" on="0"/>
        <pt x="192" y="84" on="0"/>
        <pt x="232" y="84" on="0"/>
        <pt x="267" y="91" on="0"/>
        <pt x="296" y="132" on="0"/>
        <pt x="309" y="193" on="0"/>
        <pt x="318" y="263" on="1"/>
        <pt x="332" y="366" on="0"/>
        <pt x="332" y="445" on="0"/>
      </contour>
    </TTGlyph>
    <TTGlyph name="O_smcpdieresis" xMin="72" yMin="-6" xMax="521" yMax="784">
      <contour>
        <pt x="224" y="784" on="1"/>
        <pt x="287" y="784" on="0"/>
        <pt x="287" y="727" on="1"/>
        <pt x="287" y="720" on="0"/>
        <pt x="286" y="712" on="1"/>
        <pt x="276" y="640" on="0"/>
        <pt x="203" y="640" on="1"/>
        <pt x="141" y="640" on="0"/>
        <pt x="141" y="695" on="1"/>
        <pt x="141" y="703" on="0"/>
        <pt x="142" y="712" on="1"/>
        <pt x="151" y="784" on="0"/>
      </contour>
      <contour>
        <pt x="458" y="784" on="1"/>
        <pt x="521" y="784" on="0"/>
        <pt x="521" y="727" on="1"/>
        <pt x="521" y="720" on="0"/>
        <pt x="520" y="712" on="1"/>
        <pt x="510" y="640" on="0"/>
        <pt x="437" y="640" on="1"/>
        <pt x="375" y="640" on="0"/>
        <pt x="375" y="695" on="1"/>
        <pt x="375" y="703" on="0"/>
        <pt x="376" y="712" on="1"/>
        <pt x="385" y="784" on="0"/>
      </contour>
      <contour>
        <pt x="195" y="531" on="0"/>
        <pt x="405" y="531" on="0"/>
        <pt x="436" y="475" on="1"/>
        <pt x="453" y="442" on="0"/>
        <pt x="453" y="326" on="0"/>
        <pt x="444" y="259" on="1"/>
        <pt x="423" y="109" on="0"/>
        <pt x="328" y="-6" on="0"/>
        <pt x="121" y="-6" on="0"/>
        <pt x="90" y="52" on="1"/>
        <pt x="72" y="86" on="0"/>
        <pt x="72" y="198" on="0"/>
        <pt x="80" y="259" on="1"/>
        <pt x="102" y="419" on="0"/>
      </contour>
      <contour>
        <pt x="326" y="445" on="1"/>
        <pt x="258" y="445" on="0"/>
        <pt x="220" y="385" on="0"/>
        <pt x="189" y="164" on="0"/>
        <pt x="189" y="91" on="0"/>
        <pt x="198" y="84" on="0"/>
        <pt x="238" y="84" on="0"/>
        <pt x="273" y="91" on="0"/>
        <pt x="302" y="132" on="0"/>
        <pt x="315" y="193" on="0"/>
        <pt x="324" y="263" on="1"/>
        <pt x="338" y="366" on="0"/>
        <pt x="338" y="445" on="0"/>
      </contour>
    </TTGlyph>
    <TTGlyph name="O_smcpgrave" xMin="54" yMin="-6" xMax="435" yMax="784">
      <contour>
        <pt x="356" y="573" on="1"/>
        <pt x="307" y="552" on="1"/>
        <pt x="171" y="724" on="1"/>
        <pt x="288" y="784" on="1"/>
        <pt x="325" y="752" on="1"/>
        <pt x="365" y="628" on="1"/>
      </contour>
      <contour>
        <pt x="177" y="531" on="0"/>
        <pt x="387" y="531" on="0"/>
        <pt x="418" y="475" on="1"/>
        <pt x="435" y="442" on="0"/>
        <pt x="435" y="326" on="0"/>
        <pt x="426" y="259" on="1"/>
        <pt x="405" y="109" on="0"/>
        <pt x="310" y="-6" on="0"/>
        <pt x="103" y="-6" on="0"/>
        <pt x="72" y="52" on="1"/>
        <pt x="54" y="86" on="0"/>
        <pt x="54" y="198" on="0"/>
        <pt x="62" y="259" on="1"/>
        <pt x="84" y="419" on="0"/>
      </contour>
      <contour>
        <pt x="308" y="445" on="1"/>
        <pt x="240" y="445" on="0"/>
        <pt x="202" y="385" on="0"/>
        <pt x="171" y="164" on="0"/>
        <pt x="171" y="91" on="0"/>
        <pt x="180" y="84" on="0"/>
        <pt x="220" y="84" on="0"/>
        <pt x="255" y="91" on="0"/>
        <pt x="284" y="132" on="0"/>
        <pt x="297" y="193" on="0"/>
        <pt x="306" y="263" on="1"/>
        <pt x="320" y="366" on="0"/>
        <pt x="320" y="445" on="0"/>
      </contour>
    </TTGlyph>
    <TTGlyph name="O_smcptilde" xMin="61" yMin="-6" xMax="482" yMax="745">
      <contour>
        <pt x="459" y="644" on="1"/>
        <pt x="452" y="644" on="0"/>
        <pt x="377" y="644" on="0"/>
        <pt x="258" y="624" on="0"/>
        <pt x="158" y="624" on="0"/>
        <pt x="138" y="640" on="0"/>
        <pt x="138" y="666" on="0"/>
        <pt x="139" y="676" on="1"/>
        <pt x="171" y="727" on="1"/>
        <pt x="246" y="727" on="0"/>
        <pt x="347" y="745" on="0"/>
        <pt x="453" y="745" on="0"/>
        <pt x="482" y="726" on="0"/>
        <pt x="482" y="704" on="1"/>
        <pt x="482" y="697" on="0"/>
        <pt x="481" y="689" on="1"/>
      </contour>
      <contour>
        <pt x="184" y="531" on="0"/>
        <pt x="394" y="531" on="0"/>
        <pt x="424" y="475" on="1"/>
        <pt x="442" y="442" on="0"/>
        <pt x="442" y="326" on="0"/>
        <pt x="433" y="259" on="1"/>
        <pt x="412" y="109" on="0"/>
        <pt x="317" y="-6" on="0"/>
        <pt x="110" y="-6" on="0"/>
        <pt x="79" y="52" on="1"/>
        <pt x="61" y="86" on="0"/>
        <pt x="61" y="198" on="0"/>
        <pt x="69" y="259" on="1"/>
        <pt x="91" y="419" on="0"/>
      </contour>
      <contour>
        <pt x="315" y="445" on="1"/>
        <pt x="247" y="445" on="0"/>
        <pt x="209" y="385" on="0"/>
        <pt x="178" y="164" on="0"/>
        <pt x="178" y="91" on="0"/>
        <pt x="187" y="84" on="0"/>
        <pt x="227" y="84" on="0"/>
        <pt x="262" y="91" on="0"/>
        <pt x="291" y="132" on="0"/>
        <pt x="304" y="193" on="0"/>
        <pt x="314" y="263" on="1"/>
        <pt x="328" y="366" on="0"/>
        <pt x="328" y="445" on="0"/>
      </contour>
    </TTGlyph>
    <TTGlyph name="Oacute" xMin="62" yMin="-16" xMax="613" yMax="1024">
      <contour>
        <pt x="170" y="700" on="0"/>
        <pt x="289" y="768" on="0"/>
        <pt x="470" y="768" on="0"/>
        <pt x="560" y="733" on="0"/>
        <pt x="613" y="644" on="0"/>
        <pt x="613" y="493" on="0"/>
        <pt x="598" y="371" on="1"/>
        <pt x="567" y="152" on="0"/>
        <pt x="431" y="-16" on="0"/>
        <pt x="133" y="-16" on="0"/>
        <pt x="88" y="68" on="1"/>
        <pt x="62" y="118" on="0"/>
        <pt x="62" y="281" on="0"/>
        <pt x="75" y="371" on="1"/>
        <pt x="97" y="531" on="0"/>
      </contour>
      <contour>
        <pt x="434" y="662" on="1"/>
        <pt x="394" y="662" on="0"/>
        <pt x="344" y="655" on="0"/>
        <pt x="302" y="628" on="0"/>
        <pt x="279" y="595" on="0"/>
        <pt x="268" y="558" on="1"/>
        <pt x="253" y="508" on="0"/>
        <pt x="236" y="383" on="1"/>
        <pt x="214" y="232" on="0"/>
        <pt x="214" y="129" on="0"/>
        <pt x="227" y="96" on="0"/>
        <pt x="244" y="96" on="1"/>
        <pt x="285" y="96" on="0"/>
        <pt x="330" y="99" on="0"/>
        <pt x="375" y="122" on="0"/>
        <pt x="395" y="150" on="0"/>
        <pt x="406" y="186" on="1"/>
        <pt x="431" y="263" on="0"/>
        <pt x="455" y="474" on="1"/>
        <pt x="463" y="541" on="0"/>
        <pt x="463" y="662" on="0"/>
      </contour>
      <contour>
        <pt x="414" y="792" on="1"/>
        <pt x="371" y="813" on="1"/>
        <pt x="377" y="868" on="1"/>
        <pt x="452" y="992" on="1"/>
        <pt x="498" y="1024" on="1"/>
        <pt x="598" y="964" on="1"/>
      </contour>
    </TTGlyph>
    <TTGlyph name="Ocircumflex" xMin="69" yMin="-16" xMax="620" yMax="1024">
      <contour>
        <pt x="177" y="700" on="0"/>
        <pt x="296" y="768" on="0"/>
        <pt x="477" y="768" on="0"/>
        <pt x="567" y="733" on="0"/>
        <pt x="620" y="644" on="0"/>
        <pt x="620" y="493" on="0"/>
        <pt x="605" y="371" on="1"/>
        <pt x="574" y="152" on="0"/>
        <pt x="438" y="-16" on="0"/>
        <pt x="140" y="-16" on="0"/>
        <pt x="96" y="68" on="1"/>
        <pt x="69" y="118" on="0"/>
        <pt x="69" y="281" on="0"/>
        <pt x="82" y="371" on="1"/>
        <pt x="104" y="531" on="0"/>
      </contour>
      <contour>
        <pt x="441" y="662" on="1"/>
        <pt x="401" y="662" on="0"/>
        <pt x="351" y="655" on="0"/>
        <pt x="309" y="628" on="0"/>
        <pt x="286" y="595" on="0"/>
        <pt x="275" y="558" on="1"/>
        <pt x="260" y="508" on="0"/>
        <pt x="243" y="383" on="1"/>
        <pt x="221" y="232" on="0"/>
        <pt x="221" y="129" on="0"/>
        <pt x="234" y="96" on="0"/>
        <pt x="251" y="96" on="1"/>
        <pt x="292" y="96" on="0"/>
        <pt x="337" y="99" on="0"/>
        <pt x="382" y="122" on="0"/>
        <pt x="402" y="150" on="0"/>
        <pt x="414" y="186" on="1"/>
        <pt x="438" y="263" on="0"/>
        <pt x="462" y="474" on="1"/>
        <pt x="470" y="541" on="0"/>
        <pt x="470" y="662" on="0"/>
      </contour>
      <contour>
        <pt x="282" y="828" on="1"/>
        <pt x="247" y="860" on="1"/>
        <pt x="268" y="914" on="1"/>
        <pt x="383" y="1004" on="1"/>
        <pt x="434" y="1024" on="1"/>
        <pt x="481" y="1004" on="1"/>
        <pt x="570" y="914" on="1"/>
        <pt x="575" y="860" on="1"/>
        <pt x="532" y="828" on="1"/>
        <pt x="418" y="909" on="1"/>
      </contour>
    </TTGlyph>
    <TTGlyph name="Odieresis" xMin="70" yMin="-16" xMax="621" yMax="1024">
      <contour>
        <pt x="178" y="700" on="0"/>
        <pt x="297" y="768" on="0"/>
        <pt x="478" y="768" on="0"/>
        <pt x="568" y="733" on="0"/>
        <pt x="621" y="644" on="0"/>
        <pt x="621" y="493" on="0"/>
        <pt x="606" y="371" on="1"/>
        <pt x="575" y="152" on="0"/>
        <pt x="439" y="-16" on="0"/>
        <pt x="141" y="-16" on="0"/>
        <pt x="96" y="68" on="1"/>
        <pt x="70" y="118" on="0"/>
        <pt x="70" y="281" on="0"/>
        <pt x="83" y="371" on="1"/>
        <pt x="105" y="531" on="0"/>
      </contour>
      <contour>
        <pt x="442" y="662" on="1"/>
        <pt x="402" y="662" on="0"/>
        <pt x="352" y="655" on="0"/>
        <pt x="310" y="628" on="0"/>
        <pt x="287" y="595" on="0"/>
        <pt x="276" y="558" on="1"/>
        <pt x="261" y="508" on="0"/>
        <pt x="244" y="383" on="1"/>
        <pt x="222" y="232" on="0"/>
        <pt x="222" y="129" on="0"/>
        <pt x="235" y="96" on="0"/>
        <pt x="252" y="96" on="1"/>
        <pt x="293" y="96" on="0"/>
        <pt x="338" y="99" on="0"/>
        <pt x="383" y="122" on="0"/>
        <pt x="403" y="150" on="0"/>
        <pt x="414" y="186" on="1"/>
        <pt x="439" y="263" on="0"/>
        <pt x="463" y="474" on="1"/>
        <pt x="471" y="541" on="0"/>
        <pt x="471" y="662" on="0"/>
      </contour>
      <contour>
        <pt x="318" y="1024" on="1"/>
        <pt x="381" y="1024" on="0"/>
        <pt x="381" y="968" on="1"/>
        <pt x="381" y="961" on="0"/>
        <pt x="380" y="952" on="1"/>
        <pt x="370" y="880" on="0"/>
        <pt x="298" y="880" on="1"/>
        <pt x="235" y="880" on="0"/>
        <pt x="235" y="936" on="1"/>
        <pt x="235" y="943" on="0"/>
        <pt x="236" y="952" on="1"/>
        <pt x="246" y="1024" on="0"/>
      </contour>
      <contour>
        <pt x="552" y="1024" on="1"/>
        <pt x="615" y="1024" on="0"/>
        <pt x="615" y="968" on="1"/>
        <pt x="615" y="961" on="0"/>
        <pt x="614" y="952" on="1"/>
        <pt x="604" y="880" on="0"/>
        <pt x="532" y="880" on="1"/>
        <pt x="469" y="880" on="0"/>
        <pt x="469" y="936" on="1"/>
        <pt x="469" y="943" on="0"/>
        <pt x="470" y="952" on="1"/>
        <pt x="480" y="1024" on="0"/>
      </contour>
    </TTGlyph>
    <TTGlyph name="Ograve" xMin="70" yMin="-16" xMax="621" yMax="1024">
      <contour>
        <pt x="178" y="700" on="0"/>
        <pt x="297" y="768" on="0"/>
        <pt x="478" y="768" on="0"/>
        <pt x="568" y="733" on="0"/>
        <pt x="621" y="644" on="0"/>
        <pt x="621" y="493" on="0"/>
        <pt x="606" y="371" on="1"/>
        <pt x="575" y="152" on="0"/>
        <pt x="439" y="-16" on="0"/>
        <pt x="141" y="-16" on="0"/>
        <pt x="96" y="68" on="1"/>
        <pt x="70" y="118" on="0"/>
        <pt x="70" y="281" on="0"/>
        <pt x="83" y="371" on="1"/>
        <pt x="105" y="531" on="0"/>
      </contour>
      <contour>
        <pt x="442" y="662" on="1"/>
        <pt x="402" y="662" on="0"/>
        <pt x="352" y="655" on="0"/>
        <pt x="310" y="628" on="0"/>
        <pt x="287" y="595" on="0"/>
        <pt x="276" y="558" on="1"/>
        <pt x="261" y="508" on="0"/>
        <pt x="244" y="383" on="1"/>
        <pt x="222" y="232" on="0"/>
        <pt x="222" y="129" on="0"/>
        <pt x="235" y="96" on="0"/>
        <pt x="252" y="96" on="1"/>
        <pt x="293" y="96" on="0"/>
        <pt x="338" y="99" on="0"/>
        <pt x="383" y="122" on="0"/>
        <pt x="403" y="150" on="0"/>
        <pt x="414" y="186" on="1"/>
        <pt x="439" y="263" on="0"/>
        <pt x="463" y="474" on="1"/>
        <pt x="471" y="541" on="0"/>
        <pt x="471" y="662" on="0"/>
      </contour>
      <contour>
        <pt x="427" y="813" on="1"/>
        <pt x="378" y="792" on="1"/>
        <pt x="242" y="964" on="1"/>
        <pt x="358" y="1024" on="1"/>
        <pt x="396" y="992" on="1"/>
        <pt x="435" y="868" on="1"/>
      </contour>
    </TTGlyph>
    <TTGlyph name="Oslash" xMin="65" yMin="-146" xMax="617" yMax="876">
      <contour>
        <pt x="142" y="14" on="1"/>
        <pt x="65" y="61" on="0"/>
        <pt x="65" y="211" on="1"/>
        <pt x="65" y="279" on="0"/>
        <pt x="79" y="371" on="1"/>
        <pt x="101" y="530" on="0"/>
        <pt x="174" y="694" on="0"/>
        <pt x="291" y="756" on="0"/>
        <pt x="395" y="756" on="1"/>
        <pt x="432" y="755" on="1"/>
        <pt x="479" y="876" on="1"/>
        <pt x="584" y="876" on="1"/>
        <pt x="569" y="769" on="1"/>
        <pt x="551" y="724" on="1"/>
        <pt x="617" y="680" on="0"/>
        <pt x="617" y="542" on="1"/>
        <pt x="617" y="472" on="0"/>
        <pt x="603" y="371" on="1"/>
        <pt x="572" y="152" on="0"/>
        <pt x="436" y="-16" on="0"/>
        <pt x="286" y="-16" on="1"/>
        <pt x="272" y="-16" on="1"/>
        <pt x="224" y="-146" on="1"/>
        <pt x="88" y="-146" on="1"/>
        <pt x="92" y="-114" on="1"/>
      </contour>
      <contour>
        <pt x="257" y="478" on="1"/>
        <pt x="221" y="254" on="0"/>
        <pt x="221" y="156" on="1"/>
        <pt x="221" y="99" on="0"/>
        <pt x="248" y="99" on="1"/>
        <pt x="335" y="99" on="0"/>
        <pt x="364" y="118" on="1"/>
        <pt x="375" y="124" on="0"/>
        <pt x="399" y="156" on="0"/>
        <pt x="411" y="190" on="0"/>
        <pt x="418" y="222" on="1"/>
        <pt x="432" y="278" on="0"/>
        <pt x="446" y="381" on="1"/>
        <pt x="464" y="512" on="0"/>
        <pt x="464" y="612" on="0"/>
        <pt x="452" y="646" on="0"/>
        <pt x="435" y="646" on="1"/>
        <pt x="395" y="646" on="0"/>
        <pt x="348" y="641" on="0"/>
        <pt x="306" y="617" on="0"/>
        <pt x="285" y="588" on="0"/>
        <pt x="263" y="516" on="0"/>
      </contour>
    </TTGlyph>
    <TTGlyph name="Otilde" xMin="69" yMin="-16" xMax="620" yMax="985">
      <contour>
        <pt x="177" y="700" on="0"/>
        <pt x="296" y="768" on="0"/>
        <pt x="477" y="768" on="0"/>
        <pt x="567" y="733" on="0"/>
        <pt x="620" y="644" on="0"/>
        <pt x="620" y="493" on="0"/>
        <pt x="605" y="371" on="1"/>
        <pt x="574" y="152" on="0"/>
        <pt x="438" y="-16" on="0"/>
        <pt x="140" y="-16" on="0"/>
        <pt x="96" y="68" on="1"/>
        <pt x="69" y="118" on="0"/>
        <pt x="69" y="281" on="0"/>
        <pt x="82" y="371" on="1"/>
        <pt x="104" y="531" on="0"/>
      </contour>
      <contour>
        <pt x="441" y="662" on="1"/>
        <pt x="401" y="662" on="0"/>
        <pt x="351" y="655" on="0"/>
        <pt x="309" y="628" on="0"/>
        <pt x="286" y="595" on="0"/>
        <pt x="275" y="558" on="1"/>
        <pt x="260" y="508" on="0"/>
        <pt x="243" y="383" on="1"/>
        <pt x="221" y="232" on="0"/>
        <pt x="221" y="129" on="0"/>
        <pt x="234" y="96" on="0"/>
        <pt x="251" y="96" on="1"/>
        <pt x="292" y="96" on="0"/>
        <pt x="337" y="99" on="0"/>
        <pt x="382" y="122" on="0"/>
        <pt x="402" y="150" on="0"/>
        <pt x="414" y="186" on="1"/>
        <pt x="438" y="263" on="0"/>
        <pt x="462" y="474" on="1"/>
        <pt x="470" y="541" on="0"/>
        <pt x="470" y="662" on="0"/>
      </contour>
      <contour>
        <pt x="585" y="884" on="1"/>
        <pt x="578" y="884" on="0"/>
        <pt x="501" y="884" on="0"/>
        <pt x="352" y="864" on="0"/>
        <pt x="252" y="864" on="0"/>
        <pt x="231" y="881" on="0"/>
        <pt x="231" y="908" on="0"/>
        <pt x="232" y="916" on="1"/>
        <pt x="264" y="967" on="1"/>
        <pt x="339" y="967" on="0"/>
        <pt x="473" y="985" on="0"/>
        <pt x="579" y="985" on="0"/>
        <pt x="608" y="966" on="0"/>
        <pt x="608" y="944" on="1"/>
        <pt x="608" y="937" on="0"/>
        <pt x="607" y="929" on="1"/>
      </contour>
    </TTGlyph>
    <TTGlyph name="P" xMin="42" yMin="-16" xMax="545" yMax="768">
      <contour>
        <pt x="330" y="768" on="1"/>
        <pt x="466" y="768" on="0"/>
        <pt x="512" y="711" on="1"/>
        <pt x="545" y="670" on="0"/>
        <pt x="545" y="594" on="1"/>
        <pt x="545" y="513" on="0"/>
        <pt x="518" y="444" on="1"/>
        <pt x="489" y="367" on="0"/>
        <pt x="440" y="335" on="1"/>
        <pt x="389" y="301" on="0"/>
        <pt x="343" y="294" on="1"/>
        <pt x="284" y="284" on="0"/>
        <pt x="209" y="284" on="1"/>
        <pt x="173" y="23" on="1"/>
        <pt x="169" y="-3" on="0"/>
        <pt x="155" y="-16" on="0"/>
        <pt x="127" y="-16" on="1"/>
        <pt x="42" y="-16" on="0"/>
        <pt x="48" y="22" on="1"/>
        <pt x="150" y="752" on="1"/>
        <pt x="253" y="768" on="0"/>
      </contour>
      <contour>
        <pt x="231" y="427" on="1"/>
        <pt x="231" y="421" on="0"/>
        <pt x="239" y="421" on="1"/>
        <pt x="246" y="421" on="1"/>
        <pt x="290" y="421" on="0"/>
        <pt x="330" y="425" on="0"/>
        <pt x="372" y="446" on="0"/>
        <pt x="381" y="469" on="1"/>
        <pt x="399" y="514" on="0"/>
        <pt x="399" y="595" on="0"/>
        <pt x="381" y="649" on="0"/>
        <pt x="363" y="649" on="1"/>
        <pt x="292" y="649" on="0"/>
        <pt x="260" y="643" on="0"/>
        <pt x="257" y="626" on="1"/>
        <pt x="231" y="436" on="1"/>
      </contour>
    </TTGlyph>
    <TTGlyph name="P_smcp" xMin="34" yMin="-6" xMax="383" yMax="531">
      <contour>
        <pt x="232" y="531" on="1"/>
        <pt x="328" y="531" on="0"/>
        <pt x="360" y="492" on="1"/>
        <pt x="383" y="463" on="0"/>
        <pt x="383" y="410" on="1"/>
        <pt x="383" y="329" on="0"/>
        <pt x="350" y="273" on="1"/>
        <pt x="316" y="213" on="0"/>
        <pt x="232" y="199" on="1"/>
        <pt x="202" y="194" on="0"/>
        <pt x="159" y="194" on="1"/>
        <pt x="135" y="28" on="1"/>
        <pt x="133" y="6" on="0"/>
        <pt x="120" y="-6" on="0"/>
        <pt x="68" y="-6" on="0"/>
        <pt x="34" y="9" on="0"/>
        <pt x="36" y="28" on="1"/>
        <pt x="106" y="522" on="1"/>
        <pt x="173" y="531" on="0"/>
      </contour>
      <contour>
        <pt x="174" y="303" on="1"/>
        <pt x="174" y="301" on="0"/>
        <pt x="212" y="301" on="0"/>
        <pt x="226" y="304" on="1"/>
        <pt x="270" y="313" on="0"/>
        <pt x="270" y="391" on="1"/>
        <pt x="270" y="414" on="0"/>
        <pt x="258" y="436" on="0"/>
        <pt x="252" y="436" on="1"/>
        <pt x="211" y="436" on="0"/>
        <pt x="193" y="434" on="0"/>
        <pt x="192" y="430" on="1"/>
      </contour>
    </TTGlyph>
    <TTGlyph name="Q" xMin="71" yMin="-187" xMax="622" yMax="768">
      <contour>
        <pt x="179" y="700" on="0"/>
        <pt x="298" y="768" on="0"/>
        <pt x="479" y="768" on="0"/>
        <pt x="569" y="733" on="0"/>
        <pt x="622" y="644" on="0"/>
        <pt x="622" y="493" on="0"/>
        <pt x="607" y="371" on="1"/>
        <pt x="576" y="152" on="0"/>
        <pt x="440" y="-16" on="0"/>
        <pt x="142" y="-16" on="0"/>
        <pt x="98" y="68" on="1"/>
        <pt x="71" y="118" on="0"/>
        <pt x="71" y="281" on="0"/>
        <pt x="84" y="371" on="1"/>
        <pt x="106" y="531" on="0"/>
      </contour>
      <contour>
        <pt x="443" y="662" on="1"/>
        <pt x="403" y="662" on="0"/>
        <pt x="353" y="655" on="0"/>
        <pt x="311" y="628" on="0"/>
        <pt x="288" y="595" on="0"/>
        <pt x="277" y="558" on="1"/>
        <pt x="262" y="508" on="0"/>
        <pt x="245" y="383" on="1"/>
        <pt x="223" y="232" on="0"/>
        <pt x="223" y="129" on="0"/>
        <pt x="236" y="96" on="0"/>
        <pt x="253" y="96" on="1"/>
        <pt x="294" y="96" on="0"/>
        <pt x="339" y="99" on="0"/>
        <pt x="384" y="122" on="0"/>
        <pt x="404" y="150" on="0"/>
        <pt x="416" y="186" on="1"/>
        <pt x="440" y="263" on="0"/>
        <pt x="464" y="474" on="1"/>
        <pt x="472" y="541" on="0"/>
        <pt x="472" y="662" on="0"/>
      </contour>
      <contour>
        <pt x="490" y="-165" on="0"/>
        <pt x="457" y="-187" on="0"/>
        <pt x="367" y="-187" on="0"/>
        <pt x="159" y="-165" on="0"/>
        <pt x="103" y="-165" on="1"/>
        <pt x="94" y="-116" on="1"/>
        <pt x="103" y="-56" on="0"/>
        <pt x="173" y="-56" on="1"/>
        <pt x="223" y="-56" on="0"/>
        <pt x="423" y="-76" on="0"/>
        <pt x="478" y="-76" on="1"/>
        <pt x="495" y="-133" on="1"/>
      </contour>
    </TTGlyph>
    <TTGlyph name="Q_smcp" xMin="51" yMin="-136" xMax="432" yMax="531">
      <contour>
        <pt x="174" y="531" on="0"/>
        <pt x="384" y="531" on="0"/>
        <pt x="414" y="475" on="1"/>
        <pt x="432" y="442" on="0"/>
        <pt x="432" y="326" on="0"/>
        <pt x="423" y="259" on="1"/>
        <pt x="402" y="109" on="0"/>
        <pt x="307" y="-6" on="0"/>
        <pt x="100" y="-6" on="0"/>
        <pt x="69" y="52" on="1"/>
        <pt x="51" y="86" on="0"/>
        <pt x="51" y="198" on="0"/>
        <pt x="59" y="259" on="1"/>
        <pt x="81" y="419" on="0"/>
      </contour>
      <contour>
        <pt x="305" y="445" on="1"/>
        <pt x="237" y="445" on="0"/>
        <pt x="199" y="384" on="0"/>
        <pt x="168" y="164" on="0"/>
        <pt x="168" y="91" on="0"/>
        <pt x="177" y="84" on="0"/>
        <pt x="217" y="84" on="0"/>
        <pt x="252" y="91" on="0"/>
        <pt x="281" y="132" on="0"/>
        <pt x="294" y="193" on="0"/>
        <pt x="304" y="263" on="1"/>
        <pt x="318" y="366" on="0"/>
        <pt x="318" y="445" on="0"/>
      </contour>
      <contour>
        <pt x="342" y="-117" on="0"/>
        <pt x="316" y="-136" on="0"/>
        <pt x="251" y="-136" on="0"/>
        <pt x="109" y="-121" on="0"/>
        <pt x="70" y="-121" on="1"/>
        <pt x="63" y="-82" on="1"/>
        <pt x="71" y="-33" on="0"/>
        <pt x="125" y="-33" on="1"/>
        <pt x="159" y="-33" on="0"/>
        <pt x="297" y="-47" on="0"/>
        <pt x="335" y="-47" on="1"/>
        <pt x="346" y="-90" on="1"/>
      </contour>
    </TTGlyph>
    <TTGlyph name="R" xMin="48" yMin="-16" xMax="548" yMax="768">
      <contour>
        <pt x="329" y="768" on="1"/>
        <pt x="468" y="768" on="0"/>
        <pt x="514" y="716" on="1"/>
        <pt x="548" y="678" on="0"/>
        <pt x="548" y="604" on="1"/>
        <pt x="548" y="576" on="0"/>
        <pt x="543" y="544" on="1"/>
        <pt x="520" y="377" on="0"/>
        <pt x="417" y="320" on="1"/>
        <pt x="503" y="35" on="1"/>
        <pt x="509" y="14" on="0"/>
        <pt x="509" y="-4" on="0"/>
        <pt x="507" y="-7" on="1"/>
        <pt x="501" y="-16" on="0"/>
        <pt x="471" y="-16" on="1"/>
        <pt x="374" y="-16" on="0"/>
        <pt x="363" y="22" on="1"/>
        <pt x="286" y="286" on="1"/>
        <pt x="260" y="284" on="0"/>
        <pt x="210" y="284" on="1"/>
        <pt x="174" y="26" on="1"/>
        <pt x="170" y="-2" on="0"/>
        <pt x="157" y="-16" on="0"/>
        <pt x="128" y="-16" on="1"/>
        <pt x="48" y="-16" on="0"/>
        <pt x="48" y="19" on="1"/>
        <pt x="48" y="21" on="0"/>
        <pt x="48" y="24" on="1"/>
        <pt x="150" y="752" on="1"/>
        <pt x="254" y="768" on="0"/>
      </contour>
      <contour>
        <pt x="232" y="427" on="1"/>
        <pt x="232" y="421" on="0"/>
        <pt x="239" y="421" on="1"/>
        <pt x="246" y="421" on="1"/>
        <pt x="326" y="421" on="0"/>
        <pt x="388" y="466" on="0"/>
        <pt x="399" y="545" on="1"/>
        <pt x="402" y="563" on="0"/>
        <pt x="402" y="604" on="0"/>
        <pt x="394" y="621" on="1"/>
        <pt x="383" y="649" on="0"/>
        <pt x="364" y="649" on="1"/>
        <pt x="292" y="649" on="0"/>
        <pt x="261" y="643" on="0"/>
        <pt x="258" y="626" on="1"/>
        <pt x="232" y="436" on="1"/>
      </contour>
    </TTGlyph>
    <TTGlyph name="R_smcp" xMin="31" yMin="-6" xMax="384" yMax="531">
      <contour>
        <pt x="231" y="531" on="1"/>
        <pt x="328" y="531" on="0"/>
        <pt x="360" y="495" on="1"/>
        <pt x="384" y="469" on="0"/>
        <pt x="384" y="417" on="1"/>
        <pt x="384" y="398" on="0"/>
        <pt x="381" y="375" on="1"/>
        <pt x="367" y="269" on="0"/>
        <pt x="298" y="224" on="1"/>
        <pt x="359" y="27" on="0"/>
        <pt x="359" y="-6" on="0"/>
        <pt x="325" y="-6" on="1"/>
        <pt x="252" y="-6" on="0"/>
        <pt x="244" y="24" on="1"/>
        <pt x="194" y="195" on="1"/>
        <pt x="181" y="194" on="0"/>
        <pt x="159" y="194" on="1"/>
        <pt x="136" y="30" on="1"/>
        <pt x="133" y="7" on="0"/>
        <pt x="121" y="-6" on="0"/>
        <pt x="96" y="-6" on="1"/>
        <pt x="31" y="-6" on="0"/>
        <pt x="36" y="29" on="1"/>
        <pt x="105" y="522" on="1"/>
        <pt x="174" y="531" on="0"/>
      </contour>
      <contour>
        <pt x="177" y="301" on="1"/>
        <pt x="225" y="301" on="0"/>
        <pt x="263" y="328" on="0"/>
        <pt x="269" y="375" on="1"/>
        <pt x="271" y="386" on="0"/>
        <pt x="271" y="403" on="0"/>
        <pt x="269" y="413" on="1"/>
        <pt x="265" y="436" on="0"/>
        <pt x="252" y="436" on="1"/>
        <pt x="211" y="436" on="0"/>
        <pt x="193" y="434" on="0"/>
        <pt x="192" y="430" on="1"/>
        <pt x="174" y="303" on="1"/>
        <pt x="174" y="301" on="0"/>
      </contour>
    </TTGlyph>
    <TTGlyph name="S" xMin="43" yMin="-16" xMax="538" yMax="768">
      <contour>
        <pt x="58" y="73" on="1"/>
        <pt x="43" y="96" on="0"/>
        <pt x="43" y="124" on="0"/>
        <pt x="98" y="173" on="0"/>
        <pt x="113" y="177" on="0"/>
        <pt x="127" y="177" on="0"/>
        <pt x="142" y="168" on="1"/>
        <pt x="209" y="110" on="0"/>
        <pt x="320" y="110" on="0"/>
        <pt x="362" y="163" on="0"/>
        <pt x="368" y="210" on="1"/>
        <pt x="369" y="216" on="0"/>
        <pt x="369" y="221" on="1"/>
        <pt x="369" y="250" on="0"/>
        <pt x="320" y="298" on="0"/>
        <pt x="194" y="372" on="0"/>
        <pt x="115" y="480" on="0"/>
        <pt x="115" y="531" on="1"/>
        <pt x="115" y="542" on="0"/>
        <pt x="117" y="553" on="1"/>
        <pt x="133" y="665" on="0"/>
        <pt x="264" y="768" on="0"/>
        <pt x="377" y="768" on="1"/>
        <pt x="446" y="768" on="0"/>
        <pt x="508" y="735" on="1"/>
        <pt x="521" y="729" on="0"/>
        <pt x="526" y="725" on="1"/>
        <pt x="538" y="717" on="0"/>
        <pt x="538" y="697" on="0"/>
        <pt x="532" y="688" on="1"/>
        <pt x="505" y="634" on="0"/>
        <pt x="491" y="624" on="0"/>
        <pt x="471" y="624" on="0"/>
        <pt x="384" y="657" on="0"/>
        <pt x="322" y="657" on="0"/>
        <pt x="274" y="613" on="0"/>
        <pt x="268" y="572" on="1"/>
        <pt x="267" y="566" on="0"/>
        <pt x="267" y="560" on="1"/>
        <pt x="267" y="528" on="0"/>
        <pt x="326" y="468" on="0"/>
        <pt x="395" y="433" on="1"/>
        <pt x="469" y="392" on="0"/>
        <pt x="527" y="314" on="0"/>
        <pt x="527" y="263" on="1"/>
        <pt x="527" y="247" on="0"/>
        <pt x="525" y="230" on="1"/>
        <pt x="490" y="-16" on="0"/>
        <pt x="282" y="-16" on="1"/>
        <pt x="127" y="-16" on="0"/>
      </contour>
    </TTGlyph>
    <TTGlyph name="S_smcp" xMin="30" yMin="-6" xMax="374" yMax="531">
      <contour>
        <pt x="108" y="131" on="1"/>
        <pt x="153" y="94" on="0"/>
        <pt x="219" y="94" on="0"/>
        <pt x="231" y="110" on="1"/>
        <pt x="247" y="131" on="0"/>
        <pt x="247" y="175" on="0"/>
        <pt x="214" y="206" on="0"/>
        <pt x="132" y="252" on="0"/>
        <pt x="79" y="330" on="0"/>
        <pt x="79" y="366" on="1"/>
        <pt x="79" y="373" on="0"/>
        <pt x="80" y="381" on="1"/>
        <pt x="91" y="460" on="0"/>
        <pt x="181" y="531" on="0"/>
        <pt x="261" y="531" on="1"/>
        <pt x="298" y="531" on="0"/>
        <pt x="327" y="522" on="1"/>
        <pt x="374" y="508" on="0"/>
        <pt x="374" y="482" on="1"/>
        <pt x="374" y="476" on="0"/>
        <pt x="371" y="469" on="1"/>
        <pt x="353" y="433" on="0"/>
        <pt x="340" y="426" on="1"/>
        <pt x="334" y="422" on="0"/>
        <pt x="315" y="422" on="0"/>
        <pt x="259" y="442" on="0"/>
        <pt x="225" y="442" on="0"/>
        <pt x="212" y="430" on="1"/>
        <pt x="194" y="415" on="0"/>
        <pt x="194" y="368" on="0"/>
        <pt x="232" y="332" on="0"/>
        <pt x="277" y="309" on="1"/>
        <pt x="328" y="279" on="0"/>
        <pt x="368" y="226" on="0"/>
        <pt x="368" y="191" on="1"/>
        <pt x="368" y="179" on="0"/>
        <pt x="366" y="165" on="1"/>
        <pt x="341" y="-6" on="0"/>
        <pt x="196" y="-6" on="1"/>
        <pt x="116" y="-6" on="0"/>
        <pt x="58" y="34" on="1"/>
        <pt x="30" y="54" on="0"/>
        <pt x="30" y="80" on="1"/>
        <pt x="30" y="84" on="0"/>
        <pt x="32" y="101" on="0"/>
        <pt x="69" y="139" on="0"/>
        <pt x="94" y="142" on="0"/>
      </contour>
    </TTGlyph>
    <TTGlyph name="Scaron" xMin="43" yMin="-16" xMax="561" yMax="1033">
      <contour>
        <pt x="233" y="1001" on="1"/>
        <pt x="277" y="1033" on="1"/>
        <pt x="390" y="951" on="1"/>
        <pt x="527" y="1033" on="1"/>
        <pt x="561" y="1001" on="1"/>
        <pt x="541" y="947" on="1"/>
        <pt x="426" y="857" on="1"/>
        <pt x="374" y="837" on="1"/>
        <pt x="328" y="857" on="1"/>
        <pt x="239" y="947" on="1"/>
      </contour>
      <contour>
        <pt x="58" y="73" on="1"/>
        <pt x="43" y="96" on="0"/>
        <pt x="43" y="124" on="0"/>
        <pt x="98" y="173" on="0"/>
        <pt x="113" y="177" on="0"/>
        <pt x="127" y="177" on="0"/>
        <pt x="142" y="168" on="1"/>
        <pt x="209" y="110" on="0"/>
        <pt x="320" y="110" on="0"/>
        <pt x="362" y="163" on="0"/>
        <pt x="368" y="210" on="1"/>
        <pt x="369" y="216" on="0"/>
        <pt x="369" y="221" on="1"/>
        <pt x="369" y="250" on="0"/>
        <pt x="320" y="298" on="0"/>
        <pt x="194" y="372" on="0"/>
        <pt x="115" y="480" on="0"/>
        <pt x="115" y="531" on="1"/>
        <pt x="115" y="542" on="0"/>
        <pt x="117" y="553" on="1"/>
        <pt x="133" y="665" on="0"/>
        <pt x="264" y="768" on="0"/>
        <pt x="377" y="768" on="1"/>
        <pt x="446" y="768" on="0"/>
        <pt x="508" y="735" on="1"/>
        <pt x="521" y="729" on="0"/>
        <pt x="526" y="725" on="1"/>
        <pt x="538" y="717" on="0"/>
        <pt x="538" y="697" on="0"/>
        <pt x="532" y="688" on="1"/>
        <pt x="505" y="634" on="0"/>
        <pt x="491" y="624" on="0"/>
        <pt x="471" y="624" on="0"/>
        <pt x="384" y="657" on="0"/>
        <pt x="322" y="657" on="0"/>
        <pt x="274" y="613" on="0"/>
        <pt x="268" y="572" on="1"/>
        <pt x="267" y="566" on="0"/>
        <pt x="267" y="560" on="1"/>
        <pt x="267" y="528" on="0"/>
        <pt x="326" y="468" on="0"/>
        <pt x="395" y="433" on="1"/>
        <pt x="469" y="392" on="0"/>
        <pt x="527" y="314" on="0"/>
        <pt x="527" y="263" on="1"/>
        <pt x="527" y="247" on="0"/>
        <pt x="525" y="230" on="1"/>
        <pt x="490" y="-16" on="0"/>
        <pt x="282" y="-16" on="1"/>
        <pt x="127" y="-16" on="0"/>
      </contour>
    </TTGlyph>
    <TTGlyph name="T" xMin="102" yMin="-16" xMax="564" yMax="752">
      <contour>
        <pt x="510" y="752" on="1"/>
        <pt x="564" y="752" on="0"/>
        <pt x="564" y="725" on="1"/>
        <pt x="564" y="632" on="0"/>
        <pt x="503" y="632" on="1"/>
        <pt x="391" y="633" on="1"/>
        <pt x="372" y="430" on="1"/>
        <pt x="316" y="23" on="1"/>
        <pt x="312" y="-3" on="0"/>
        <pt x="298" y="-16" on="0"/>
        <pt x="270" y="-16" on="1"/>
        <pt x="169" y="-16" on="0"/>
        <pt x="174" y="21" on="1"/>
        <pt x="260" y="632" on="1"/>
        <pt x="135" y="632" on="1"/>
        <pt x="111" y="633" on="0"/>
        <pt x="102" y="652" on="0"/>
        <pt x="102" y="668" on="1"/>
        <pt x="102" y="752" on="0"/>
        <pt x="146" y="752" on="1"/>
      </contour>
    </TTGlyph>
    <TTGlyph name="T_i" xMin="106" yMin="-16" xMax="693" yMax="752">
      <contour>
        <pt x="639" y="752" on="1"/>
        <pt x="693" y="752" on="0"/>
        <pt x="693" y="725" on="1"/>
        <pt x="693" y="632" on="0"/>
        <pt x="632" y="632" on="1"/>
        <pt x="395" y="633" on="1"/>
        <pt x="376" y="430" on="1"/>
        <pt x="320" y="23" on="1"/>
        <pt x="316" y="-3" on="0"/>
        <pt x="302" y="-16" on="0"/>
        <pt x="274" y="-16" on="1"/>
        <pt x="173" y="-16" on="0"/>
        <pt x="178" y="21" on="1"/>
        <pt x="264" y="632" on="1"/>
        <pt x="139" y="632" on="1"/>
        <pt x="115" y="633" on="0"/>
        <pt x="106" y="652" on="0"/>
        <pt x="106" y="668" on="1"/>
        <pt x="106" y="752" on="0"/>
        <pt x="150" y="752" on="1"/>
      </contour>
      <contour>
        <pt x="502" y="496" on="1"/>
        <pt x="504" y="512" on="0"/>
        <pt x="576" y="512" on="0"/>
        <pt x="639" y="502" on="0"/>
        <pt x="638" y="496" on="1"/>
        <pt x="569" y="0" on="1"/>
        <pt x="568" y="-6" on="0"/>
        <pt x="566" y="-8" on="1"/>
        <pt x="560" y="-16" on="0"/>
        <pt x="506" y="-16" on="0"/>
        <pt x="484" y="-14" on="1"/>
        <pt x="431" y="-9" on="0"/>
        <pt x="433" y="0" on="1"/>
      </contour>
    </TTGlyph>
    <TTGlyph name="T_iacute" xMin="106" yMin="-16" xMax="768" yMax="752">
      <contour>
        <pt x="106" y="668" on="1"/>
        <pt x="106" y="752" on="0"/>
        <pt x="150" y="752" on="1"/>
        <pt x="639" y="752" on="1"/>
        <pt x="659" y="752" on="0"/>
        <pt x="704" y="732" on="0"/>
        <pt x="768" y="692" on="1"/>
        <pt x="602" y="533" on="1"/>
        <pt x="559" y="554" on="1"/>
        <pt x="566" y="609" on="1"/>
        <pt x="579" y="632" on="1"/>
        <pt x="395" y="633" on="1"/>
        <pt x="376" y="430" on="1"/>
        <pt x="320" y="23" on="1"/>
        <pt x="316" y="-3" on="0"/>
        <pt x="302" y="-16" on="0"/>
        <pt x="274" y="-16" on="1"/>
        <pt x="173" y="-16" on="0"/>
        <pt x="178" y="21" on="1"/>
        <pt x="264" y="632" on="1"/>
        <pt x="139" y="632" on="1"/>
        <pt x="115" y="633" on="0"/>
        <pt x="106" y="652" on="0"/>
      </contour>
      <contour>
        <pt x="502" y="496" on="1"/>
        <pt x="504" y="512" on="0"/>
        <pt x="576" y="512" on="0"/>
        <pt x="639" y="502" on="0"/>
        <pt x="638" y="496" on="1"/>
        <pt x="569" y="0" on="1"/>
        <pt x="568" y="-6" on="0"/>
        <pt x="566" y="-8" on="1"/>
        <pt x="560" y="-16" on="0"/>
        <pt x="506" y="-16" on="0"/>
        <pt x="484" y="-14" on="1"/>
        <pt x="431" y="-9" on="0"/>
        <pt x="433" y="0" on="1"/>
      </contour>
    </TTGlyph>
    <TTGlyph name="T_igrave" xMin="106" yMin="-16" xMax="637" yMax="752">
      <contour>
        <pt x="106" y="668" on="1"/>
        <pt x="106" y="752" on="0"/>
        <pt x="150" y="752" on="1"/>
        <pt x="504" y="752" on="1"/>
        <pt x="536" y="752" on="0"/>
        <pt x="568" y="705" on="0"/>
        <pt x="596" y="609" on="1"/>
        <pt x="587" y="554" on="1"/>
        <pt x="538" y="533" on="1"/>
        <pt x="460" y="632" on="1"/>
        <pt x="395" y="633" on="1"/>
        <pt x="376" y="430" on="1"/>
        <pt x="320" y="23" on="1"/>
        <pt x="316" y="-3" on="0"/>
        <pt x="302" y="-16" on="0"/>
        <pt x="274" y="-16" on="1"/>
        <pt x="173" y="-16" on="0"/>
        <pt x="178" y="21" on="1"/>
        <pt x="264" y="632" on="1"/>
        <pt x="139" y="632" on="1"/>
        <pt x="115" y="633" on="0"/>
        <pt x="106" y="652" on="0"/>
      </contour>
      <contour>
        <pt x="500" y="496" on="1"/>
        <pt x="502" y="512" on="0"/>
        <pt x="574" y="512" on="0"/>
        <pt x="637" y="502" on="0"/>
        <pt x="636" y="496" on="1"/>
        <pt x="567" y="0" on="1"/>
        <pt x="566" y="-6" on="0"/>
        <pt x="564" y="-8" on="1"/>
        <pt x="558" y="-16" on="0"/>
        <pt x="504" y="-16" on="0"/>
        <pt x="482" y="-14" on="1"/>
        <pt x="429" y="-9" on="0"/>
        <pt x="431" y="0" on="1"/>
      </contour>
    </TTGlyph>
    <TTGlyph name="T_smcp" xMin="70" yMin="-6" xMax="392" yMax="522">
      <contour>
        <pt x="70" y="455" on="1"/>
        <pt x="70" y="522" on="0"/>
        <pt x="107" y="522" on="1"/>
        <pt x="351" y="522" on="1"/>
        <pt x="378" y="522" on="0"/>
        <pt x="392" y="508" on="0"/>
        <pt x="392" y="496" on="0"/>
        <pt x="392" y="493" on="1"/>
        <pt x="381" y="427" on="0"/>
        <pt x="345" y="427" on="1"/>
        <pt x="278" y="427" on="1"/>
        <pt x="267" y="299" on="1"/>
        <pt x="228" y="28" on="1"/>
        <pt x="226" y="6" on="0"/>
        <pt x="214" y="-6" on="0"/>
        <pt x="160" y="-6" on="0"/>
        <pt x="116" y="9" on="0"/>
        <pt x="118" y="27" on="1"/>
        <pt x="175" y="427" on="1"/>
        <pt x="98" y="427" on="1"/>
        <pt x="79" y="427" on="0"/>
        <pt x="70" y="442" on="0"/>
      </contour>
    </TTGlyph>
    <TTGlyph name="Thorn" xMin="45" yMin="-16" xMax="495" yMax="771">
      <contour>
        <pt x="179" y="0" on="1"/>
        <pt x="178" y="-6" on="1"/>
        <pt x="178" y="-11" on="0"/>
        <pt x="168" y="-14" on="1"/>
        <pt x="165" y="-14" on="0"/>
        <pt x="157" y="-16" on="0"/>
        <pt x="152" y="-16" on="1"/>
        <pt x="140" y="-16" on="1"/>
        <pt x="91" y="-16" on="0"/>
        <pt x="45" y="-4" on="0"/>
        <pt x="46" y="0" on="1"/>
        <pt x="152" y="755" on="1"/>
        <pt x="154" y="771" on="0"/>
        <pt x="226" y="771" on="0"/>
        <pt x="286" y="761" on="0"/>
        <pt x="285" y="755" on="1"/>
        <pt x="267" y="627" on="1"/>
        <pt x="315" y="627" on="1"/>
        <pt x="435" y="627" on="0"/>
        <pt x="472" y="574" on="1"/>
        <pt x="495" y="540" on="0"/>
        <pt x="495" y="425" on="0"/>
        <pt x="487" y="371" on="1"/>
        <pt x="465" y="220" on="0"/>
        <pt x="379" y="99" on="0"/>
        <pt x="305" y="99" on="1"/>
        <pt x="276" y="99" on="0"/>
        <pt x="194" y="110" on="1"/>
      </contour>
      <contour>
        <pt x="302" y="195" on="1"/>
        <pt x="317" y="195" on="0"/>
        <pt x="340" y="352" on="1"/>
        <pt x="351" y="427" on="0"/>
        <pt x="351" y="490" on="0"/>
        <pt x="347" y="502" on="1"/>
        <pt x="338" y="531" on="0"/>
        <pt x="301" y="531" on="1"/>
        <pt x="253" y="531" on="1"/>
        <pt x="206" y="195" on="1"/>
      </contour>
    </TTGlyph>
    <TTGlyph name="U" xMin="79" yMin="-16" xMax="596" yMax="768">
      <contour>
        <pt x="246" y="109" on="1"/>
        <pt x="281" y="109" on="0"/>
        <pt x="320" y="112" on="0"/>
        <pt x="358" y="133" on="0"/>
        <pt x="376" y="161" on="0"/>
        <pt x="397" y="228" on="0"/>
        <pt x="409" y="302" on="0"/>
        <pt x="419" y="370" on="1"/>
        <pt x="468" y="722" on="1"/>
        <pt x="472" y="750" on="0"/>
        <pt x="498" y="768" on="0"/>
        <pt x="574" y="768" on="0"/>
        <pt x="596" y="747" on="0"/>
        <pt x="596" y="709" on="0"/>
        <pt x="595" y="698" on="1"/>
        <pt x="569" y="429" on="1"/>
        <pt x="546" y="252" on="0"/>
        <pt x="476" y="62" on="0"/>
        <pt x="367" y="-16" on="0"/>
        <pt x="274" y="-16" on="1"/>
        <pt x="140" y="-16" on="0"/>
        <pt x="101" y="68" on="1"/>
        <pt x="79" y="115" on="0"/>
        <pt x="79" y="273" on="0"/>
        <pt x="93" y="370" on="1"/>
        <pt x="139" y="700" on="1"/>
        <pt x="145" y="743" on="0"/>
        <pt x="173" y="768" on="0"/>
        <pt x="251" y="768" on="0"/>
        <pt x="271" y="745" on="0"/>
        <pt x="271" y="705" on="0"/>
        <pt x="270" y="690" on="1"/>
        <pt x="248" y="431" on="1"/>
        <pt x="222" y="248" on="0"/>
        <pt x="222" y="109" on="0"/>
      </contour>
    </TTGlyph>
    <TTGlyph name="U_smcp" xMin="56" yMin="-6" xMax="415" yMax="531">
      <contour>
        <pt x="185" y="300" on="1"/>
        <pt x="166" y="169" on="0"/>
        <pt x="166" y="93" on="0"/>
        <pt x="175" y="93" on="1"/>
        <pt x="207" y="93" on="0"/>
        <pt x="236" y="99" on="0"/>
        <pt x="261" y="138" on="0"/>
        <pt x="272" y="194" on="0"/>
        <pt x="281" y="258" on="1"/>
        <pt x="314" y="494" on="1"/>
        <pt x="317" y="517" on="0"/>
        <pt x="338" y="531" on="0"/>
        <pt x="400" y="531" on="0"/>
        <pt x="415" y="517" on="0"/>
        <pt x="415" y="488" on="0"/>
        <pt x="414" y="477" on="1"/>
        <pt x="397" y="299" on="1"/>
        <pt x="373" y="120" on="0"/>
        <pt x="288" y="-6" on="0"/>
        <pt x="99" y="-6" on="0"/>
        <pt x="72" y="51" on="1"/>
        <pt x="56" y="83" on="0"/>
        <pt x="56" y="193" on="0"/>
        <pt x="65" y="258" on="1"/>
        <pt x="96" y="479" on="1"/>
        <pt x="101" y="513" on="0"/>
        <pt x="122" y="531" on="0"/>
        <pt x="184" y="531" on="0"/>
        <pt x="200" y="515" on="0"/>
        <pt x="200" y="484" on="0"/>
        <pt x="199" y="472" on="1"/>
      </contour>
    </TTGlyph>
    <TTGlyph name="U_smcpacute" xMin="53" yMin="-6" xMax="450" yMax="784">
      <contour>
        <pt x="266" y="552" on="1"/>
        <pt x="223" y="573" on="1"/>
        <pt x="230" y="628" on="1"/>
        <pt x="304" y="752" on="1"/>
        <pt x="351" y="784" on="1"/>
        <pt x="450" y="724" on="1"/>
      </contour>
      <contour>
        <pt x="182" y="300" on="1"/>
        <pt x="163" y="169" on="0"/>
        <pt x="163" y="93" on="0"/>
        <pt x="172" y="93" on="1"/>
        <pt x="204" y="93" on="0"/>
        <pt x="233" y="99" on="0"/>
        <pt x="258" y="138" on="0"/>
        <pt x="269" y="194" on="0"/>
        <pt x="278" y="258" on="1"/>
        <pt x="311" y="494" on="1"/>
        <pt x="314" y="517" on="0"/>
        <pt x="335" y="531" on="0"/>
        <pt x="397" y="531" on="0"/>
        <pt x="412" y="517" on="0"/>
        <pt x="412" y="488" on="0"/>
        <pt x="411" y="477" on="1"/>
        <pt x="394" y="299" on="1"/>
        <pt x="370" y="120" on="0"/>
        <pt x="285" y="-6" on="0"/>
        <pt x="96" y="-6" on="0"/>
        <pt x="68" y="51" on="1"/>
        <pt x="53" y="83" on="0"/>
        <pt x="53" y="193" on="0"/>
        <pt x="62" y="258" on="1"/>
        <pt x="93" y="479" on="1"/>
        <pt x="98" y="513" on="0"/>
        <pt x="119" y="531" on="0"/>
        <pt x="181" y="531" on="0"/>
        <pt x="197" y="515" on="0"/>
        <pt x="197" y="484" on="0"/>
        <pt x="196" y="472" on="1"/>
      </contour>
    </TTGlyph>
    <TTGlyph name="U_smcpcircunflex" xMin="69" yMin="-6" xMax="456" yMax="784">
      <contour>
        <pt x="162" y="588" on="1"/>
        <pt x="128" y="620" on="1"/>
        <pt x="148" y="674" on="1"/>
        <pt x="263" y="764" on="1"/>
        <pt x="315" y="784" on="1"/>
        <pt x="361" y="764" on="1"/>
        <pt x="450" y="674" on="1"/>
        <pt x="456" y="620" on="1"/>
        <pt x="412" y="588" on="1"/>
        <pt x="299" y="669" on="1"/>
      </contour>
      <contour>
        <pt x="198" y="300" on="1"/>
        <pt x="179" y="169" on="0"/>
        <pt x="179" y="93" on="0"/>
        <pt x="188" y="93" on="1"/>
        <pt x="220" y="93" on="0"/>
        <pt x="249" y="99" on="0"/>
        <pt x="274" y="138" on="0"/>
        <pt x="285" y="194" on="0"/>
        <pt x="294" y="258" on="1"/>
        <pt x="327" y="494" on="1"/>
        <pt x="330" y="517" on="0"/>
        <pt x="351" y="531" on="0"/>
        <pt x="413" y="531" on="0"/>
        <pt x="428" y="517" on="0"/>
        <pt x="428" y="488" on="0"/>
        <pt x="427" y="477" on="1"/>
        <pt x="410" y="299" on="1"/>
        <pt x="386" y="120" on="0"/>
        <pt x="301" y="-6" on="0"/>
        <pt x="112" y="-6" on="0"/>
        <pt x="84" y="51" on="1"/>
        <pt x="69" y="83" on="0"/>
        <pt x="69" y="193" on="0"/>
        <pt x="78" y="258" on="1"/>
        <pt x="109" y="479" on="1"/>
        <pt x="114" y="513" on="0"/>
        <pt x="135" y="531" on="0"/>
        <pt x="197" y="531" on="0"/>
        <pt x="213" y="515" on="0"/>
        <pt x="213" y="484" on="0"/>
        <pt x="212" y="472" on="1"/>
      </contour>
    </TTGlyph>
    <TTGlyph name="U_smcpdieresis" xMin="93" yMin="-6" xMax="513" yMax="784">
      <contour>
        <pt x="216" y="784" on="1"/>
        <pt x="279" y="784" on="0"/>
        <pt x="279" y="727" on="1"/>
        <pt x="279" y="720" on="0"/>
        <pt x="278" y="712" on="1"/>
        <pt x="268" y="640" on="0"/>
        <pt x="195" y="640" on="1"/>
        <pt x="133" y="640" on="0"/>
        <pt x="133" y="695" on="1"/>
        <pt x="133" y="703" on="0"/>
        <pt x="134" y="712" on="1"/>
        <pt x="143" y="784" on="0"/>
      </contour>
      <contour>
        <pt x="450" y="784" on="1"/>
        <pt x="513" y="784" on="0"/>
        <pt x="513" y="727" on="1"/>
        <pt x="513" y="720" on="0"/>
        <pt x="512" y="712" on="1"/>
        <pt x="502" y="640" on="0"/>
        <pt x="429" y="640" on="1"/>
        <pt x="367" y="640" on="0"/>
        <pt x="367" y="695" on="1"/>
        <pt x="367" y="703" on="0"/>
        <pt x="368" y="712" on="1"/>
        <pt x="377" y="784" on="0"/>
      </contour>
      <contour>
        <pt x="222" y="300" on="1"/>
        <pt x="203" y="169" on="0"/>
        <pt x="203" y="93" on="0"/>
        <pt x="212" y="93" on="1"/>
        <pt x="244" y="93" on="0"/>
        <pt x="273" y="99" on="0"/>
        <pt x="298" y="138" on="0"/>
        <pt x="309" y="194" on="0"/>
        <pt x="318" y="258" on="1"/>
        <pt x="351" y="494" on="1"/>
        <pt x="354" y="517" on="0"/>
        <pt x="375" y="531" on="0"/>
        <pt x="437" y="531" on="0"/>
        <pt x="452" y="517" on="0"/>
        <pt x="452" y="488" on="0"/>
        <pt x="451" y="477" on="1"/>
        <pt x="434" y="299" on="1"/>
        <pt x="410" y="120" on="0"/>
        <pt x="325" y="-6" on="0"/>
        <pt x="136" y="-6" on="0"/>
        <pt x="108" y="51" on="1"/>
        <pt x="93" y="83" on="0"/>
        <pt x="93" y="193" on="0"/>
        <pt x="102" y="258" on="1"/>
        <pt x="133" y="479" on="1"/>
        <pt x="138" y="513" on="0"/>
        <pt x="159" y="531" on="0"/>
        <pt x="221" y="531" on="0"/>
        <pt x="237" y="515" on="0"/>
        <pt x="237" y="484" on="0"/>
        <pt x="236" y="472" on="1"/>
      </contour>
    </TTGlyph>
    <TTGlyph name="U_smcpgrave" xMin="63" yMin="-6" xMax="422" yMax="784">
      <contour>
        <pt x="322" y="573" on="1"/>
        <pt x="273" y="552" on="1"/>
        <pt x="137" y="724" on="1"/>
        <pt x="254" y="784" on="1"/>
        <pt x="291" y="752" on="1"/>
        <pt x="331" y="628" on="1"/>
      </contour>
      <contour>
        <pt x="192" y="300" on="1"/>
        <pt x="173" y="169" on="0"/>
        <pt x="173" y="93" on="0"/>
        <pt x="182" y="93" on="1"/>
        <pt x="214" y="93" on="0"/>
        <pt x="243" y="99" on="0"/>
        <pt x="268" y="138" on="0"/>
        <pt x="279" y="194" on="0"/>
        <pt x="288" y="258" on="1"/>
        <pt x="321" y="494" on="1"/>
        <pt x="324" y="517" on="0"/>
        <pt x="345" y="531" on="0"/>
        <pt x="407" y="531" on="0"/>
        <pt x="422" y="517" on="0"/>
        <pt x="422" y="488" on="0"/>
        <pt x="421" y="477" on="1"/>
        <pt x="404" y="299" on="1"/>
        <pt x="380" y="120" on="0"/>
        <pt x="295" y="-6" on="0"/>
        <pt x="106" y="-6" on="0"/>
        <pt x="78" y="51" on="1"/>
        <pt x="63" y="83" on="0"/>
        <pt x="63" y="193" on="0"/>
        <pt x="72" y="258" on="1"/>
        <pt x="103" y="479" on="1"/>
        <pt x="108" y="513" on="0"/>
        <pt x="129" y="531" on="0"/>
        <pt x="191" y="531" on="0"/>
        <pt x="207" y="515" on="0"/>
        <pt x="207" y="484" on="0"/>
        <pt x="206" y="472" on="1"/>
      </contour>
    </TTGlyph>
    <TTGlyph name="Uacute" xMin="64" yMin="-16" xMax="581" yMax="1024">
      <contour>
        <pt x="389" y="792" on="1"/>
        <pt x="346" y="813" on="1"/>
        <pt x="352" y="868" on="1"/>
        <pt x="427" y="992" on="1"/>
        <pt x="473" y="1024" on="1"/>
        <pt x="573" y="964" on="1"/>
      </contour>
      <contour>
        <pt x="231" y="109" on="1"/>
        <pt x="266" y="109" on="0"/>
        <pt x="305" y="112" on="0"/>
        <pt x="343" y="133" on="0"/>
        <pt x="361" y="161" on="0"/>
        <pt x="382" y="228" on="0"/>
        <pt x="394" y="302" on="0"/>
        <pt x="404" y="370" on="1"/>
        <pt x="453" y="722" on="1"/>
        <pt x="457" y="750" on="0"/>
        <pt x="483" y="768" on="0"/>
        <pt x="559" y="768" on="0"/>
        <pt x="581" y="747" on="0"/>
        <pt x="581" y="709" on="0"/>
        <pt x="580" y="698" on="1"/>
        <pt x="554" y="429" on="1"/>
        <pt x="531" y="252" on="0"/>
        <pt x="461" y="62" on="0"/>
        <pt x="352" y="-16" on="0"/>
        <pt x="259" y="-16" on="1"/>
        <pt x="125" y="-16" on="0"/>
        <pt x="86" y="68" on="1"/>
        <pt x="64" y="115" on="0"/>
        <pt x="64" y="273" on="0"/>
        <pt x="78" y="370" on="1"/>
        <pt x="124" y="700" on="1"/>
        <pt x="130" y="743" on="0"/>
        <pt x="158" y="768" on="0"/>
        <pt x="236" y="768" on="0"/>
        <pt x="256" y="745" on="0"/>
        <pt x="256" y="705" on="0"/>
        <pt x="255" y="690" on="1"/>
        <pt x="233" y="431" on="1"/>
        <pt x="207" y="248" on="0"/>
        <pt x="207" y="109" on="0"/>
      </contour>
    </TTGlyph>
    <TTGlyph name="Ucircumflex" xMin="70" yMin="-16" xMax="587" yMax="1024">
      <contour>
        <pt x="258" y="828" on="1"/>
        <pt x="223" y="860" on="1"/>
        <pt x="244" y="914" on="1"/>
        <pt x="359" y="1004" on="1"/>
        <pt x="410" y="1024" on="1"/>
        <pt x="457" y="1004" on="1"/>
        <pt x="546" y="914" on="1"/>
        <pt x="551" y="860" on="1"/>
        <pt x="508" y="828" on="1"/>
        <pt x="394" y="909" on="1"/>
      </contour>
      <contour>
        <pt x="237" y="109" on="1"/>
        <pt x="272" y="109" on="0"/>
        <pt x="311" y="112" on="0"/>
        <pt x="349" y="133" on="0"/>
        <pt x="367" y="161" on="0"/>
        <pt x="388" y="228" on="0"/>
        <pt x="400" y="302" on="0"/>
        <pt x="410" y="370" on="1"/>
        <pt x="459" y="722" on="1"/>
        <pt x="463" y="750" on="0"/>
        <pt x="489" y="768" on="0"/>
        <pt x="565" y="768" on="0"/>
        <pt x="587" y="747" on="0"/>
        <pt x="587" y="709" on="0"/>
        <pt x="586" y="698" on="1"/>
        <pt x="560" y="429" on="1"/>
        <pt x="537" y="252" on="0"/>
        <pt x="467" y="62" on="0"/>
        <pt x="358" y="-16" on="0"/>
        <pt x="265" y="-16" on="1"/>
        <pt x="131" y="-16" on="0"/>
        <pt x="92" y="68" on="1"/>
        <pt x="70" y="115" on="0"/>
        <pt x="70" y="273" on="0"/>
        <pt x="84" y="370" on="1"/>
        <pt x="130" y="700" on="1"/>
        <pt x="136" y="743" on="0"/>
        <pt x="164" y="768" on="0"/>
        <pt x="242" y="768" on="0"/>
        <pt x="262" y="745" on="0"/>
        <pt x="262" y="705" on="0"/>
        <pt x="261" y="690" on="1"/>
        <pt x="239" y="431" on="1"/>
        <pt x="213" y="248" on="0"/>
        <pt x="213" y="109" on="0"/>
      </contour>
    </TTGlyph>
    <TTGlyph name="Udieresis" xMin="70" yMin="-16" xMax="592" yMax="1024">
      <contour>
        <pt x="295" y="1024" on="1"/>
        <pt x="358" y="1024" on="0"/>
        <pt x="358" y="968" on="1"/>
        <pt x="358" y="961" on="0"/>
        <pt x="357" y="952" on="1"/>
        <pt x="347" y="880" on="0"/>
        <pt x="275" y="880" on="1"/>
        <pt x="212" y="880" on="0"/>
        <pt x="212" y="936" on="1"/>
        <pt x="212" y="943" on="0"/>
        <pt x="213" y="952" on="1"/>
        <pt x="223" y="1024" on="0"/>
      </contour>
      <contour>
        <pt x="529" y="1024" on="1"/>
        <pt x="592" y="1024" on="0"/>
        <pt x="592" y="968" on="1"/>
        <pt x="592" y="961" on="0"/>
        <pt x="591" y="952" on="1"/>
        <pt x="581" y="880" on="0"/>
        <pt x="509" y="880" on="1"/>
        <pt x="446" y="880" on="0"/>
        <pt x="446" y="936" on="1"/>
        <pt x="446" y="943" on="0"/>
        <pt x="447" y="952" on="1"/>
        <pt x="457" y="1024" on="0"/>
      </contour>
      <contour>
        <pt x="237" y="109" on="1"/>
        <pt x="272" y="109" on="0"/>
        <pt x="311" y="112" on="0"/>
        <pt x="349" y="133" on="0"/>
        <pt x="367" y="161" on="0"/>
        <pt x="388" y="228" on="0"/>
        <pt x="400" y="302" on="0"/>
        <pt x="410" y="370" on="1"/>
        <pt x="459" y="722" on="1"/>
        <pt x="463" y="750" on="0"/>
        <pt x="489" y="768" on="0"/>
        <pt x="565" y="768" on="0"/>
        <pt x="587" y="747" on="0"/>
        <pt x="587" y="709" on="0"/>
        <pt x="586" y="698" on="1"/>
        <pt x="560" y="429" on="1"/>
        <pt x="537" y="252" on="0"/>
        <pt x="467" y="62" on="0"/>
        <pt x="358" y="-16" on="0"/>
        <pt x="265" y="-16" on="1"/>
        <pt x="131" y="-16" on="0"/>
        <pt x="92" y="68" on="1"/>
        <pt x="70" y="115" on="0"/>
        <pt x="70" y="273" on="0"/>
        <pt x="84" y="370" on="1"/>
        <pt x="130" y="700" on="1"/>
        <pt x="136" y="743" on="0"/>
        <pt x="164" y="768" on="0"/>
        <pt x="242" y="768" on="0"/>
        <pt x="262" y="745" on="0"/>
        <pt x="262" y="705" on="0"/>
        <pt x="261" y="690" on="1"/>
        <pt x="239" y="431" on="1"/>
        <pt x="213" y="248" on="0"/>
        <pt x="213" y="109" on="0"/>
      </contour>
    </TTGlyph>
    <TTGlyph name="Ugrave" xMin="70" yMin="-16" xMax="587" yMax="1024">
      <contour>
        <pt x="411" y="813" on="1"/>
        <pt x="362" y="792" on="1"/>
        <pt x="226" y="964" on="1"/>
        <pt x="342" y="1024" on="1"/>
        <pt x="380" y="992" on="1"/>
        <pt x="419" y="868" on="1"/>
      </contour>
      <contour>
        <pt x="237" y="109" on="1"/>
        <pt x="272" y="109" on="0"/>
        <pt x="311" y="112" on="0"/>
        <pt x="349" y="133" on="0"/>
        <pt x="367" y="161" on="0"/>
        <pt x="388" y="228" on="0"/>
        <pt x="400" y="302" on="0"/>
        <pt x="410" y="370" on="1"/>
        <pt x="459" y="722" on="1"/>
        <pt x="463" y="750" on="0"/>
        <pt x="489" y="768" on="0"/>
        <pt x="565" y="768" on="0"/>
        <pt x="587" y="747" on="0"/>
        <pt x="587" y="709" on="0"/>
        <pt x="586" y="698" on="1"/>
        <pt x="560" y="429" on="1"/>
        <pt x="537" y="252" on="0"/>
        <pt x="467" y="62" on="0"/>
        <pt x="358" y="-16" on="0"/>
        <pt x="265" y="-16" on="1"/>
        <pt x="131" y="-16" on="0"/>
        <pt x="92" y="68" on="1"/>
        <pt x="70" y="115" on="0"/>
        <pt x="70" y="273" on="0"/>
        <pt x="84" y="370" on="1"/>
        <pt x="130" y="700" on="1"/>
        <pt x="136" y="743" on="0"/>
        <pt x="164" y="768" on="0"/>
        <pt x="242" y="768" on="0"/>
        <pt x="262" y="745" on="0"/>
        <pt x="262" y="705" on="0"/>
        <pt x="261" y="690" on="1"/>
        <pt x="239" y="431" on="1"/>
        <pt x="213" y="248" on="0"/>
        <pt x="213" y="109" on="0"/>
      </contour>
    </TTGlyph>
    <TTGlyph name="V" xMin="123" yMin="-16" xMax="656" yMax="768">
      <contour>
        <pt x="592" y="768" on="1"/>
        <pt x="656" y="768" on="0"/>
        <pt x="656" y="742" on="1"/>
        <pt x="656" y="736" on="0"/>
        <pt x="653" y="729" on="1"/>
        <pt x="385" y="21" on="1"/>
        <pt x="376" y="-2" on="0"/>
        <pt x="359" y="-16" on="0"/>
        <pt x="319" y="-16" on="1"/>
        <pt x="225" y="-16" on="0"/>
        <pt x="222" y="22" on="1"/>
        <pt x="127" y="731" on="1"/>
        <pt x="123" y="768" on="0"/>
        <pt x="199" y="768" on="1"/>
        <pt x="232" y="768" on="0"/>
        <pt x="267" y="751" on="0"/>
        <pt x="270" y="727" on="1"/>
        <pt x="331" y="194" on="1"/>
        <pt x="526" y="732" on="1"/>
        <pt x="533" y="753" on="0"/>
        <pt x="561" y="768" on="0"/>
      </contour>
    </TTGlyph>
    <TTGlyph name="V_i" xMin="123" yMin="-16" xMax="786" yMax="768">
      <contour>
        <pt x="732" y="749" on="1"/>
        <pt x="786" y="749" on="0"/>
        <pt x="786" y="724" on="1"/>
        <pt x="786" y="721" on="0"/>
        <pt x="785" y="718" on="1"/>
        <pt x="774" y="629" on="0"/>
        <pt x="725" y="629" on="1"/>
        <pt x="616" y="630" on="1"/>
        <pt x="385" y="21" on="1"/>
        <pt x="376" y="-2" on="0"/>
        <pt x="359" y="-16" on="0"/>
        <pt x="319" y="-16" on="1"/>
        <pt x="225" y="-16" on="0"/>
        <pt x="222" y="22" on="1"/>
        <pt x="127" y="731" on="1"/>
        <pt x="123" y="768" on="0"/>
        <pt x="199" y="768" on="1"/>
        <pt x="232" y="768" on="0"/>
        <pt x="267" y="751" on="0"/>
        <pt x="270" y="727" on="1"/>
        <pt x="331" y="194" on="1"/>
        <pt x="520" y="713" on="1"/>
        <pt x="527" y="734" on="0"/>
        <pt x="555" y="749" on="0"/>
        <pt x="586" y="749" on="1"/>
      </contour>
      <contour>
        <pt x="620" y="496" on="1"/>
        <pt x="622" y="512" on="0"/>
        <pt x="694" y="512" on="0"/>
        <pt x="757" y="502" on="0"/>
        <pt x="756" y="496" on="1"/>
        <pt x="687" y="0" on="1"/>
        <pt x="686" y="-6" on="0"/>
        <pt x="684" y="-8" on="1"/>
        <pt x="678" y="-16" on="0"/>
        <pt x="624" y="-16" on="0"/>
        <pt x="602" y="-14" on="1"/>
        <pt x="549" y="-9" on="0"/>
        <pt x="551" y="0" on="1"/>
      </contour>
    </TTGlyph>
    <TTGlyph name="V_iacute" xMin="123" yMin="-16" xMax="891" yMax="768">
      <contour>
        <pt x="199" y="768" on="1"/>
        <pt x="232" y="768" on="0"/>
        <pt x="267" y="751" on="0"/>
        <pt x="270" y="727" on="1"/>
        <pt x="331" y="194" on="1"/>
        <pt x="520" y="713" on="1"/>
        <pt x="527" y="734" on="0"/>
        <pt x="555" y="749" on="0"/>
        <pt x="586" y="749" on="1"/>
        <pt x="732" y="749" on="1"/>
        <pt x="749" y="749" on="0"/>
        <pt x="800" y="731" on="0"/>
        <pt x="891" y="692" on="1"/>
        <pt x="720" y="533" on="1"/>
        <pt x="677" y="554" on="1"/>
        <pt x="684" y="609" on="1"/>
        <pt x="695" y="628" on="1"/>
        <pt x="695" y="629" on="1"/>
        <pt x="616" y="630" on="1"/>
        <pt x="385" y="21" on="1"/>
        <pt x="376" y="-2" on="0"/>
        <pt x="359" y="-16" on="0"/>
        <pt x="319" y="-16" on="1"/>
        <pt x="225" y="-16" on="0"/>
        <pt x="222" y="22" on="1"/>
        <pt x="127" y="731" on="1"/>
        <pt x="123" y="768" on="0"/>
      </contour>
      <contour>
        <pt x="622" y="496" on="1"/>
        <pt x="624" y="512" on="0"/>
        <pt x="696" y="512" on="0"/>
        <pt x="759" y="502" on="0"/>
        <pt x="758" y="496" on="1"/>
        <pt x="689" y="0" on="1"/>
        <pt x="688" y="-6" on="0"/>
        <pt x="686" y="-8" on="1"/>
        <pt x="680" y="-16" on="0"/>
        <pt x="626" y="-16" on="0"/>
        <pt x="604" y="-14" on="1"/>
        <pt x="551" y="-9" on="0"/>
        <pt x="553" y="0" on="1"/>
      </contour>
    </TTGlyph>
    <TTGlyph name="V_igrave" xMin="123" yMin="-16" xMax="756" yMax="768">
      <contour>
        <pt x="199" y="768" on="1"/>
        <pt x="232" y="768" on="0"/>
        <pt x="267" y="751" on="0"/>
        <pt x="270" y="727" on="1"/>
        <pt x="331" y="194" on="1"/>
        <pt x="520" y="713" on="1"/>
        <pt x="527" y="734" on="0"/>
        <pt x="555" y="749" on="0"/>
        <pt x="586" y="749" on="1"/>
        <pt x="624" y="749" on="1"/>
        <pt x="656" y="749" on="0"/>
        <pt x="686" y="703" on="0"/>
        <pt x="715" y="609" on="1"/>
        <pt x="706" y="554" on="1"/>
        <pt x="657" y="533" on="1"/>
        <pt x="606" y="597" on="1"/>
        <pt x="605" y="600" on="1"/>
        <pt x="385" y="21" on="1"/>
        <pt x="376" y="-2" on="0"/>
        <pt x="359" y="-16" on="0"/>
        <pt x="319" y="-16" on="1"/>
        <pt x="225" y="-16" on="0"/>
        <pt x="222" y="22" on="1"/>
        <pt x="127" y="731" on="1"/>
        <pt x="123" y="768" on="0"/>
      </contour>
      <contour>
        <pt x="619" y="496" on="1"/>
        <pt x="621" y="512" on="0"/>
        <pt x="693" y="512" on="0"/>
        <pt x="756" y="502" on="0"/>
        <pt x="755" y="496" on="1"/>
        <pt x="686" y="0" on="1"/>
        <pt x="685" y="-6" on="0"/>
        <pt x="683" y="-8" on="1"/>
        <pt x="677" y="-16" on="0"/>
        <pt x="623" y="-16" on="0"/>
        <pt x="601" y="-14" on="1"/>
        <pt x="548" y="-9" on="0"/>
        <pt x="550" y="0" on="1"/>
      </contour>
    </TTGlyph>
    <TTGlyph name="V_smcp" xMin="85" yMin="-6" xMax="457" yMax="531">
      <contour>
        <pt x="355" y="503" on="1"/>
        <pt x="367" y="531" on="0"/>
        <pt x="457" y="531" on="0"/>
        <pt x="457" y="508" on="1"/>
        <pt x="457" y="503" on="0"/>
        <pt x="455" y="497" on="1"/>
        <pt x="276" y="25" on="1"/>
        <pt x="269" y="7" on="0"/>
        <pt x="254" y="-6" on="0"/>
        <pt x="236" y="-6" on="1"/>
        <pt x="157" y="-6" on="0"/>
        <pt x="152" y="26" on="1"/>
        <pt x="89" y="498" on="1"/>
        <pt x="85" y="531" on="0"/>
        <pt x="195" y="531" on="0"/>
        <pt x="201" y="499" on="1"/>
        <pt x="238" y="177" on="1"/>
      </contour>
    </TTGlyph>
    <TTGlyph name="W" xMin="132" yMin="-16" xMax="1020" yMax="768">
      <contour>
        <pt x="136" y="734" on="1"/>
        <pt x="132" y="768" on="0"/>
        <pt x="274" y="768" on="0"/>
        <pt x="278" y="731" on="1"/>
        <pt x="338" y="194" on="1"/>
        <pt x="495" y="632" on="1"/>
        <pt x="502" y="652" on="0"/>
        <pt x="530" y="666" on="0"/>
        <pt x="561" y="666" on="1"/>
        <pt x="641" y="666" on="0"/>
        <pt x="646" y="623" on="1"/>
        <pt x="694" y="194" on="1"/>
        <pt x="888" y="731" on="1"/>
        <pt x="896" y="753" on="0"/>
        <pt x="924" y="768" on="0"/>
        <pt x="1000" y="768" on="0"/>
        <pt x="1020" y="759" on="0"/>
        <pt x="1020" y="741" on="0"/>
        <pt x="1017" y="731" on="1"/>
        <pt x="750" y="20" on="1"/>
        <pt x="742" y="-1" on="0"/>
        <pt x="721" y="-16" on="0"/>
        <pt x="660" y="-16" on="0"/>
        <pt x="591" y="1" on="0"/>
        <pt x="588" y="20" on="1"/>
        <pt x="532" y="375" on="1"/>
        <pt x="393" y="22" on="1"/>
        <pt x="384" y="0" on="0"/>
        <pt x="362" y="-16" on="0"/>
        <pt x="302" y="-16" on="0"/>
        <pt x="233" y="1" on="0"/>
        <pt x="231" y="20" on="1"/>
      </contour>
    </TTGlyph>
    <TTGlyph name="W_i" xMin="132" yMin="-16" xMax="1150" yMax="768">
      <contour>
        <pt x="1096" y="749" on="1"/>
        <pt x="1150" y="749" on="0"/>
        <pt x="1150" y="724" on="1"/>
        <pt x="1150" y="721" on="0"/>
        <pt x="1149" y="718" on="1"/>
        <pt x="1138" y="629" on="0"/>
        <pt x="1089" y="629" on="1"/>
        <pt x="981" y="629" on="1"/>
        <pt x="750" y="20" on="1"/>
        <pt x="742" y="-1" on="0"/>
        <pt x="721" y="-16" on="0"/>
        <pt x="660" y="-16" on="0"/>
        <pt x="591" y="1" on="0"/>
        <pt x="588" y="20" on="1"/>
        <pt x="532" y="375" on="1"/>
        <pt x="393" y="22" on="1"/>
        <pt x="384" y="0" on="0"/>
        <pt x="362" y="-16" on="0"/>
        <pt x="302" y="-16" on="0"/>
        <pt x="233" y="1" on="0"/>
        <pt x="231" y="20" on="1"/>
        <pt x="136" y="734" on="1"/>
        <pt x="132" y="768" on="0"/>
        <pt x="274" y="768" on="0"/>
        <pt x="278" y="731" on="1"/>
        <pt x="338" y="194" on="1"/>
        <pt x="495" y="632" on="1"/>
        <pt x="502" y="652" on="0"/>
        <pt x="530" y="666" on="0"/>
        <pt x="561" y="666" on="1"/>
        <pt x="641" y="666" on="0"/>
        <pt x="646" y="623" on="1"/>
        <pt x="694" y="194" on="1"/>
        <pt x="884" y="713" on="1"/>
        <pt x="891" y="734" on="0"/>
        <pt x="919" y="749" on="0"/>
        <pt x="950" y="749" on="1"/>
      </contour>
      <contour>
        <pt x="980" y="496" on="1"/>
        <pt x="982" y="512" on="0"/>
        <pt x="1054" y="512" on="0"/>
        <pt x="1117" y="502" on="0"/>
        <pt x="1116" y="496" on="1"/>
        <pt x="1047" y="0" on="1"/>
        <pt x="1046" y="-6" on="0"/>
        <pt x="1044" y="-8" on="1"/>
        <pt x="1038" y="-16" on="0"/>
        <pt x="984" y="-16" on="0"/>
        <pt x="962" y="-14" on="1"/>
        <pt x="909" y="-9" on="0"/>
        <pt x="911" y="0" on="1"/>
      </contour>
    </TTGlyph>
    <TTGlyph name="W_iacute" xMin="132" yMin="-16" xMax="1249" yMax="768">
      <contour>
        <pt x="950" y="749" on="1"/>
        <pt x="1096" y="749" on="1"/>
        <pt x="1115" y="749" on="0"/>
        <pt x="1165" y="731" on="0"/>
        <pt x="1249" y="692" on="1"/>
        <pt x="1082" y="533" on="1"/>
        <pt x="1039" y="554" on="1"/>
        <pt x="1046" y="609" on="1"/>
        <pt x="1057" y="628" on="1"/>
        <pt x="1057" y="629" on="1"/>
        <pt x="981" y="629" on="1"/>
        <pt x="750" y="20" on="1"/>
        <pt x="742" y="-1" on="0"/>
        <pt x="721" y="-16" on="0"/>
        <pt x="660" y="-16" on="0"/>
        <pt x="591" y="1" on="0"/>
        <pt x="588" y="20" on="1"/>
        <pt x="532" y="375" on="1"/>
        <pt x="393" y="22" on="1"/>
        <pt x="384" y="0" on="0"/>
        <pt x="362" y="-16" on="0"/>
        <pt x="302" y="-16" on="0"/>
        <pt x="233" y="1" on="0"/>
        <pt x="231" y="20" on="1"/>
        <pt x="136" y="734" on="1"/>
        <pt x="132" y="768" on="0"/>
        <pt x="274" y="768" on="0"/>
        <pt x="278" y="731" on="1"/>
        <pt x="338" y="194" on="1"/>
        <pt x="495" y="632" on="1"/>
        <pt x="502" y="652" on="0"/>
        <pt x="530" y="666" on="0"/>
        <pt x="561" y="666" on="1"/>
        <pt x="641" y="666" on="0"/>
        <pt x="646" y="623" on="1"/>
        <pt x="694" y="194" on="1"/>
        <pt x="884" y="713" on="1"/>
        <pt x="891" y="734" on="0"/>
        <pt x="919" y="749" on="0"/>
      </contour>
      <contour>
        <pt x="983" y="496" on="1"/>
        <pt x="985" y="512" on="0"/>
        <pt x="1057" y="512" on="0"/>
        <pt x="1120" y="502" on="0"/>
        <pt x="1119" y="496" on="1"/>
        <pt x="1050" y="0" on="1"/>
        <pt x="1049" y="-6" on="0"/>
        <pt x="1047" y="-8" on="1"/>
        <pt x="1041" y="-16" on="0"/>
        <pt x="987" y="-16" on="0"/>
        <pt x="965" y="-14" on="1"/>
        <pt x="912" y="-9" on="0"/>
        <pt x="914" y="0" on="1"/>
      </contour>
    </TTGlyph>
    <TTGlyph name="W_igrave" xMin="132" yMin="-16" xMax="1117" yMax="768">
      <contour>
        <pt x="950" y="749" on="1"/>
        <pt x="987" y="749" on="1"/>
        <pt x="1018" y="749" on="0"/>
        <pt x="1049" y="703" on="0"/>
        <pt x="1077" y="609" on="1"/>
        <pt x="1068" y="554" on="1"/>
        <pt x="1019" y="533" on="1"/>
        <pt x="968" y="596" on="1"/>
        <pt x="750" y="20" on="1"/>
        <pt x="742" y="-1" on="0"/>
        <pt x="721" y="-16" on="0"/>
        <pt x="660" y="-16" on="0"/>
        <pt x="591" y="1" on="0"/>
        <pt x="588" y="20" on="1"/>
        <pt x="532" y="375" on="1"/>
        <pt x="393" y="22" on="1"/>
        <pt x="384" y="0" on="0"/>
        <pt x="362" y="-16" on="0"/>
        <pt x="302" y="-16" on="0"/>
        <pt x="233" y="1" on="0"/>
        <pt x="231" y="20" on="1"/>
        <pt x="136" y="734" on="1"/>
        <pt x="132" y="768" on="0"/>
        <pt x="274" y="768" on="0"/>
        <pt x="278" y="731" on="1"/>
        <pt x="338" y="194" on="1"/>
        <pt x="495" y="632" on="1"/>
        <pt x="502" y="652" on="0"/>
        <pt x="530" y="666" on="0"/>
        <pt x="561" y="666" on="1"/>
        <pt x="641" y="666" on="0"/>
        <pt x="646" y="623" on="1"/>
        <pt x="694" y="194" on="1"/>
        <pt x="884" y="713" on="1"/>
        <pt x="891" y="734" on="0"/>
        <pt x="919" y="749" on="0"/>
      </contour>
      <contour>
        <pt x="980" y="496" on="1"/>
        <pt x="982" y="512" on="0"/>
        <pt x="1054" y="512" on="0"/>
        <pt x="1117" y="502" on="0"/>
        <pt x="1116" y="496" on="1"/>
        <pt x="1047" y="0" on="1"/>
        <pt x="1046" y="-6" on="0"/>
        <pt x="1044" y="-8" on="1"/>
        <pt x="1038" y="-16" on="0"/>
        <pt x="984" y="-16" on="0"/>
        <pt x="962" y="-14" on="1"/>
        <pt x="909" y="-9" on="0"/>
        <pt x="911" y="0" on="1"/>
      </contour>
    </TTGlyph>
    <TTGlyph name="W_smcp" xMin="94" yMin="-6" xMax="701" yMax="531">
      <contour>
        <pt x="153" y="531" on="1"/>
        <pt x="201" y="531" on="0"/>
        <pt x="206" y="502" on="1"/>
        <pt x="243" y="179" on="1"/>
        <pt x="336" y="435" on="1"/>
        <pt x="347" y="464" on="0"/>
        <pt x="388" y="464" on="1"/>
        <pt x="446" y="464" on="0"/>
        <pt x="453" y="430" on="1"/>
        <pt x="481" y="180" on="1"/>
        <pt x="597" y="502" on="1"/>
        <pt x="605" y="520" on="0"/>
        <pt x="627" y="531" on="0"/>
        <pt x="687" y="531" on="0"/>
        <pt x="701" y="523" on="0"/>
        <pt x="701" y="508" on="0"/>
        <pt x="698" y="497" on="1"/>
        <pt x="520" y="24" on="1"/>
        <pt x="507" y="-6" on="0"/>
        <pt x="452" y="-6" on="0"/>
        <pt x="401" y="9" on="0"/>
        <pt x="398" y="24" on="1"/>
        <pt x="364" y="233" on="1"/>
        <pt x="283" y="26" on="1"/>
        <pt x="276" y="8" on="0"/>
        <pt x="257" y="-6" on="0"/>
        <pt x="214" y="-6" on="0"/>
        <pt x="163" y="9" on="0"/>
        <pt x="159" y="24" on="1"/>
        <pt x="95" y="500" on="1"/>
        <pt x="94" y="518" on="0"/>
        <pt x="124" y="531" on="0"/>
      </contour>
    </TTGlyph>
    <TTGlyph name="X" xMin="36" yMin="-16" xMax="629" yMax="768">
      <contour>
        <pt x="480" y="731" on="1"/>
        <pt x="497" y="768" on="0"/>
        <pt x="629" y="768" on="0"/>
        <pt x="629" y="745" on="1"/>
        <pt x="629" y="737" on="0"/>
        <pt x="623" y="727" on="1"/>
        <pt x="430" y="414" on="1"/>
        <pt x="564" y="21" on="1"/>
        <pt x="572" y="-2" on="0"/>
        <pt x="559" y="-16" on="0"/>
        <pt x="488" y="-16" on="0"/>
        <pt x="410" y="1" on="0"/>
        <pt x="405" y="22" on="1"/>
        <pt x="338" y="282" on="1"/>
        <pt x="198" y="22" on="1"/>
        <pt x="185" y="-1" on="0"/>
        <pt x="164" y="-16" on="0"/>
        <pt x="144" y="-16" on="1"/>
        <pt x="56" y="-16" on="0"/>
        <pt x="39" y="6" on="1"/>
        <pt x="36" y="9" on="0"/>
        <pt x="36" y="17" on="0"/>
        <pt x="39" y="21" on="1"/>
        <pt x="284" y="415" on="1"/>
        <pt x="179" y="731" on="1"/>
        <pt x="178" y="735" on="0"/>
        <pt x="178" y="739" on="1"/>
        <pt x="178" y="768" on="0"/>
        <pt x="315" y="768" on="0"/>
        <pt x="322" y="731" on="1"/>
        <pt x="372" y="522" on="1"/>
      </contour>
    </TTGlyph>
    <TTGlyph name="X_smcp" xMin="30" yMin="-6" xMax="442" yMax="531">
      <contour>
        <pt x="328" y="506" on="1"/>
        <pt x="342" y="531" on="0"/>
        <pt x="442" y="531" on="0"/>
        <pt x="442" y="512" on="1"/>
        <pt x="442" y="504" on="0"/>
        <pt x="436" y="493" on="1"/>
        <pt x="309" y="288" on="1"/>
        <pt x="398" y="31" on="1"/>
        <pt x="405" y="12" on="0"/>
        <pt x="391" y="-6" on="0"/>
        <pt x="338" y="-6" on="0"/>
        <pt x="280" y="9" on="0"/>
        <pt x="275" y="25" on="1"/>
        <pt x="237" y="178" on="1"/>
        <pt x="154" y="26" on="1"/>
        <pt x="144" y="7" on="0"/>
        <pt x="126" y="-6" on="0"/>
        <pt x="76" y="-6" on="0"/>
        <pt x="30" y="9" on="0"/>
        <pt x="30" y="20" on="1"/>
        <pt x="30" y="25" on="0"/>
        <pt x="33" y="31" on="1"/>
        <pt x="193" y="289" on="1"/>
        <pt x="125" y="496" on="1"/>
        <pt x="125" y="497" on="1"/>
        <pt x="124" y="502" on="0"/>
        <pt x="124" y="506" on="1"/>
        <pt x="124" y="531" on="0"/>
        <pt x="228" y="531" on="0"/>
        <pt x="236" y="502" on="1"/>
        <pt x="264" y="383" on="1"/>
      </contour>
    </TTGlyph>
    <TTGlyph name="Y" xMin="125" yMin="-16" xMax="662" yMax="768">
      <contour>
        <pt x="317" y="-16" on="1"/>
        <pt x="246" y="-16" on="0"/>
        <pt x="246" y="17" on="1"/>
        <pt x="246" y="19" on="0"/>
        <pt x="246" y="22" on="1"/>
        <pt x="292" y="349" on="1"/>
        <pt x="127" y="732" on="1"/>
        <pt x="125" y="738" on="0"/>
        <pt x="125" y="743" on="1"/>
        <pt x="125" y="768" on="0"/>
        <pt x="260" y="768" on="0"/>
        <pt x="270" y="731" on="1"/>
        <pt x="374" y="492" on="1"/>
        <pt x="527" y="734" on="1"/>
        <pt x="537" y="754" on="0"/>
        <pt x="567" y="768" on="0"/>
        <pt x="597" y="768" on="1"/>
        <pt x="662" y="768" on="0"/>
        <pt x="662" y="745" on="1"/>
        <pt x="662" y="739" on="0"/>
        <pt x="657" y="731" on="1"/>
        <pt x="409" y="349" on="1"/>
        <pt x="362" y="21" on="1"/>
        <pt x="359" y="-3" on="0"/>
        <pt x="345" y="-16" on="0"/>
      </contour>
    </TTGlyph>
    <TTGlyph name="Y_i" xMin="125" yMin="-16" xMax="795" yMax="768">
      <contour>
        <pt x="741" y="752" on="1"/>
        <pt x="795" y="752" on="0"/>
        <pt x="795" y="725" on="1"/>
        <pt x="795" y="632" on="0"/>
        <pt x="734" y="632" on="1"/>
        <pt x="595" y="632" on="1"/>
        <pt x="409" y="349" on="1"/>
        <pt x="362" y="21" on="1"/>
        <pt x="359" y="-3" on="0"/>
        <pt x="345" y="-16" on="0"/>
        <pt x="317" y="-16" on="1"/>
        <pt x="246" y="-16" on="0"/>
        <pt x="246" y="17" on="1"/>
        <pt x="246" y="19" on="0"/>
        <pt x="246" y="22" on="1"/>
        <pt x="292" y="349" on="1"/>
        <pt x="127" y="732" on="1"/>
        <pt x="125" y="738" on="0"/>
        <pt x="125" y="743" on="1"/>
        <pt x="125" y="768" on="0"/>
        <pt x="260" y="768" on="0"/>
        <pt x="270" y="731" on="1"/>
        <pt x="374" y="492" on="1"/>
        <pt x="519" y="718" on="1"/>
        <pt x="530" y="738" on="0"/>
        <pt x="560" y="752" on="0"/>
        <pt x="590" y="752" on="1"/>
      </contour>
      <contour>
        <pt x="628" y="496" on="1"/>
        <pt x="630" y="512" on="0"/>
        <pt x="702" y="512" on="0"/>
        <pt x="765" y="502" on="0"/>
        <pt x="764" y="496" on="1"/>
        <pt x="695" y="0" on="1"/>
        <pt x="694" y="-6" on="0"/>
        <pt x="692" y="-8" on="1"/>
        <pt x="686" y="-16" on="0"/>
        <pt x="632" y="-16" on="0"/>
        <pt x="610" y="-14" on="1"/>
        <pt x="557" y="-9" on="0"/>
        <pt x="559" y="0" on="1"/>
      </contour>
    </TTGlyph>
    <TTGlyph name="Y_iacute" xMin="125" yMin="-16" xMax="893" yMax="768">
      <contour>
        <pt x="125" y="743" on="1"/>
        <pt x="125" y="768" on="0"/>
        <pt x="260" y="768" on="0"/>
        <pt x="270" y="731" on="1"/>
        <pt x="374" y="492" on="1"/>
        <pt x="519" y="718" on="1"/>
        <pt x="530" y="738" on="0"/>
        <pt x="560" y="752" on="0"/>
        <pt x="590" y="752" on="1"/>
        <pt x="741" y="752" on="1"/>
        <pt x="758" y="752" on="0"/>
        <pt x="809" y="732" on="0"/>
        <pt x="893" y="692" on="1"/>
        <pt x="727" y="533" on="1"/>
        <pt x="684" y="554" on="1"/>
        <pt x="691" y="609" on="1"/>
        <pt x="705" y="628" on="1"/>
        <pt x="707" y="632" on="1"/>
        <pt x="595" y="632" on="1"/>
        <pt x="409" y="349" on="1"/>
        <pt x="362" y="21" on="1"/>
        <pt x="359" y="-3" on="0"/>
        <pt x="345" y="-16" on="0"/>
        <pt x="317" y="-16" on="1"/>
        <pt x="246" y="-16" on="0"/>
        <pt x="246" y="17" on="1"/>
        <pt x="246" y="19" on="0"/>
        <pt x="246" y="22" on="1"/>
        <pt x="292" y="349" on="1"/>
        <pt x="127" y="732" on="1"/>
        <pt x="125" y="738" on="0"/>
      </contour>
      <contour>
        <pt x="628" y="496" on="1"/>
        <pt x="630" y="512" on="0"/>
        <pt x="702" y="512" on="0"/>
        <pt x="765" y="502" on="0"/>
        <pt x="764" y="496" on="1"/>
        <pt x="695" y="0" on="1"/>
        <pt x="694" y="-6" on="0"/>
        <pt x="692" y="-8" on="1"/>
        <pt x="686" y="-16" on="0"/>
        <pt x="632" y="-16" on="0"/>
        <pt x="610" y="-14" on="1"/>
        <pt x="557" y="-9" on="0"/>
        <pt x="559" y="0" on="1"/>
      </contour>
    </TTGlyph>
    <TTGlyph name="Y_igrave" xMin="125" yMin="-16" xMax="763" yMax="768">
      <contour>
        <pt x="125" y="743" on="1"/>
        <pt x="125" y="768" on="0"/>
        <pt x="260" y="768" on="0"/>
        <pt x="270" y="731" on="1"/>
        <pt x="374" y="492" on="1"/>
        <pt x="519" y="718" on="1"/>
        <pt x="530" y="738" on="0"/>
        <pt x="560" y="752" on="0"/>
        <pt x="590" y="752" on="1"/>
        <pt x="630" y="752" on="1"/>
        <pt x="662" y="752" on="0"/>
        <pt x="693" y="705" on="0"/>
        <pt x="721" y="609" on="1"/>
        <pt x="712" y="554" on="1"/>
        <pt x="663" y="533" on="1"/>
        <pt x="590" y="624" on="1"/>
        <pt x="409" y="349" on="1"/>
        <pt x="362" y="21" on="1"/>
        <pt x="359" y="-3" on="0"/>
        <pt x="345" y="-16" on="0"/>
        <pt x="317" y="-16" on="1"/>
        <pt x="246" y="-16" on="0"/>
        <pt x="246" y="17" on="1"/>
        <pt x="246" y="19" on="0"/>
        <pt x="246" y="22" on="1"/>
        <pt x="292" y="349" on="1"/>
        <pt x="127" y="732" on="1"/>
        <pt x="125" y="738" on="0"/>
      </contour>
      <contour>
        <pt x="626" y="496" on="1"/>
        <pt x="628" y="512" on="0"/>
        <pt x="700" y="512" on="0"/>
        <pt x="763" y="502" on="0"/>
        <pt x="762" y="496" on="1"/>
        <pt x="693" y="0" on="1"/>
        <pt x="692" y="-6" on="0"/>
        <pt x="690" y="-8" on="1"/>
        <pt x="684" y="-16" on="0"/>
        <pt x="630" y="-16" on="0"/>
        <pt x="608" y="-14" on="1"/>
        <pt x="555" y="-9" on="0"/>
        <pt x="557" y="0" on="1"/>
      </contour>
    </TTGlyph>
    <TTGlyph name="Y_smcp" xMin="90" yMin="-6" xMax="465" yMax="531">
      <contour>
        <pt x="414" y="531" on="1"/>
        <pt x="465" y="531" on="0"/>
        <pt x="465" y="512" on="1"/>
        <pt x="465" y="505" on="0"/>
        <pt x="460" y="496" on="1"/>
        <pt x="293" y="240" on="1"/>
        <pt x="263" y="27" on="1"/>
        <pt x="261" y="6" on="0"/>
        <pt x="249" y="-6" on="0"/>
        <pt x="226" y="-6" on="1"/>
        <pt x="165" y="-6" on="0"/>
        <pt x="169" y="28" on="1"/>
        <pt x="200" y="244" on="1"/>
        <pt x="92" y="497" on="1"/>
        <pt x="90" y="502" on="0"/>
        <pt x="90" y="507" on="1"/>
        <pt x="90" y="531" on="0"/>
        <pt x="194" y="531" on="0"/>
        <pt x="202" y="503" on="1"/>
        <pt x="201" y="504" on="1"/>
        <pt x="265" y="357" on="1"/>
        <pt x="358" y="505" on="1"/>
        <pt x="358" y="504" on="1"/>
        <pt x="367" y="520" on="0"/>
        <pt x="390" y="531" on="0"/>
      </contour>
    </TTGlyph>
    <TTGlyph name="Y_smcpacute" xMin="90" yMin="-6" xMax="467" yMax="784">
      <contour>
        <pt x="283" y="552" on="1"/>
        <pt x="240" y="573" on="1"/>
        <pt x="247" y="628" on="1"/>
        <pt x="321" y="752" on="1"/>
        <pt x="368" y="784" on="1"/>
        <pt x="467" y="724" on="1"/>
      </contour>
      <contour>
        <pt x="414" y="531" on="1"/>
        <pt x="465" y="531" on="0"/>
        <pt x="465" y="512" on="1"/>
        <pt x="465" y="505" on="0"/>
        <pt x="460" y="496" on="1"/>
        <pt x="293" y="240" on="1"/>
        <pt x="263" y="27" on="1"/>
        <pt x="261" y="6" on="0"/>
        <pt x="249" y="-6" on="0"/>
        <pt x="226" y="-6" on="1"/>
        <pt x="165" y="-6" on="0"/>
        <pt x="169" y="28" on="1"/>
        <pt x="200" y="244" on="1"/>
        <pt x="92" y="497" on="1"/>
        <pt x="90" y="502" on="0"/>
        <pt x="90" y="507" on="1"/>
        <pt x="90" y="531" on="0"/>
        <pt x="194" y="531" on="0"/>
        <pt x="202" y="503" on="1"/>
        <pt x="201" y="504" on="1"/>
        <pt x="265" y="357" on="1"/>
        <pt x="358" y="505" on="1"/>
        <pt x="358" y="504" on="1"/>
        <pt x="367" y="520" on="0"/>
        <pt x="390" y="531" on="0"/>
      </contour>
    </TTGlyph>
    <TTGlyph name="Y_smcpdieresis" xMin="103" yMin="-6" xMax="510" yMax="784">
      <contour>
        <pt x="213" y="784" on="1"/>
        <pt x="276" y="784" on="0"/>
        <pt x="276" y="727" on="1"/>
        <pt x="276" y="720" on="0"/>
        <pt x="275" y="712" on="1"/>
        <pt x="265" y="640" on="0"/>
        <pt x="192" y="640" on="1"/>
        <pt x="130" y="640" on="0"/>
        <pt x="130" y="695" on="1"/>
        <pt x="130" y="703" on="0"/>
        <pt x="131" y="712" on="1"/>
        <pt x="140" y="784" on="0"/>
      </contour>
      <contour>
        <pt x="447" y="784" on="1"/>
        <pt x="510" y="784" on="0"/>
        <pt x="510" y="727" on="1"/>
        <pt x="510" y="720" on="0"/>
        <pt x="509" y="712" on="1"/>
        <pt x="499" y="640" on="0"/>
        <pt x="426" y="640" on="1"/>
        <pt x="364" y="640" on="0"/>
        <pt x="364" y="695" on="1"/>
        <pt x="364" y="703" on="0"/>
        <pt x="365" y="712" on="1"/>
        <pt x="374" y="784" on="0"/>
      </contour>
      <contour>
        <pt x="427" y="531" on="1"/>
        <pt x="478" y="531" on="0"/>
        <pt x="478" y="512" on="1"/>
        <pt x="478" y="505" on="0"/>
        <pt x="473" y="496" on="1"/>
        <pt x="306" y="240" on="1"/>
        <pt x="276" y="27" on="1"/>
        <pt x="274" y="6" on="0"/>
        <pt x="262" y="-6" on="0"/>
        <pt x="239" y="-6" on="1"/>
        <pt x="178" y="-6" on="0"/>
        <pt x="182" y="28" on="1"/>
        <pt x="213" y="244" on="1"/>
        <pt x="105" y="497" on="1"/>
        <pt x="103" y="502" on="0"/>
        <pt x="103" y="507" on="1"/>
        <pt x="103" y="531" on="0"/>
        <pt x="207" y="531" on="0"/>
        <pt x="215" y="503" on="1"/>
        <pt x="214" y="504" on="1"/>
        <pt x="278" y="357" on="1"/>
        <pt x="371" y="505" on="1"/>
        <pt x="371" y="504" on="1"/>
        <pt x="380" y="520" on="0"/>
        <pt x="403" y="531" on="0"/>
      </contour>
    </TTGlyph>
    <TTGlyph name="Yacute" xMin="118" yMin="-16" xMax="655" yMax="1024">
      <contour>
        <pt x="408" y="792" on="1"/>
        <pt x="365" y="813" on="1"/>
        <pt x="371" y="868" on="1"/>
        <pt x="446" y="992" on="1"/>
        <pt x="492" y="1024" on="1"/>
        <pt x="592" y="964" on="1"/>
      </contour>
      <contour>
        <pt x="310" y="-16" on="1"/>
        <pt x="239" y="-16" on="0"/>
        <pt x="239" y="17" on="1"/>
        <pt x="239" y="19" on="0"/>
        <pt x="239" y="22" on="1"/>
        <pt x="285" y="349" on="1"/>
        <pt x="120" y="732" on="1"/>
        <pt x="118" y="738" on="0"/>
        <pt x="118" y="743" on="1"/>
        <pt x="118" y="768" on="0"/>
        <pt x="253" y="768" on="0"/>
        <pt x="263" y="731" on="1"/>
        <pt x="367" y="492" on="1"/>
        <pt x="520" y="734" on="1"/>
        <pt x="530" y="754" on="0"/>
        <pt x="560" y="768" on="0"/>
        <pt x="590" y="768" on="1"/>
        <pt x="655" y="768" on="0"/>
        <pt x="655" y="745" on="1"/>
        <pt x="655" y="739" on="0"/>
        <pt x="650" y="731" on="1"/>
        <pt x="402" y="349" on="1"/>
        <pt x="355" y="21" on="1"/>
        <pt x="352" y="-3" on="0"/>
        <pt x="338" y="-16" on="0"/>
      </contour>
    </TTGlyph>
    <TTGlyph name="Ydieresis" xMin="118" yMin="-16" xMax="655" yMax="1024">
      <contour>
        <pt x="319" y="1024" on="1"/>
        <pt x="382" y="1024" on="0"/>
        <pt x="382" y="968" on="1"/>
        <pt x="382" y="961" on="0"/>
        <pt x="381" y="952" on="1"/>
        <pt x="371" y="880" on="0"/>
        <pt x="299" y="880" on="1"/>
        <pt x="236" y="880" on="0"/>
        <pt x="236" y="936" on="1"/>
        <pt x="236" y="943" on="0"/>
        <pt x="237" y="952" on="1"/>
        <pt x="247" y="1024" on="0"/>
      </contour>
      <contour>
        <pt x="553" y="1024" on="1"/>
        <pt x="616" y="1024" on="0"/>
        <pt x="616" y="968" on="1"/>
        <pt x="616" y="961" on="0"/>
        <pt x="615" y="952" on="1"/>
        <pt x="605" y="880" on="0"/>
        <pt x="533" y="880" on="1"/>
        <pt x="470" y="880" on="0"/>
        <pt x="470" y="936" on="1"/>
        <pt x="470" y="943" on="0"/>
        <pt x="471" y="952" on="1"/>
        <pt x="481" y="1024" on="0"/>
      </contour>
      <contour>
        <pt x="310" y="-16" on="1"/>
        <pt x="239" y="-16" on="0"/>
        <pt x="239" y="17" on="1"/>
        <pt x="239" y="19" on="0"/>
        <pt x="239" y="22" on="1"/>
        <pt x="285" y="349" on="1"/>
        <pt x="120" y="732" on="1"/>
        <pt x="118" y="738" on="0"/>
        <pt x="118" y="743" on="1"/>
        <pt x="118" y="768" on="0"/>
        <pt x="253" y="768" on="0"/>
        <pt x="263" y="731" on="1"/>
        <pt x="367" y="492" on="1"/>
        <pt x="520" y="734" on="1"/>
        <pt x="530" y="754" on="0"/>
        <pt x="560" y="768" on="0"/>
        <pt x="590" y="768" on="1"/>
        <pt x="655" y="768" on="0"/>
        <pt x="655" y="745" on="1"/>
        <pt x="655" y="739" on="0"/>
        <pt x="650" y="731" on="1"/>
        <pt x="402" y="349" on="1"/>
        <pt x="355" y="21" on="1"/>
        <pt x="352" y="-3" on="0"/>
        <pt x="338" y="-16" on="0"/>
      </contour>
    </TTGlyph>
    <TTGlyph name="Z" xMin="46" yMin="0" xMax="588" yMax="752">
      <contour>
        <pt x="125" y="668" on="1"/>
        <pt x="125" y="752" on="0"/>
        <pt x="172" y="752" on="1"/>
        <pt x="574" y="752" on="1"/>
        <pt x="588" y="736" on="1"/>
        <pt x="576" y="648" on="1"/>
        <pt x="225" y="121" on="1"/>
        <pt x="462" y="121" on="1"/>
        <pt x="494" y="120" on="0"/>
        <pt x="515" y="105" on="0"/>
        <pt x="509" y="64" on="0"/>
        <pt x="498" y="30" on="0"/>
        <pt x="470" y="0" on="0"/>
        <pt x="450" y="0" on="1"/>
        <pt x="60" y="0" on="1"/>
        <pt x="46" y="16" on="1"/>
        <pt x="61" y="122" on="1"/>
        <pt x="416" y="632" on="1"/>
        <pt x="160" y="632" on="1"/>
        <pt x="134" y="633" on="0"/>
        <pt x="125" y="652" on="0"/>
      </contour>
    </TTGlyph>
    <TTGlyph name="Z_smcp" xMin="34" yMin="5" xMax="411" yMax="522">
      <contour>
        <pt x="87" y="453" on="1"/>
        <pt x="87" y="522" on="0"/>
        <pt x="127" y="522" on="1"/>
        <pt x="400" y="522" on="1"/>
        <pt x="411" y="507" on="1"/>
        <pt x="401" y="439" on="1"/>
        <pt x="175" y="101" on="1"/>
        <pt x="321" y="101" on="1"/>
        <pt x="346" y="100" on="0"/>
        <pt x="362" y="85" on="0"/>
        <pt x="360" y="71" on="1"/>
        <pt x="349" y="5" on="0"/>
        <pt x="310" y="5" on="1"/>
        <pt x="45" y="5" on="1"/>
        <pt x="34" y="20" on="1"/>
        <pt x="45" y="96" on="1"/>
        <pt x="275" y="427" on="1"/>
        <pt x="117" y="427" on="1"/>
        <pt x="95" y="427" on="0"/>
        <pt x="87" y="441" on="0"/>
      </contour>
    </TTGlyph>
    <TTGlyph name="Zcaron" xMin="38" yMin="0" xMax="580" yMax="1024">
      <contour>
        <pt x="230" y="992" on="1"/>
        <pt x="273" y="1024" on="1"/>
        <pt x="387" y="943" on="1"/>
        <pt x="523" y="1024" on="1"/>
        <pt x="558" y="992" on="1"/>
        <pt x="537" y="938" on="1"/>
        <pt x="423" y="848" on="1"/>
        <pt x="371" y="828" on="1"/>
        <pt x="325" y="848" on="1"/>
        <pt x="235" y="938" on="1"/>
      </contour>
      <contour>
        <pt x="117" y="668" on="1"/>
        <pt x="117" y="752" on="0"/>
        <pt x="164" y="752" on="1"/>
        <pt x="566" y="752" on="1"/>
        <pt x="580" y="736" on="1"/>
        <pt x="568" y="648" on="1"/>
        <pt x="217" y="121" on="1"/>
        <pt x="454" y="121" on="1"/>
        <pt x="486" y="120" on="0"/>
        <pt x="507" y="105" on="0"/>
        <pt x="501" y="64" on="0"/>
        <pt x="490" y="30" on="0"/>
        <pt x="462" y="0" on="0"/>
        <pt x="442" y="0" on="1"/>
        <pt x="52" y="0" on="1"/>
        <pt x="38" y="16" on="1"/>
        <pt x="53" y="122" on="1"/>
        <pt x="408" y="632" on="1"/>
        <pt x="152" y="632" on="1"/>
        <pt x="126" y="633" on="0"/>
        <pt x="117" y="652" on="0"/>
      </contour>
    </TTGlyph>
</ttFont>
